<?xml version="1.0" standalone="no"?><!DOCTYPE svg PUBLIC "-//W3C//DTD SVG 1.1//EN" "http://www.w3.org/Graphics/SVG/1.1/DTD/svg11.dtd"><svg t="1573442326620" class="icon" viewBox="0 0 1024 1024" version="1.1" xmlns="http://www.w3.org/2000/svg" p-id="12135" xmlns:xlink="http://www.w3.org/1999/xlink" width="128" height="128"><defs><style type="text/css"></style></defs><path d="M373.163 605.354c-11.864-2.373-29.063-2.373-33.216 10.093-2.371 7.716 10.082 8.313 21.353 11.277 8.899 2.374 13.645 7.123 13.051 8.307-2.374 2.971-16.016-2.373-27.879 1.783-11.864 4.155-9.489 14.838-2.371 17.805 7.116 2.378 18.386-0.593 44.485 3.562 13.047 2.376 21.352-2.374 23.134-10.09 2.368-18.4-21.949-39.172-38.557-42.737z m99.052 65.887c-23.724 0-42.704 18.401-42.704 42.141v0.593c0 4.75 3.559 8.31 8.304 8.31 4.743 0 8.302-3.56 8.302-8.31v-0.593c0-13.65 11.27-25.522 25.504-25.522 14.239 0 25.509 11.871 25.509 25.522v0.593c0 4.75 3.558 8.31 8.302 8.31 4.745 0 8.304-3.56 8.304-8.31v-0.593c1.186-22.556-18.388-42.141-41.521-42.141z m97.868-65.887c-17.199 3.565-41.52 24.338-38.554 43.333 1.782 7.715 8.898 12.461 23.132 10.089 26.099-4.156 37.369-1.189 44.487-3.562 7.117-2.373 8.898-13.651-2.372-17.805-11.864-4.156-24.914 1.187-27.879-1.783-1.777-2.373 3.56-7.122 13.051-8.902 11.27-2.376 23.724-3.562 21.352-11.277-3.561-12.466-20.759-13.06-33.217-10.093z m126.34-310.428c-2.965-2.373-7.119-4.155-12.458-4.155H259.281c-4.746 0-8.898 1.782-12.456 4.749L97.352 432.037c-3.559 3.562-5.93 8.31-5.93 13.654v334.168c0 29.088 23.728 52.827 52.79 52.827v-0.593H798.44c29.064 0 52.79-23.741 52.79-52.824V445.097c0-4.749-2.965-10.092-6.523-13.653L696.423 294.926z m-434.771 18.4h421.125L811.49 432.037H583.724c-4.745 0-8.893 4.156-8.893 9.499 0 54.606-46.861 100.901-102.022 100.901-55.161 0-102.018-46.295-102.018-100.901 0-4.749-4.152-9.499-8.898-9.499H131.755l129.897-118.711z m566.445 466.532c0 16.621-13.047 29.088-29.064 29.088H144.807c-16.61 0-30.251-13.06-30.251-29.088V451.032h237.848l1.185 7.122c4.151 26.711 16.61 51.044 36.183 68.854 22.536 21.367 52.193 33.238 83.037 33.238 30.846 0 59.908-11.871 83.041-33.238 19.571-19.587 32.028-43.33 36.181-68.854l1.187-7.122h234.88v328.826zM338.944 903.263c-19.274-0.513-39.105-7.076-57.201-14.524-12.246-5.049-17.085-4.239-24.554 6.804-13.278 19.634-27.551 39.127-44.29 55.781-26.078 25.941-58.7 39.137-96.571 39.591 32.868 16.83 67.561 26.85 103.918 29.477 7.121 0.509 17.025-6.562 21.909-12.974 8.142-10.69 16.597-11.797 28.442-8.869 13.7 3.382 27.762 6.037 41.799 6.993 7.133 0.477 15.231-2.2 21.759-5.606 43.943-22.997 73.264-59.784 96.44-102.952-31.766 2.459-61.781 7.073-91.651 6.279z m41.587 10.508c7.812-1.453 15.926-1.339 25.385-2.071-26.289 47.299-68.924 98.858-135.962 76.102-14.108-4.79-23.976-1.247-34.005 9.99-5.407 6.041-16.094 10.53-24.227 10.263-15.068-0.473-30.006-4.948-48.217-8.364 4.239-5.175 5.11-7.283 6.615-7.922 40.777-17.213 69.807-47.276 93.678-83.63 2.791-4.242 13.474-7.372 18.368-5.484 31.986 12.347 64.371 17.423 98.365 11.116zM166.33 223.708c0-1.923 0.66-4.01-0.101-5.013-32.761-43.248-41.884-93.277-40.728-145.817 0.306-13.901-2.163-23.797-13.433-33.419C101.194 30.183 93.766 16.845 83.5 3.583c-25.29 74.901-24.709 185.543 82.83 220.125zM91.864 32.643c8.344 11.923 22.004 22.508 22.209 33.335 0.805 42.828 5.161 84.576 22.875 127.28C86.543 180.726 68.25 76.511 91.864 32.643z m824.464 367.931c-13.342 6.227-29.17 7.147-45.402 10.72 4.061 11.405 8.712 24.481 13.33 37.477 33.692-6.881 58.29-33.423 69.92-76.119-13.202 10.045-24.302 21.605-37.848 27.922zM309.369 228.948c-2.877-10.419-9.671-19.695-13.141-30.012-3.37-9.996-4.618-20.708-7.355-33.772-13.569 24.454-6.458 59.546 17.277 86.516 1.55-9.529 4.854-16.815 3.219-22.732z" fill="#888" p-id="12136"></path></svg>