<?xml version="1.0" standalone="no"?><!DOCTYPE svg PUBLIC "-//W3C//DTD SVG 1.1//EN" "http://www.w3.org/Graphics/SVG/1.1/DTD/svg11.dtd"><svg t="1573442193148" class="icon" viewBox="0 0 1788 1024" version="1.1" xmlns="http://www.w3.org/2000/svg" p-id="8424" xmlns:xlink="http://www.w3.org/1999/xlink" width="223.5" height="128"><defs><style type="text/css"></style></defs><path d="M0.873813 889.36448c0 47.445333 170.195627 91.3408 446.70976 115.05664a5565.494613 5565.494613 0 0 0 893.41952 0c276.514133-23.71584 446.70976-66.505387 446.70976-115.05664 0-48.551253-170.195627-91.559253-446.70976-115.275093a5617.240747 5617.240747 0 0 0-893.41952 0C171.06944 797.805227 0.873813 841.700693 0.873813 889.36448z" fill="#EAEAEA" p-id="8425"></path><path d="M402.909867 144.943787V15.2576A11.127467 11.127467 0 0 1 414.078293 4.171093a11.127467 11.127467 0 0 1 11.168427 11.086507v129.686187a11.55072 11.55072 0 0 1-11.168427 12.63616c-6.478507 1.112747-11.168427-5.3248-11.168426-12.629334z" fill="#DCDCDC" p-id="8426"></path><path d="M348.187307 69.126827h124.859733a12.65664 12.65664 0 0 1 10.929493 14.199466 12.683947 12.683947 0 0 1-10.929493 10.8544h-124.859733a12.014933 12.014933 0 0 1-12.288-12.417706c0-6.806187 5.434027-12.397227 12.288-12.629334z m1107.176106 556.209493l-88.00256-90.89024a12.130987 12.130987 0 0 1 0-17.954133 11.44832 11.44832 0 0 1 17.421654 0l89.340586 90.671786a12.567893 12.567893 0 0 1 0 18.172587 13.243733 13.243733 0 0 1-18.75968 0z" fill="#DCDCDC" p-id="8427"></path><path d="M1457.821013 516.491947a11.89888 11.89888 0 0 1 17.865387 0 12.130987 12.130987 0 0 1 0 17.954133l-89.340587 90.002773a11.89888 11.89888 0 0 1-17.872213 0 10.806613 10.806613 0 0 1 0-16.841386l89.347413-91.11552zM195.857067 552.400213c-33.805653 0-61.201067-27.190613-61.201067-60.736853s27.395413-60.74368 61.201067-60.74368c33.792 0.2048 61.0304 27.559253 60.8256 61.098667-0.197973 33.273173-27.313493 60.183893-60.8256 60.381866z m0-98.2016c-20.84864-0.12288-37.853867 16.54784-37.976747 37.239467-0.12288 20.691627 16.677547 37.567147 37.526187 37.6832 20.84864 0.129707 37.84704-16.54784 37.96992-37.239467v-0.218453c0-20.60288-16.766293-37.341867-37.51936-37.464747z m1354.205866-223.238826c-20.35712 0.12288-36.959573-16.15872-37.082453-36.358827-0.12288-20.200107 16.274773-36.672853 36.631893-36.795733 20.350293-0.12288 36.952747 16.151893 37.0688 36.352l0.006827 0.22528c0.24576 19.954347-15.85152 36.33152-35.956053 36.57728h-0.67584z m0-55.425707a18.916693 18.916693 0 0 0-19.21024 18.623147 18.909867 18.909867 0 0 0 18.75968 19.06688 18.916693 18.916693 0 0 0 19.21024-18.8416 18.466133 18.466133 0 0 0-18.766506-18.8416z m-639.249066 713.8304c-5.946027 0.423253-11.91936 0.423253-17.865387 0-19.121493-0.976213-33.819307-17.155413-32.836267-36.133547 0.989867-18.978133 17.28512-33.56672 36.406614-32.58368 48.469333 2.6624 77.953707-7.099733 103.191893-35.252906 29.484373-32.3584 55.616853-91.99616 85.0944-170.693974 63.658667-170.7008 129.099093-370.21696 156.351147-450.696533l-438.667947-88.446293L648.6016 501.8624c-6.014293 17.749333-25.3952 27.306667-43.281067 21.333333a34.338133 34.338133 0 0 1-1.385813-0.498346c-17.892693-6.73792-27.0336-26.466987-20.548267-44.332374l164.160854-453.352106c5.147307-16.110933 21.777067-25.695573 38.42048-22.166187l505.002666 99.5328c18.725547 3.1744 31.31392 20.821333 28.11904 39.40352a33.91488 33.91488 0 0 1-0.423253 2.048v3.549867c0 0.887467-86.657707 270.45888-169.301333 490.816853-33.05472 88.6784-61.87008 151.852373-98.501974 193.31072-35.362133 39.44448-86.91712 60.750507-140.04224 57.856z" fill="#DCDCDC" p-id="8428"></path><path d="M947.452587 888.920747a214.432427 214.432427 0 0 1-90.68544-19.503787l-284.99968-127.030613s-134.007467-41.6768-94.255787-215.033174l389.085867 155.183787s-15.414613 153.84576 106.98752 136.997547a41.683627 41.683627 0 0 1-3.508907 59.153066 42.359467 42.359467 0 0 1-22.623573 10.24z m180.69504-547.341654a32.17408 32.17408 0 0 1-9.161387 0l-148.97152-39.901866c-18.500267-4.89472-29.504853-23.7568-24.576-42.120534 4.93568-18.363733 23.94112-29.2864 42.441387-24.384853l149.203626 40.127147c18.459307 4.580693 29.73696 23.094613 25.238187 41.45152a35.04128 35.04128 0 0 1-34.174293 24.828586z m-61.201067 147.647147a44.980907 44.980907 0 0 1-10.717867-1.774933l-149.203626-48.10752c-17.762987-5.154133-27.948373-23.620267-22.75328-41.24672 0.129707-0.443733 0.273067-0.887467 0.416426-1.317547 5.474987-17.79712 24.446293-27.825493 42.379947-22.398293 0.24576 0.068267 0.484693 0.150187 0.730453 0.232106l149.1968 47.88224c17.762987 5.154133 27.948373 23.620267 22.75328 41.253547l-0.4096 1.31072a34.809173 34.809173 0 0 1-32.392533 24.1664z m-55.616853 135.891627a44.980907 44.980907 0 0 1-10.943147-1.774934l-149.203627-48.100693c-17.762987-6.12352-27.163307-25.381547-20.992-43.008 6.16448-17.63328 25.565867-26.965333 43.328854-20.841813l149.203626 47.88224c18.397867 3.590827 30.385493 21.2992 26.774187 39.560533-3.433813 17.360213-19.810987 29.129387-37.49888 26.944853l-0.669013-0.662186z m-134.007467-354.699947a19.797333 19.797333 0 0 1-7.14752 0h-5.36576c-18.500267-3.918507-30.303573-21.981867-26.350933-40.3456 3.945813-18.363733 22.145707-30.078293 40.645973-26.159787h5.358933c17.954133 3.29728 29.812053 20.411733 26.487467 38.229334a32.597333 32.597333 0 0 1-0.354987 1.672533 34.106027 34.106027 0 0 1-32.385706 26.8288l-0.887467-0.22528z m-53.835093 140.32896a19.797333 19.797333 0 0 1-7.14752 0h-5.584214c-18.746027-4.532907-30.242133-23.28576-25.68192-41.90208 4.560213-18.609493 23.463253-30.02368 42.216107-25.490773h5.358933c18.152107 3.570347 29.948587 21.060267 26.350934 39.07584-0.068267 0.354987-0.136533 0.703147-0.218454 1.051306-2.717013 16.534187-17.544533 28.38528-34.399573 27.48416l-0.887467-0.218453z m-53.159254 129.911467a19.797333 19.797333 0 0 1-7.14752 0h-5.358933c-18.500267-3.918507-30.303573-21.981867-26.350933-40.3456 3.945813-18.363733 22.145707-30.078293 40.645973-26.166614 1.24928-0.3072 2.553173-0.3072 3.795627 0h1.788586c17.933653 3.413333 29.67552 20.616533 26.23488 38.406827-0.095573 0.505173-0.2048 1.00352-0.320853 1.501867-3.454293 15.50336-17.28512 26.555733-33.286827 26.596693z" fill="#DCDCDC" p-id="8429"></path></svg>