<?xml version="1.0" standalone="no"?>
<!DOCTYPE svg PUBLIC "-//W3C//DTD SVG 1.1//EN" "http://www.w3.org/Graphics/SVG/1.1/DTD/svg11.dtd" >
<svg xmlns="http://www.w3.org/2000/svg" xmlns:xlink="http://www.w3.org/1999/xlink" version="1.1">
<metadata>
Created by FontForge 20170924 at Wed Mar 30 22:48:25 2011
 By www-data
(c) Copyright (c) 2010. All rights reserved. Fakt is a design by Thomas Thiemich, published by OurType. www.ourtype.com
</metadata>
<defs>
<font id="FaktPro-Hair" horiz-adv-x="352" >
  <font-face 
    font-family="Fakt Pro Hair"
    font-weight="150"
    font-stretch="normal"
    units-per-em="1000"
    panose-1="2 0 0 0 0 0 0 0 0 0"
    ascent="748"
    descent="-252"
    x-height="488"
    cap-height="688"
    bbox="-169 -312 1043 1012"
    underline-thickness="50"
    underline-position="-150"
    unicode-range="U+0020-FB04"
  />
<missing-glyph horiz-adv-x="712" 
d="M0 0v720h712v-720h-712zM232 184l126 129l126 -129l52 52l-127 130l127 130l-52 52l-126 -129l-126 129l-52 -52l126 -130l-126 -130z" />
    <glyph glyph-name="f_b" unicode="fb" horiz-adv-x="828" 
d="M364 0v718h-121q-58 0 -87.5 -30.5t-29.5 -98.5v-101h119v-13h-119v-475h-16v475h-110v13h110v102q0 142 132 142h138v-163q0 -1 -0.5 -112.5t-0.5 -114.5h1q20 70 72 112t120 42q89 0 147.5 -68.5t58.5 -179.5q0 -112 -59.5 -184t-146.5 -72q-68 0 -120 42t-72 112h-1
v-146h-15zM380 244q0 -107 54.5 -172.5t137.5 -65.5q81 0 135.5 68t54.5 174q0 105 -54.5 169.5t-135.5 64.5t-135 -62t-57 -165v-11z" />
    <glyph glyph-name="f_f_b" unicode="ffb" horiz-adv-x="1082" 
d="M364 0v475h-238v-475h-16v475h-110v13h110v102q0 142 132 142h34v-14h-33q-58 0 -87.5 -30.5t-29.5 -98.5v-101h238v102q0 142 131 142h138v-163q0 -1 -0.5 -112.5t-0.5 -114.5h1q20 70 72 112t120 42q89 0 147.5 -68.5t58.5 -179.5q0 -112 -59.5 -184t-146.5 -72
q-68 0 -120 42t-72 112h-1v-146h-15v718h-121q-58 0 -87 -30.5t-29 -98.5v-101h121v-13h-121v-475h-16zM633 244q0 -107 54.5 -172.5t137.5 -65.5q81 0 135.5 68t54.5 174q0 105 -54.5 169.5t-135.5 64.5t-135 -62t-57 -165v-11z" />
    <glyph glyph-name="f_f_h" unicode="ffh" horiz-adv-x="1068" 
d="M364 0v475h-238v-475h-16v475h-110v13h110v102q0 142 132 142h34v-14h-33q-58 0 -87.5 -30.5t-29.5 -98.5v-101h238v102q0 142 131 142h138v-163q0 -1 -0.5 -106t-0.5 -108h1q19 71 69 106t113 35q77 0 122.5 -46.5t45.5 -142.5v-307h-16v306q0 89 -41 132.5t-111 43.5
q-79 0 -130.5 -57t-51.5 -165v-260h-16v718h-121q-58 0 -87 -30.5t-29 -98.5v-101h121v-13h-121v-475h-16z" />
    <glyph glyph-name="f_f_j" unicode="ffj" horiz-adv-x="723" 
d="M364 0v475h-238v-475h-16v475h-110v13h110v102q0 142 132 142h35v-14h-34q-58 0 -87.5 -30.5t-29.5 -98.5v-101h238v102q0 142 131 142h35v-14h-34q-58 0 -87 -30.5t-29 -98.5v-101h253v-605q0 -55 -24.5 -79t-72.5 -24h-24v14h24q41 0 61 20.5t20 70.5v590h-237v-475
h-16zM616 646v86h17v-86h-17z" />
    <glyph glyph-name="f_f_k" unicode="ffk" horiz-adv-x="1002" 
d="M364 0v475h-238v-475h-16v475h-110v13h110v102q0 142 132 142h34v-14h-33q-58 0 -87.5 -30.5t-29.5 -98.5v-101h238v102q0 142 131 142h138v-584l307 340h19l-184 -204l209 -284h-20l-200 272l-131 -145v-127h-16v718h-121q-58 0 -87 -30.5t-29 -98.5v-101h121v-13h-121
v-475h-16z" />
    <glyph glyph-name="f_f_t" unicode="fft" horiz-adv-x="792" 
d="M364 0v475h-238v-475h-16v475h-110v13h110v102q0 142 132 142h34v-14h-33q-58 0 -87.5 -30.5t-29.5 -98.5v-101h238v102q0 142 131 142h35v-14h-34q-58 0 -87 -30.5t-29 -98.5v-101h225v148h16v-148h147v-13h-147v-345q0 -64 25 -90t78 -26h44v-14h-44q-60 0 -89.5 30
t-29.5 100v345h-225v-475h-16z" />
    <glyph glyph-name="f_h" unicode="fh" horiz-adv-x="815" 
d="M364 0v718h-121q-58 0 -87.5 -30.5t-29.5 -98.5v-101h119v-13h-119v-475h-16v475h-110v13h110v102q0 142 132 142h138v-163q0 -1 -0.5 -106t-0.5 -108h1q19 71 69 106t113 35q77 0 122.5 -46.5t45.5 -142.5v-307h-16v306q0 89 -41 132.5t-111 43.5q-79 0 -130.5 -57
t-51.5 -165v-260h-16z" />
    <glyph glyph-name="f_j" unicode="fj" horiz-adv-x="470" 
d="M258 -206h24q82 0 82 98v583h-238v-475h-16v475h-110v13h110v102q0 142 132 142h34v-14h-33q-58 0 -87.5 -30.5t-29.5 -98.5v-101h254v-598q0 -110 -97 -110h-25v14zM363 646v86h17v-86h-17z" />
    <glyph glyph-name="f_k" unicode="fk" horiz-adv-x="748" 
d="M364 0v718h-121q-58 0 -87.5 -30.5t-29.5 -98.5v-101h119v-13h-119v-475h-16v475h-110v13h110v102q0 142 132 142h138v-584l307 340h19l-184 -204l209 -284h-20l-200 272l-131 -145v-127h-16z" />
    <glyph glyph-name="f_t" unicode="ft" horiz-adv-x="538" 
d="M352 130v345h-226v-475h-16v475h-110v13h110v102q0 142 132 142h24v-14h-23q-58 0 -87.5 -30.5t-29.5 -98.5v-101h226v148h16v-148h146v-13h-146v-345q0 -64 24.5 -90t78.5 -26h43v-14h-43q-60 0 -89.5 30t-29.5 100z" />
    <glyph glyph-name="fi" unicode="fi" horiz-adv-x="470" 
d="M364 0v475h-238v-475h-16v475h-110v13h110v102q0 142 132 142h34v-14h-33q-58 0 -87.5 -30.5t-29.5 -98.5v-101h254v-488h-16zM363 646v86h17v-86h-17z" />
    <glyph glyph-name="fl" unicode="fl" horiz-adv-x="470" 
d="M110 0v475h-110v13h110v102q0 142 132 142h138v-732h-16v718h-121q-58 0 -87.5 -30.5t-29.5 -98.5v-101h119v-13h-119v-475h-16z" />
    <glyph glyph-name="ff" unicode="ff" horiz-adv-x="518" 
d="M110 0v475h-110v13h110v102q0 142 132 142h34v-14h-33q-58 0 -87.5 -30.5t-29.5 -98.5v-101h238v102q0 142 131 142h35v-14h-34q-58 0 -87 -30.5t-29 -98.5v-101h134v-13h-134v-475h-16v475h-238v-475h-16z" />
    <glyph glyph-name="ffi" unicode="ffi" horiz-adv-x="723" 
d="M364 0v475h-238v-475h-16v475h-110v13h110v102q0 142 132 142h35v-14h-34q-58 0 -87.5 -30.5t-29.5 -98.5v-101h238v102q0 142 131 142h35v-14h-34q-58 0 -87 -30.5t-29 -98.5v-101h253v-488h-16v475h-237v-475h-16zM616 646v86h17v-86h-17z" />
    <glyph glyph-name="ffl" unicode="ffl" horiz-adv-x="712" 
d="M364 0v475h-238v-475h-16v475h-110v13h110v102q0 142 132 142h34v-14h-33q-58 0 -87.5 -30.5t-29.5 -98.5v-101h238v102q0 142 131 142h127v-732h-16v718h-110q-58 0 -87 -30.5t-29 -98.5v-101h121v-13h-121v-475h-16z" />
    <glyph glyph-name=".notdef" horiz-adv-x="712" 
d="M0 0v720h712v-720h-712zM232 184l126 129l126 -129l52 52l-127 130l127 130l-52 52l-126 -129l-126 129l-52 -52l126 -130l-126 -130z" />
    <glyph glyph-name=".null" horiz-adv-x="0" 
 />
    <glyph glyph-name="nonmarkingreturn" horiz-adv-x="333" 
 />
    <glyph glyph-name="space" unicode=" " horiz-adv-x="204" 
 />
    <glyph glyph-name="exclam" unicode="!" horiz-adv-x="194" 
d="M90 181l-1 344v163h16v-163l-1 -344h-14zM89 0v86h16v-86h-16z" />
    <glyph glyph-name="quotedbl" unicode="&#x22;" horiz-adv-x="363" 
d="M88 436l-2 157v95h16v-95l-3 -157h-11zM264 436l-2 157v95h16v-95l-3 -157h-11z" />
    <glyph glyph-name="numbersign" unicode="#" horiz-adv-x="580" 
d="M67 489v13h124l32 186h15l-33 -186h221l32 186h15l-33 -186h124v-13h-126l-49 -283h124v-13h-127l-33 -193h-15l33 193h-220l-33 -193h-15l33 193h-120v13h123l49 283h-121zM203 489l-49 -283h220l49 283h-220z" />
    <glyph glyph-name="dollar" unicode="$" horiz-adv-x="568" 
d="M52 178h15q6 -80 66 -126t147 -46h8q87 2 142 49t55 126q0 63 -33 96.5t-114 56.5l-121 34q-73 21 -111 54t-38 104q0 75 54 121.5t146 48.5v108h16v-108q81 -2 137.5 -47.5t63.5 -118.5h-15q-7 68 -59 109t-127 43h-16q-85 -2 -134.5 -44t-49.5 -111q0 -66 35 -96
t103 -49l121 -34q86 -24 122 -62t36 -105q0 -84 -60 -135.5t-153 -53.5v-112h-16v112q-91 2 -153 52t-67 134z" />
    <glyph glyph-name="percent" unicode="%" horiz-adv-x="733" 
d="M176 337q-64 0 -99 50.5t-35 128.5t35 128.5t99 50.5t99 -50.5t35 -128.5t-35 -128.5t-99 -50.5zM176 351q57 0 87.5 45.5t30.5 119.5t-30.5 119.5t-87.5 45.5t-87.5 -46t-30.5 -119t30.5 -119t87.5 -46zM183 -12l351 712h16l-351 -712h-16zM557 -7q-64 0 -99 50.5
t-35 128.5t35 128.5t99 50.5t99 -50.5t35 -128.5t-35 -128.5t-99 -50.5zM557 7q57 0 87.5 45.5t30.5 119.5t-30.5 119.5t-87.5 45.5t-87.5 -46t-30.5 -119t30.5 -119t87.5 -46z" />
    <glyph glyph-name="ampersand" unicode="&#x26;" horiz-adv-x="656" 
d="M62 166q0 39 14 70.5t43.5 56.5t56 40.5t69.5 36.5q-58 58 -84 96.5t-26 83.5q0 63 47 104.5t120 41.5q71 0 114.5 -41t43.5 -100q0 -29 -12 -54t-26.5 -41t-46 -35.5t-49 -28.5t-58.5 -28l244 -243q54 87 54 200v19h15v-20q0 -118 -59 -210l115 -114h-20l-103 102
q-81 -110 -232 -110q-107 0 -163.5 45.5t-56.5 128.5zM282 6q148 0 222 106l-250 249q-41 -20 -66.5 -35.5t-54 -39t-42 -53.5t-13.5 -67q0 -76 52.5 -118t151.5 -42zM150 551q0 -41 26 -79t83 -95q34 16 47.5 22.5t41.5 22t40.5 27t28.5 28.5t22 36t6 42q0 54 -39 90.5
t-104 36.5q-67 0 -109.5 -36.5t-42.5 -94.5z" />
    <glyph glyph-name="quotesingle" unicode="'" horiz-adv-x="187" 
d="M88 436l-2 157v95h16v-95l-3 -157h-11z" />
    <glyph glyph-name="parenleft" unicode="(" horiz-adv-x="252" 
d="M49 260q0 143 49.5 270t114.5 214h15q-63 -87 -113 -215.5t-50 -268.5t50.5 -270.5t112.5 -217.5h-15q-64 87 -114 216t-50 272z" />
    <glyph glyph-name="parenright" unicode=")" horiz-adv-x="252" 
d="M23 -228q62 86 112.5 217t50.5 271t-50 268.5t-113 215.5h15q65 -86 114.5 -213.5t49.5 -270.5t-50 -272.5t-114 -215.5h-15z" />
    <glyph glyph-name="asterisk" unicode="*" horiz-adv-x="434" 
d="M210 696h14l-2 -154l146 50l4 -13l-148 -45l92 -123l-11 -8l-89 125l-87 -125l-11 8l91 123l-146 45l4 13l146 -50z" />
    <glyph glyph-name="plus" unicode="+" horiz-adv-x="568" 
d="M60 246v14h216v220h16v-220h216v-14h-216v-218h-16v218h-216z" />
    <glyph glyph-name="comma" unicode="," horiz-adv-x="192" 
d="M92 0h-5v102h18v-102l-35 -156h-9z" />
    <glyph glyph-name="hyphen" unicode="-" horiz-adv-x="396" 
d="M60 245v15h276v-15h-276z" />
    <glyph glyph-name="period" unicode="." horiz-adv-x="192" 
d="M87 0v102h18v-102h-18z" />
    <glyph glyph-name="slash" unicode="/" horiz-adv-x="404" 
d="M40 -12l308 712h15l-308 -712h-15z" />
    <glyph glyph-name="zero" unicode="0" horiz-adv-x="568" 
d="M284 -8q-114 0 -171.5 97t-57.5 255t57.5 255t171.5 97t171.5 -97t57.5 -255t-57.5 -255t-171.5 -97zM284 7q71 0 120 45.5t71 119.5t22 172q0 150 -54 243.5t-159 93.5q-71 0 -120 -45.5t-71 -119.5t-22 -172q0 -150 54 -243.5t159 -93.5z" />
    <glyph glyph-name="one" unicode="1" horiz-adv-x="568" 
d="M87 524l-6 12l220 153h11v-675h204v-14h-432v14h212v655z" />
    <glyph glyph-name="two" unicode="2" horiz-adv-x="568" 
d="M74 0q4 110 38.5 164.5t122.5 106.5l76 45q5 3 28 16t30.5 17.5t27.5 18t27.5 21.5t21.5 23t19.5 28.5t10.5 32t5 38.5q0 79 -52 125t-134 46q-84 0 -143 -46.5t-62 -147.5h-15q2 74 36.5 122.5t81 67t102.5 18.5q87 0 144.5 -50t57.5 -135q0 -21 -5 -40.5t-11 -33.5
t-19.5 -29.5t-22 -24.5t-28.5 -22.5t-29 -19t-32 -19t-30 -17.5l-76 -45q-84 -50 -116.5 -100.5t-36.5 -145.5h410v-14h-427z" />
    <glyph glyph-name="three" unicode="3" horiz-adv-x="568" 
d="M59 197h15q0 -92 56.5 -141.5t149.5 -49.5t153 47t60 128q0 75 -61.5 124t-151.5 49h-52v14h52q81 0 133 43t52 114q0 73 -53.5 115t-131.5 42q-80 0 -132.5 -44.5t-52.5 -130.5h-15q0 92 56.5 140.5t143.5 48.5q86 0 143.5 -45.5t57.5 -125.5q0 -63 -40.5 -107.5
t-104.5 -55.5v-1q73 -12 123 -61.5t50 -119.5q0 -88 -64.5 -138t-164.5 -50t-160.5 52.5t-60.5 152.5z" />
    <glyph glyph-name="four" unicode="4" horiz-adv-x="568" 
d="M39 208v11l352 473h13v-470h118v-14h-118v-208h-16v208h-349zM58 222h330v442z" />
    <glyph glyph-name="five" unicode="5" horiz-adv-x="568" 
d="M70 170h16q9 -66 60.5 -115t141.5 -49q88 0 146.5 58t58.5 155q0 92 -55.5 149.5t-146.5 57.5q-121 0 -187 -116l-18 1l20 377h363v-14h-347l-20 -343h1q67 109 189 109q98 0 157.5 -61t59.5 -159q0 -104 -63 -166t-158 -62q-96 0 -151.5 51.5t-66.5 126.5z" />
    <glyph glyph-name="six" unicode="6" horiz-adv-x="568" 
d="M66 328q0 191 65.5 279.5t172.5 88.5q88 0 139.5 -49t60.5 -131h-15q-9 75 -56 120.5t-129 45.5q-100 0 -161 -85t-61 -269q0 -46 4 -78h2q10 86 70.5 138t146.5 52q98 0 157 -61.5t59 -158.5q0 -103 -63 -165.5t-158 -62.5q-108 0 -171 81.5t-63 254.5zM98 213
q0 -36 9 -63q48 -144 193 -144q89 0 147 58t58 156q0 91 -55 148.5t-146 57.5q-89 0 -147.5 -58.5t-58.5 -154.5z" />
    <glyph glyph-name="seven" unicode="7" horiz-adv-x="568" 
d="M204 0l292 674h-433v14h450v-12l-292 -676h-17z" />
    <glyph glyph-name="eight" unicode="8" horiz-adv-x="568" 
d="M55 180q0 70 50 119.5t123 61.5v1q-64 11 -104.5 55.5t-40.5 107.5q0 80 57.5 125.5t143.5 45.5t143.5 -45.5t57.5 -125.5q0 -63 -40.5 -107.5t-104.5 -55.5v-1q73 -12 123 -61.5t50 -119.5q0 -88 -64.5 -138t-164.5 -50t-164.5 50t-64.5 138zM71 181q0 -81 60 -128
t153 -47t153 47t60 128q0 75 -61.5 124t-151.5 49t-151.5 -49t-61.5 -124zM284 368q81 0 133 43t52 114q0 73 -53.5 115t-131.5 42t-131.5 -42t-53.5 -115q0 -71 52 -114t133 -43z" />
    <glyph glyph-name="nine" unicode="9" horiz-adv-x="568" 
d="M502 360q0 -192 -63.5 -280t-170.5 -88q-89 0 -142 49.5t-62 130.5h15q9 -75 58 -120.5t131 -45.5q101 0 159.5 84.5t58.5 269.5q0 39 -5 82h-1q-8 -88 -69.5 -141t-147.5 -53q-98 0 -157 61.5t-59 158.5q0 103 63 165.5t158 62.5q108 0 171 -81.5t63 -254.5zM470 476
q0 27 -4 41q-46 165 -198 165q-88 0 -146.5 -58t-58.5 -156q0 -91 55 -148.5t146 -57.5q89 0 147.5 58.5t58.5 155.5z" />
    <glyph glyph-name="colon" unicode=":" horiz-adv-x="192" 
d="M87 386v102h18v-102h-18zM87 0v102h18v-102h-18z" />
    <glyph glyph-name="semicolon" unicode=";" horiz-adv-x="192" 
d="M87 386v102h18v-102h-18zM92 0h-5v102h18v-102l-35 -156h-9z" />
    <glyph glyph-name="less" unicode="&#x3c;" horiz-adv-x="568" 
d="M76 248v15l416 180v-15l-400 -172l400 -172v-16z" />
    <glyph glyph-name="equal" unicode="=" horiz-adv-x="568" 
d="M60 352v14h448v-14h-448zM60 142v14h448v-14h-448z" />
    <glyph glyph-name="greater" unicode="&#x3e;" horiz-adv-x="568" 
d="M492 263v-15l-416 -180v16l400 171l-400 173v15z" />
    <glyph glyph-name="question" unicode="?" horiz-adv-x="436" 
d="M208 196v28q0 48 18 83.5t44 58t51.5 44t43.5 53.5t18 75q0 67 -45 105.5t-114 38.5q-80 0 -127.5 -48t-47.5 -140h-16q0 98 52.5 150t138.5 52q77 0 126.5 -42t49.5 -116q0 -38 -13 -68.5t-32.5 -49t-42.5 -39t-42.5 -39t-32.5 -49t-13 -69.5v-28h-16zM207 0v86h16v-86
h-16z" />
    <glyph glyph-name="at" unicode="@" horiz-adv-x="1032" 
d="M319 120q0 113 141 134l131 21q35 6 52.5 16.5t17.5 32.5q0 79 -39.5 118.5t-109.5 39.5q-67 0 -111 -37t-50 -109h-15q5 77 53.5 118.5t122.5 41.5q76 0 120.5 -44t44.5 -128v-210q0 -55 31.5 -82t78.5 -27q75 0 121 67t46 200q0 123 -59.5 218t-158 144t-216.5 49
q-189 0 -315.5 -123.5t-126.5 -323.5q0 -199 123 -324.5t303 -125.5q179 0 281 115h17q-100 -129 -298 -129q-91 0 -171.5 34t-140.5 93.5t-95 147t-35 189.5q0 205 131.5 333t326.5 128q122 0 224 -51t164 -149.5t62 -224.5q0 -138 -51.5 -208.5t-132.5 -70.5q-53 0 -89 30
t-36 89v16q-20 -61 -70.5 -98.5t-122.5 -37.5q-71 0 -110 35t-39 93zM468 6q82 0 137.5 55t55.5 160v71q-16 -23 -68 -31l-130 -20q-128 -20 -128 -120q0 -52 35.5 -83.5t97.5 -31.5z" />
    <glyph glyph-name="A" unicode="A" horiz-adv-x="597" 
d="M23 0l266 688h19l266 -688h-17l-94 243h-330l-93 -243h-17zM298 671l-159 -414h319l-159 414h-1z" />
    <glyph glyph-name="B" unicode="B" horiz-adv-x="632" 
d="M99 0v688h255q195 0 195 -158q0 -62 -37 -107t-102 -58q79 -10 121 -57t42 -115q0 -87 -54 -140t-156 -53h-264zM363 357h-248v-343h248q95 0 144 49t49 130q0 73 -49.5 118.5t-143.5 45.5zM354 674h-239v-303h246q79 0 125 45t46 114q0 144 -178 144z" />
    <glyph glyph-name="C" unicode="C" horiz-adv-x="698" 
d="M55 344q0 147 87 249.5t227 102.5q109 0 181.5 -56.5t99.5 -153.5h-16q-27 91 -95 143t-170 52q-133 0 -215 -98t-82 -239q0 -140 81.5 -238.5t214.5 -98.5q102 0 169 52t97 143h16q-30 -98 -101.5 -154t-180.5 -56q-139 0 -226 102.5t-87 249.5z" />
    <glyph glyph-name="D" unicode="D" horiz-adv-x="675" 
d="M99 0v688h158q177 0 270 -94t93 -250t-93 -250t-270 -94h-158zM257 674h-142v-660h142q169 0 258 90.5t89 239.5t-89 239.5t-258 90.5z" />
    <glyph glyph-name="E" unicode="E" horiz-adv-x="590" 
d="M99 0v688h435v-14h-419v-314h343v-14h-343v-332h427v-14h-443z" />
    <glyph glyph-name="F" unicode="F" horiz-adv-x="554" 
d="M99 0v688h427v-14h-411v-325h335v-13h-335v-336h-16z" />
    <glyph glyph-name="G" unicode="G" horiz-adv-x="742" 
d="M641 0v166h-1q-28 -87 -101 -130.5t-170 -43.5q-138 0 -226 103t-88 249q0 153 90.5 252.5t231.5 99.5q113 0 184 -57.5t91 -147.5h-17q-18 82 -85.5 136t-172.5 54q-135 0 -220 -94.5t-85 -242.5q0 -140 83 -238.5t214 -98.5q53 0 100.5 14.5t86.5 44t61.5 80.5
t22.5 118v71h-267v15h282v-350h-14z" />
    <glyph glyph-name="H" unicode="H" horiz-adv-x="685" 
d="M99 0v688h16v-329h455v329h16v-688h-16v345h-455v-345h-16z" />
    <glyph glyph-name="I" unicode="I" horiz-adv-x="214" 
d="M99 0v688h16v-688h-16z" />
    <glyph glyph-name="J" unicode="J" horiz-adv-x="516" 
d="M69 185v43h16v-42q0 -92 44.5 -136t120.5 -44q71 0 116.5 45.5t45.5 134.5v502h16v-503q0 -96 -49.5 -144.5t-128.5 -48.5q-83 0 -132 47.5t-49 145.5z" />
    <glyph glyph-name="K" unicode="K" horiz-adv-x="630" 
d="M99 0v688h16v-482l438 482h21l-270 -296l289 -392h-19l-281 380l-178 -196v-184h-16z" />
    <glyph glyph-name="L" unicode="L" horiz-adv-x="535" 
d="M99 0v688h16v-674h390v-14h-406z" />
    <glyph glyph-name="M" unicode="M" horiz-adv-x="843" 
d="M99 0v688h18l304 -665h1l304 665h18v-688h-16l1 657h-1l-300 -657h-13l-300 656h-1l1 -656h-16z" />
    <glyph glyph-name="N" unicode="N" horiz-adv-x="689" 
d="M99 0v688h16l458 -660h1v660h16v-688h-16l-458 660h-1v-660h-16z" />
    <glyph glyph-name="O" unicode="O" horiz-adv-x="738" 
d="M55 344q0 152 88 252t226 100q136 0 225.5 -100.5t89.5 -251.5t-89.5 -251.5t-225.5 -100.5q-138 0 -226 100.5t-88 251.5zM72 344q0 -145 83.5 -241t213.5 -96q129 0 213.5 96.5t84.5 240.5t-84.5 240.5t-213.5 96.5q-130 0 -213.5 -96t-83.5 -241z" />
    <glyph glyph-name="P" unicode="P" horiz-adv-x="600" 
d="M99 0v688h242q99 0 155.5 -56.5t56.5 -149.5q0 -92 -56.5 -149t-155.5 -57h-226v-276h-16zM342 674h-227v-384h227q91 0 142.5 53t51.5 139q0 87 -51.5 139.5t-142.5 52.5z" />
    <glyph glyph-name="Q" unicode="Q" horiz-adv-x="739" 
d="M55 344q0 152 88 252t226 100q136 0 225.5 -100.5t89.5 -251.5q0 -88 -33 -162t-91 -122l140 -145l-10 -11l-142 146q-78 -58 -179 -58q-138 0 -226 100.5t-88 251.5zM72 344q0 -145 83.5 -241t213.5 -96q129 0 213.5 96.5t84.5 240.5t-84.5 240.5t-213.5 96.5
q-130 0 -213.5 -96t-83.5 -241z" />
    <glyph glyph-name="R" unicode="R" horiz-adv-x="627" 
d="M99 0v688h253q100 0 154 -48t54 -134q0 -84 -53 -136.5t-146 -54.5l208 -315h-18l-207 315h-229v-315h-16zM352 674h-237v-345h237q91 0 141 48.5t50 128.5q0 79 -49 123.5t-142 44.5z" />
    <glyph glyph-name="S" unicode="S" horiz-adv-x="612" 
d="M68 182h15q0 -88 61 -132t165 -44q101 0 158.5 47.5t57.5 127.5q0 53 -25 87t-64.5 49t-87.5 23.5t-96 17.5t-87.5 24.5t-64.5 50t-25 88.5q0 75 63 125t164 50q103 0 164.5 -44.5t61.5 -129.5h-16q0 78 -57.5 119t-152.5 41q-92 0 -151 -45.5t-59 -114.5q0 -51 25 -83
t64.5 -46t87.5 -22.5t96 -17.5t87.5 -25t64.5 -52.5t25 -93.5q0 -87 -61.5 -138.5t-171.5 -51.5q-112 0 -176.5 47t-64.5 143z" />
    <glyph glyph-name="T" unicode="T" horiz-adv-x="556" 
d="M8 674v14h540v-14h-262v-674h-16v674h-262z" />
    <glyph glyph-name="U" unicode="U" horiz-adv-x="667" 
d="M86 268v420h17v-420q0 -130 62 -196t169 -66q106 0 168 66t62 196v420h17v-420q0 -137 -66.5 -206.5t-180.5 -69.5t-181 69.5t-67 206.5z" />
    <glyph glyph-name="V" unicode="V" horiz-adv-x="580" 
d="M281 0l-266 688h17l258 -671h1l258 671h17l-266 -688h-19z" />
    <glyph glyph-name="W" unicode="W" horiz-adv-x="871" 
d="M206 0l-190 688h16l184 -669h1l211 669h17l210 -669h1l183 669h17l-190 -688h-21l-208 664h-1l-209 -664h-21z" />
    <glyph glyph-name="X" unicode="X" horiz-adv-x="556" 
d="M19 0l248 351l-240 337h19l230 -323l229 323h17l-237 -335l253 -353h-20l-242 339l-239 -339h-18z" />
    <glyph glyph-name="Y" unicode="Y" horiz-adv-x="558" 
d="M270 0v285l-254 403h18l244 -385h1l245 385h18l-255 -401v-287h-17z" />
    <glyph glyph-name="Z" unicode="Z" horiz-adv-x="552" 
d="M60 674v14h452v-9l-452 -665h448v-14h-468v9l451 665h-431z" />
    <glyph glyph-name="bracketleft" unicode="[" horiz-adv-x="282" 
d="M115 -214h143v-14h-159v972h159v-14h-143v-944z" />
    <glyph glyph-name="backslash" unicode="\" horiz-adv-x="404" 
d="M348 -12l-308 712h15l308 -712h-15z" />
    <glyph glyph-name="bracketright" unicode="]" horiz-adv-x="282" 
d="M23 -214h144v944h-144v14h160v-972h-160v14z" />
    <glyph glyph-name="asciicircum" unicode="^" horiz-adv-x="568" 
d="M76 352l198 336h16l199 -336h-16l-191 323l-190 -323h-16z" />
    <glyph glyph-name="underscore" unicode="_" horiz-adv-x="500" 
d="M0 -72h500v-13h-500v13z" />
    <glyph glyph-name="grave" unicode="`" horiz-adv-x="524" 
d="M257 568l-116 164h20l110 -164h-14z" />
    <glyph glyph-name="a" unicode="a" horiz-adv-x="499" 
d="M55 120q0 113 141 134l131 21q35 6 52.5 16.5t17.5 32.5q0 79 -39.5 118.5t-109.5 39.5q-67 0 -111 -37t-50 -109h-15q5 77 53.5 118.5t122.5 41.5q76 0 120.5 -44t44.5 -128v-324h-15v127h-1q-18 -63 -67.5 -99t-125.5 -36q-71 0 -110 35t-39 93zM204 6q83 0 138 51.5
t55 155.5v79q-16 -23 -68 -31l-130 -20q-128 -20 -128 -120q0 -52 35.5 -83.5t97.5 -31.5z" />
    <glyph glyph-name="b" unicode="b" horiz-adv-x="554" 
d="M90 0v732h16v-163q0 -1 -0.5 -112.5t-0.5 -114.5h1q20 70 72 112t120 42q89 0 147.5 -68.5t58.5 -179.5q0 -112 -59.5 -184t-146.5 -72q-68 0 -120 42t-72 112h-1l1 -146h-16zM106 244q0 -107 54.5 -172.5t137.5 -65.5q81 0 135.5 68t54.5 174q0 105 -54.5 169.5
t-135.5 64.5t-135 -62t-57 -165v-11z" />
    <glyph glyph-name="c" unicode="c" horiz-adv-x="498" 
d="M51 244q0 111 60.5 181.5t149.5 70.5q70 0 121 -43.5t66 -117.5h-16q-16 68 -62 107.5t-109 39.5q-81 0 -137.5 -67.5t-56.5 -170.5q0 -105 54.5 -171.5t139.5 -66.5q63 0 109 39.5t62 107.5h16q-15 -74 -66 -117.5t-121 -43.5q-93 0 -151.5 70t-58.5 182z" />
    <glyph glyph-name="d" unicode="d" horiz-adv-x="555" 
d="M51 240q0 112 59.5 184t147.5 72q68 0 119.5 -42t71.5 -112h1q0 4 -0.5 114t-0.5 112v164h16v-732h-15v146h-1q-20 -70 -72 -112t-120 -42q-89 0 -147.5 68.5t-58.5 179.5zM67 240q0 -105 54.5 -169.5t135.5 -64.5t135 62t57 165v22q-3 103 -57 165t-134 62
q-82 0 -136.5 -68t-54.5 -174z" />
    <glyph glyph-name="e" unicode="e" horiz-adv-x="506" 
d="M51 244q0 110 59.5 181t147.5 71q84 0 139 -62.5t55 -169.5v-8h-385v-12q0 -107 52.5 -172.5t142.5 -65.5q67 0 114 38.5t56 103.5h15q-9 -70 -60.5 -113t-124.5 -43q-98 0 -154.5 69t-56.5 183zM258 482q-76 0 -129.5 -59t-60.5 -153h368q-1 97 -52 154.5t-126 57.5z
" />
    <glyph glyph-name="f" unicode="f" horiz-adv-x="265" 
d="M110 0v475h-110v13h110v102q0 142 132 142h35v-14h-34q-58 0 -87.5 -30.5t-29.5 -98.5v-101h135v-13h-135v-475h-16z" />
    <glyph glyph-name="g" unicode="g" horiz-adv-x="555" 
d="M63 -60h15q0 -71 49 -112.5t130 -41.5q192 0 192 227l1 133h-1q-20 -70 -72 -112t-120 -42q-89 0 -147.5 68.5t-58.5 179.5q0 112 59.5 184t147.5 72q68 0 119.5 -42t71.5 -112h1v146h15v-475q0 -240 -208 -240q-88 0 -141 44.5t-53 122.5zM67 240q0 -105 54.5 -169.5
t135.5 -64.5q83 0 137.5 65.5t54.5 172.5t-54 172.5t-137 65.5q-82 0 -136.5 -68t-54.5 -174z" />
    <glyph glyph-name="h" unicode="h" horiz-adv-x="542" 
d="M90 0v732h16v-163q0 -1 -0.5 -106t-0.5 -108h1q19 71 69 106t113 35q77 0 122.5 -46.5t45.5 -142.5v-307h-16v306q0 89 -41 132.5t-111 43.5q-78 0 -130 -56t-52 -166v-260h-16z" />
    <glyph glyph-name="i" unicode="i" horiz-adv-x="197" 
d="M90 646v86h17v-86h-17zM90 0v488h16v-488h-16z" />
    <glyph glyph-name="j" unicode="j" horiz-adv-x="197" 
d="M90 646v86h17v-86h-17zM90 -115v603h16v-605q0 -103 -96 -103h-25v14h24q41 0 61 20.5t20 70.5z" />
    <glyph glyph-name="k" unicode="k" horiz-adv-x="475" 
d="M90 0v732h16v-584l307 340h19l-184 -204l209 -284h-20l-200 272l-131 -145v-127h-16z" />
    <glyph glyph-name="l" unicode="l" horiz-adv-x="196" 
d="M90 0v732h16v-732h-16z" />
    <glyph glyph-name="m" unicode="m" horiz-adv-x="860" 
d="M90 0v488h15v-133h1q19 70 67.5 105.5t106.5 35.5q62 0 104.5 -36.5t52.5 -109.5h1q22 76 70.5 111t105.5 35q71 0 115.5 -47t44.5 -142v-307h-16v306q0 88 -40 132t-104 44q-73 0 -123.5 -57t-50.5 -165v-260h-16v306q0 88 -40 132t-104 44q-72 0 -123 -56.5t-51 -166.5
v-259h-16z" />
    <glyph glyph-name="n" unicode="n" horiz-adv-x="542" 
d="M90 0v488h15v-133h1q19 71 69 106t113 35q77 0 122.5 -46.5t45.5 -142.5v-307h-16v306q0 89 -41 132.5t-111 43.5q-78 0 -130 -56.5t-52 -166.5v-259h-16z" />
    <glyph glyph-name="o" unicode="o" horiz-adv-x="524" 
d="M51 244q0 110 61.5 181t149.5 71q93 0 152 -70t59 -182q0 -110 -61.5 -181t-149.5 -71q-93 0 -152 70t-59 182zM67 244q0 -104 55.5 -171t139.5 -67q81 0 138 67.5t57 170.5q0 105 -55 171.5t-140 66.5q-81 0 -138 -67.5t-57 -170.5z" />
    <glyph glyph-name="p" unicode="p" horiz-adv-x="555" 
d="M106 -80v-140h-16v708h16l-1 -146h1q20 70 72 112t120 42q89 0 147.5 -68.5t58.5 -179.5q0 -112 -59.5 -184t-146.5 -72q-68 0 -120 42t-72 112h-1q0 -3 0.5 -114t0.5 -112zM488 248q0 105 -54.5 169.5t-135.5 64.5t-135 -62t-57 -165v-11q0 -107 54.5 -172.5
t137.5 -65.5q81 0 135.5 68t54.5 174z" />
    <glyph glyph-name="q" unicode="q" horiz-adv-x="555" 
d="M449 -80q0 1 0.5 112t0.5 114h-1q-20 -70 -72 -112t-120 -42q-89 0 -147.5 68.5t-58.5 179.5q0 112 59.5 184t147.5 72q68 0 119.5 -42t71.5 -112h1v146h15v-708h-16v140zM67 240q0 -105 54.5 -169.5t135.5 -64.5q83 0 137.5 65.5t54.5 172.5t-54 172.5t-137 65.5
q-82 0 -136.5 -68t-54.5 -174z" />
    <glyph glyph-name="r" unicode="r" horiz-adv-x="324" 
d="M90 0v488h15v-120h1q14 56 51.5 92t89.5 36q40 0 70 -18l-7 -14q-28 17 -63 17q-62 0 -101.5 -58t-39.5 -140v-283h-16z" />
    <glyph glyph-name="s" unicode="s" horiz-adv-x="452" 
d="M41 133h15q0 -65 47.5 -96t118.5 -31q70 0 116.5 31.5t46.5 91.5q0 49 -27 73t-88 34l-92 16q-60 10 -93 35t-33 79q0 60 47.5 95t122.5 35q71 0 120.5 -34t49.5 -99h-15q0 59 -45 89t-110 30q-68 0 -111 -31t-43 -84q0 -47 29 -69.5t83 -31.5l92 -16q68 -12 98.5 -38
t30.5 -82q0 -66 -51.5 -102t-127.5 -36q-79 0 -130 35t-51 106z" />
    <glyph glyph-name="t" unicode="t" horiz-adv-x="290" 
d="M102 130v345h-106v13h106v148h16v-148h148v-13h-148v-345q0 -64 25 -90t79 -26h44v-14h-45q-60 0 -89.5 30t-29.5 100z" />
    <glyph glyph-name="u" unicode="u" horiz-adv-x="534" 
d="M82 181v307h16v-306q0 -89 41 -132.5t109 -43.5q77 0 128.5 57t51.5 165v260h16v-488h-15v133h-1q-19 -71 -68.5 -106t-111.5 -35q-75 0 -120.5 47t-45.5 142z" />
    <glyph glyph-name="v" unicode="v" horiz-adv-x="440" 
d="M212 0l-192 488h16l184 -470h1l184 470h16l-192 -488h-17z" />
    <glyph glyph-name="w" unicode="w" horiz-adv-x="677" 
d="M175 0l-155 488h15l148 -470h1l147 470h17l146 -470h1l148 470h15l-155 -488h-18l-145 471h-1l-146 -471h-18z" />
    <glyph glyph-name="x" unicode="x" horiz-adv-x="410" 
d="M20 0l176 243l-176 245h19l166 -231l168 231h18l-176 -244l176 -244h-20l-166 230l-166 -230h-19z" />
    <glyph glyph-name="y" unicode="y" horiz-adv-x="440" 
d="M33 -211h14q51 0 78.5 28.5t50.5 87.5l36 95l-192 488h16l184 -470h1l184 470h16l-232 -589q-24 -62 -54 -92.5t-86 -30.5h-16v13z" />
    <glyph glyph-name="z" unicode="z" horiz-adv-x="404" 
d="M28 475v13h344v-10l-320 -465h324v-13h-344v9l321 466h-325z" />
    <glyph glyph-name="braceleft" unicode="{" horiz-adv-x="363" 
d="M168 -83v220q0 54 -24.5 78t-83.5 40v12q59 16 83.5 40t24.5 77v215q0 69 35 107t96 38h41v-14h-41q-54 0 -84.5 -34t-30.5 -96v-218q0 -54 -24.5 -79.5t-77.5 -41.5v-1q54 -16 78 -41.5t24 -79.5v-223q0 -62 30.5 -96t84.5 -34h41v-14h-41q-61 0 -96 38t-35 107z" />
    <glyph glyph-name="bar" unicode="|" horiz-adv-x="256" 
d="M120 -240v1000h16v-1000h-16z" />
    <glyph glyph-name="braceright" unicode="}" horiz-adv-x="363" 
d="M23 -214h41q54 0 84.5 34t30.5 96v223q0 53 24.5 78.5t78.5 42.5v1q-55 16 -79 41.5t-24 79.5v218q0 62 -30.5 96t-84.5 34h-41v14h41q61 0 96 -38t35 -107v-215q0 -53 25 -77t84 -40v-12q-59 -16 -84 -40.5t-25 -77.5v-220q0 -69 -35 -107t-96 -38h-41v14z" />
    <glyph glyph-name="asciitilde" unicode="~" horiz-adv-x="568" 
d="M81 191q0 58 26 89t70 31q28 0 58 -15.5t51.5 -34t50 -34t54.5 -15.5q38 0 59.5 27t21.5 79h15q0 -58 -25.5 -89t-69.5 -31q-28 0 -58.5 15.5t-52 34t-50 34t-54.5 15.5q-38 0 -59.5 -27t-21.5 -79h-15z" />
    <glyph glyph-name="exclamdown" unicode="&#xa1;" horiz-adv-x="194" 
d="M89 402v86h16v-86h-16zM89 -37l1 344h14l1 -344v-163h-16v163z" />
    <glyph glyph-name="cent" unicode="&#xa2;" horiz-adv-x="568" 
d="M288 -8v105q-95 3 -156 72.5t-61 178.5q0 108 61.5 178.5t155.5 73.5v96h16v-96q76 -2 128.5 -45.5t65.5 -115.5h-16q-13 68 -62.5 107.5t-123.5 39.5q-91 0 -150 -67t-59 -171t59 -170.5t150 -66.5q74 0 123.5 39t62.5 107h16q-13 -72 -65.5 -115t-128.5 -45v-105h-16z
" />
    <glyph glyph-name="sterling" unicode="&#xa3;" horiz-adv-x="568" 
d="M76 350v13h98q-18 37 -25.5 54.5t-16 48.5t-8.5 58q0 79 48.5 125.5t131.5 46.5q79 0 125.5 -44.5t49.5 -127.5h-15q-3 75 -45.5 116.5t-114.5 41.5q-77 0 -120.5 -42.5t-43.5 -114.5q0 -26 9.5 -58t16.5 -47.5t27 -56.5h200v-13h-194q41 -86 41 -150q0 -42 -9 -82
q8 -7 40 -36t46 -40t40.5 -23.5t50.5 -12.5q27 0 47 11.5t30.5 24.5t18 39.5t9.5 40t6 42.5h15q-3 -28 -6 -45.5t-12 -44.5t-21.5 -42.5t-35 -27.5t-52.5 -12q-20 0 -39 6t-39.5 20t-32.5 24t-35.5 31.5t-32.5 29.5q-31 -111 -120 -111q-45 0 -69 25t-24 63t27.5 66t70.5 28
q47 0 105 -45q6 35 6 68q0 59 -43 153h-105zM108 5q81 0 107 109q-56 47 -103 47q-36 0 -59 -24t-23 -57q0 -32 20.5 -53.5t57.5 -21.5z" />
    <glyph glyph-name="currency" unicode="&#xa4;" horiz-adv-x="568" 
d="M113 163l-9 9l60 61q-41 48 -41 111q0 65 41 111l-59 60l9 9l59 -60q46 44 111 44q64 0 110 -43l58 59l9 -9l-59 -59q43 -48 43 -112t-43 -112l60 -60l-9 -9l-59 60q-45 -43 -110 -43q-67 0 -111 44zM284 193q63 0 104.5 43.5t41.5 107.5t-41.5 107.5t-104.5 43.5
t-104.5 -43.5t-41.5 -107.5t41.5 -107.5t104.5 -43.5z" />
    <glyph glyph-name="yen" unicode="&#xa5;" horiz-adv-x="568" 
d="M99 279v13h175l-244 396h19l235 -383h1l235 383h18l-245 -396h176v-13h-177v-119h177v-13h-177v-147h-16v147h-177v13h177v119h-177z" />
    <glyph glyph-name="brokenbar" unicode="&#xa6;" horiz-adv-x="256" 
d="M120 336v352h16v-352h-16zM120 -164v352h16v-352h-16z" />
    <glyph glyph-name="section" unicode="&#xa7;" horiz-adv-x="529" 
d="M69 -82h15q3 -64 53.5 -97.5t121.5 -33.5t120.5 38.5t49.5 97.5q0 61 -34 90t-94 47l-92 28q-74 23 -109.5 58.5t-35.5 96.5q0 63 42.5 106t106.5 53q-60 19 -94.5 51.5t-34.5 96.5t54 107t132 43q77 0 131.5 -37.5t58.5 -107.5h-15q-3 64 -53.5 97.5t-121.5 33.5
t-120.5 -38.5t-49.5 -97.5q0 -61 34 -90t94 -47l92 -28q74 -23 109.5 -58.5t35.5 -96.5q0 -64 -42.5 -107t-106.5 -52q60 -19 94.5 -51.5t34.5 -96.5t-54 -107t-132 -43q-77 0 -131.5 37.5t-58.5 107.5zM316 371l-69 21q-69 -1 -118 -41.5t-49 -106.5q0 -57 32 -89t101 -53
l69 -21q69 1 118 41.5t49 106.5q0 57 -32 89t-101 53z" />
    <glyph glyph-name="dieresis" unicode="&#xa8;" horiz-adv-x="524" 
d="M350 608v84h16v-84h-16zM161 608v84h16v-84h-16z" />
    <glyph glyph-name="copyright" unicode="&#xa9;" horiz-adv-x="776" 
d="M43 348q0 149 97 248.5t248 99.5q149 0 247 -100t98 -248q0 -150 -97 -253t-248 -103t-248 103t-97 253zM59 348q0 -144 92 -243t237 -99t237 99t92 243q0 143 -92.5 238.5t-236.5 95.5q-145 0 -237 -95t-92 -239zM226 348q0 73 46 124t116 51q58 0 96 -31t49 -82h-15
q-11 45 -44.5 72t-85.5 27q-64 0 -105 -46.5t-41 -114.5t41 -114.5t105 -46.5q53 0 86 27t44 72h15q-11 -51 -49 -82t-96 -31q-70 0 -116 51t-46 124z" />
    <glyph glyph-name="ordfeminine" unicode="&#xaa;" horiz-adv-x="366" 
d="M147 337q-48 0 -77.5 25.5t-29.5 66.5q0 83 101 96l103 14q23 3 33.5 10.5t10.5 23.5q0 53 -28.5 80.5t-76.5 27.5q-47 0 -79.5 -25.5t-36.5 -74.5h-14q4 55 40.5 84.5t89.5 29.5q54 0 87.5 -31.5t33.5 -90.5v-229h-15v86h-1q-14 -40 -50.5 -66.5t-90.5 -26.5zM288 499
v45q-9 -13 -41 -18l-103 -14q-88 -12 -88 -83q0 -36 24 -57t67 -21q61 0 101 38t40 110z" />
    <glyph glyph-name="guillemotleft" unicode="&#xab;" horiz-adv-x="487" 
d="M262 252l149 204h14l-146 -204l146 -204h-14zM212 48l-149 204l149 204h14l-146 -204l146 -204h-14z" />
    <glyph glyph-name="logicalnot" unicode="&#xac;" horiz-adv-x="568" 
d="M60 246v14h448v-232h-15v218h-433z" />
    <glyph glyph-name="uni00AD" unicode="&#xad;" horiz-adv-x="396" 
d="M60 245v15h276v-15h-276z" />
    <glyph glyph-name="registered" unicode="&#xae;" horiz-adv-x="776" 
d="M43 348q0 149 97 248.5t248 99.5q149 0 247 -100t98 -248q0 -150 -97 -253t-248 -103t-248 103t-97 253zM59 348q0 -144 92 -243t237 -99t237 99t92 243q0 143 -92.5 238.5t-236.5 95.5q-145 0 -237 -95t-92 -239zM265 176v344h154q51 0 79 -26.5t28 -70.5
q0 -42 -25.5 -69.5t-71.5 -30.5l97 -147h-17l-97 147h-131v-147h-16zM418 506h-137v-169h137q44 0 68 24t24 62q0 37 -24 60t-68 23z" />
    <glyph glyph-name="macron" unicode="&#xaf;" horiz-adv-x="524" 
d="M126 642v12h276v-12h-276z" />
    <glyph glyph-name="degree" unicode="&#xb0;" horiz-adv-x="346" 
d="M173 427q-57 0 -95 39.5t-38 95.5t38 95.5t95 39.5t95 -39.5t38 -95.5t-38 -95.5t-95 -39.5zM173 684q-51 0 -84.5 -35.5t-33.5 -86.5t33.5 -86.5t84.5 -35.5t84.5 35.5t33.5 86.5t-33.5 86.5t-84.5 35.5z" />
    <glyph glyph-name="plusminus" unicode="&#xb1;" horiz-adv-x="568" 
d="M60 277v14h216v205h16v-205h216v-14h-216v-202h-16v202h-216zM60 0v14h448v-14h-448z" />
    <glyph glyph-name="acute" unicode="&#xb4;" horiz-adv-x="524" 
d="M253 568l110 164h20l-116 -164h-14z" />
    <glyph glyph-name="mu" unicode="&#xb5;" horiz-adv-x="546" 
d="M439 0v133h-1q-19 -71 -68.5 -106t-111.5 -35q-114 0 -151 94q1 -66 1 -228v-78h-16v708h16v-306q0 -89 41 -132.5t109 -43.5q76 0 128 56.5t52 167.5v258h16v-488h-15z" />
    <glyph glyph-name="paragraph" unicode="&#xb6;" horiz-adv-x="545" 
d="M429 0v688h16v-688h-16zM289 0v299q-103 1 -161.5 55t-58.5 139q0 89 59.5 142t163.5 53h13v-688h-16z" />
    <glyph glyph-name="periodcentered" unicode="&#xb7;" horiz-adv-x="192" 
d="M87 203v98h18v-98h-18z" />
    <glyph glyph-name="cedilla" unicode="&#xb8;" horiz-adv-x="524" 
d="M228 -62l28 62h12l-21 -50q45 -1 68 -22.5t23 -53.5t-22 -56t-69 -24h-45v13h44q41 0 59 20t18 47q0 28 -20 46t-60 18h-15z" />
    <glyph glyph-name="ordmasculine" unicode="&#xba;" horiz-adv-x="392" 
d="M197 339q-70 0 -113 49t-43 128q0 78 45 127.5t111 49.5q69 0 112 -49t43 -128q0 -78 -44.5 -127.5t-110.5 -49.5zM197 353q59 0 99 45.5t40 117.5q0 73 -38.5 118t-100.5 45q-60 0 -100 -45.5t-40 -117.5q0 -73 38.5 -118t101.5 -45z" />
    <glyph glyph-name="guillemotright" unicode="&#xbb;" horiz-adv-x="487" 
d="M261 48l146 204l-146 204h14l149 -204l-149 -204h-14zM62 48l146 204l-146 204h13l150 -204l-150 -204h-13z" />
    <glyph glyph-name="onequarter" unicode="&#xbc;" horiz-adv-x="733" 
d="M416 96v12l203 240h14v-238h65v-14h-65v-96h-16v96h-201zM435 110h182v215zM211 -12l351 712h16l-351 -712h-16zM68 603l-6 12l127 73h11v-330h113v-14h-250v14h121v311z" />
    <glyph glyph-name="onehalf" unicode="&#xbd;" horiz-adv-x="733" 
d="M437 0q2 56 26 87t76 57l43 21q22 11 32.5 17t25.5 17.5t21 25t6 30.5q0 38 -27 59t-76 21t-83 -25.5t-35 -81.5h-15q2 63 40.5 92t92.5 29q55 0 87 -25t32 -69q0 -20 -7 -35t-23 -28t-28 -19.5t-37 -19.5l-42 -21q-48 -24 -69.5 -49.5t-22.5 -68.5h235v-14h-252z
M203 -12l351 712h16l-351 -712h-16zM68 603l-6 12l127 73h11v-330h113v-14h-250v14h121v311z" />
    <glyph glyph-name="threequarters" unicode="&#xbe;" horiz-adv-x="733" 
d="M416 96v12l203 240h14v-238h65v-14h-65v-96h-16v96h-201zM435 110h182v215zM46 441h15q0 -46 31.5 -68.5t83.5 -22.5q53 0 84 21.5t31 61.5q0 39 -32 62t-83 23h-32v13h32q45 0 74 20t29 55q0 36 -30 55.5t-73 19.5t-73.5 -23.5t-30.5 -67.5h-14q0 50 34 77.5t84 27.5
q49 0 84 -24.5t35 -64.5q0 -30 -21 -52t-52 -29v-1q36 -7 60.5 -31t24.5 -61q0 -45 -35.5 -70.5t-95.5 -25.5q-58 0 -94 26.5t-36 78.5zM203 -12l351 712h16l-351 -712h-16z" />
    <glyph glyph-name="questiondown" unicode="&#xbf;" horiz-adv-x="436" 
d="M212 401v86h16v-86h-16zM36 -51q0 38 13 68.5t32.5 49t42.5 39t42.5 39t32.5 49t13 69.5v28h16v-28q0 -48 -18 -83.5t-44 -57.5t-51.5 -43.5t-43.5 -54t-18 -75.5q0 -67 45 -105t114 -38q80 0 127.5 48t47.5 140h16q0 -98 -52.5 -150t-138.5 -52q-76 0 -126 42t-50 115z
" />
    <glyph glyph-name="Agrave" unicode="&#xc0;" horiz-adv-x="597" 
d="M23 0l266 688h19l266 -688h-17l-94 243h-330l-93 -243h-17zM298 671l-159 -414h319l-159 414h-1zM293 768l-116 164h20l110 -164h-14z" />
    <glyph glyph-name="Aacute" unicode="&#xc1;" horiz-adv-x="597" 
d="M23 0l266 688h19l266 -688h-17l-94 243h-330l-93 -243h-17zM298 671l-159 -414h319l-159 414h-1zM289 768l110 164h20l-116 -164h-14z" />
    <glyph glyph-name="Acircumflex" unicode="&#xc2;" horiz-adv-x="597" 
d="M23 0l266 688h19l266 -688h-17l-94 243h-330l-93 -243h-17zM298 671l-159 -414h319l-159 414h-1zM161 768l129 164h16l129 -164h-17l-120 153l-120 -153h-17z" />
    <glyph glyph-name="Atilde" unicode="&#xc3;" horiz-adv-x="597" 
d="M23 0l266 688h19l266 -688h-17l-94 243h-330l-93 -243h-17zM298 671l-159 -414h319l-159 414h-1zM166 810q8 76 64 76q25 0 74 -30t70 -30q43 0 51 64h12q-3 -30 -19 -53t-45 -23q-25 0 -73.5 30t-69.5 30q-44 0 -52 -64h-12z" />
    <glyph glyph-name="Adieresis" unicode="&#xc4;" horiz-adv-x="597" 
d="M23 0l266 688h19l266 -688h-17l-94 243h-330l-93 -243h-17zM298 671l-159 -414h319l-159 414h-1zM386 808v84h16v-84h-16zM197 808v84h16v-84h-16z" />
    <glyph glyph-name="Aring" unicode="&#xc5;" horiz-adv-x="597" 
d="M23 0l266 688h19l266 -688h-17l-94 243h-330l-93 -243h-17zM298 671l-159 -414h319l-159 414h-1zM298 775q-33 0 -59.5 24t-26.5 61q0 38 26.5 61.5t59.5 23.5t59.5 -23.5t26.5 -61.5q0 -37 -26.5 -61t-59.5 -24zM298 788q28 0 50 19.5t22 52.5t-22 52.5t-50 19.5
t-50 -19.5t-22 -52.5t22 -52.5t50 -19.5z" />
    <glyph glyph-name="AE" unicode="&#xc6;" horiz-adv-x="1018" 
d="M8 0l514 688h439v-14h-418v-314h342v-14h-342v-332h426v-14h-442v176h-367l-131 -176h-21zM170 190h357v478z" />
    <glyph glyph-name="Ccedilla" unicode="&#xc7;" horiz-adv-x="698" 
d="M334 -62l24 55q-135 4 -219 105.5t-84 245.5q0 147 87 249.5t227 102.5q109 0 181.5 -56.5t99.5 -153.5h-16q-27 91 -95 143t-170 52q-133 0 -215 -98t-82 -239q0 -140 81.5 -238.5t214.5 -98.5q102 0 169 52t97 143h16q-30 -97 -101 -153t-179 -57l-17 -42
q45 -1 68 -22.5t23 -53.5t-22 -56t-69 -24h-45v13h44q41 0 59 20t18 47q0 28 -20 46t-60 18h-15z" />
    <glyph glyph-name="Egrave" unicode="&#xc8;" horiz-adv-x="590" 
d="M99 0v688h435v-14h-419v-314h343v-14h-343v-332h427v-14h-443zM315 768l-116 164h20l110 -164h-14z" />
    <glyph glyph-name="Eacute" unicode="&#xc9;" horiz-adv-x="590" 
d="M99 0v688h435v-14h-419v-314h343v-14h-343v-332h427v-14h-443zM311 768l110 164h20l-116 -164h-14z" />
    <glyph glyph-name="Ecircumflex" unicode="&#xca;" horiz-adv-x="590" 
d="M99 0v688h435v-14h-419v-314h343v-14h-343v-332h427v-14h-443zM183 768l129 164h16l129 -164h-17l-120 153l-120 -153h-17z" />
    <glyph glyph-name="Edieresis" unicode="&#xcb;" horiz-adv-x="590" 
d="M99 0v688h435v-14h-419v-314h343v-14h-343v-332h427v-14h-443zM408 808v84h16v-84h-16zM219 808v84h16v-84h-16z" />
    <glyph glyph-name="Igrave" unicode="&#xcc;" horiz-adv-x="214" 
d="M99 0v688h16v-688h-16zM102 768l-116 164h20l110 -164h-14z" />
    <glyph glyph-name="Iacute" unicode="&#xcd;" horiz-adv-x="214" 
d="M99 0v688h16v-688h-16zM98 768l110 164h20l-116 -164h-14z" />
    <glyph glyph-name="Icircumflex" unicode="&#xce;" horiz-adv-x="214" 
d="M99 0v688h16v-688h-16zM-30 768l129 164h16l129 -164h-17l-120 153l-120 -153h-17z" />
    <glyph glyph-name="Idieresis" unicode="&#xcf;" horiz-adv-x="214" 
d="M99 0v688h16v-688h-16zM195 808v84h16v-84h-16zM6 808v84h16v-84h-16z" />
    <glyph glyph-name="Eth" unicode="&#xd0;" horiz-adv-x="675" 
d="M4 339v13h95v336h158q177 0 270 -94t93 -250t-93 -250t-270 -94h-158v339h-95zM257 674h-142v-322h167v-13h-167v-325h142q170 0 258.5 90.5t88.5 239.5t-88.5 239.5t-258.5 90.5z" />
    <glyph glyph-name="Ntilde" unicode="&#xd1;" horiz-adv-x="689" 
d="M99 0v688h16l458 -660h1v660h16v-688h-16l-458 660h-1v-660h-16zM212 810q8 76 64 76q25 0 74 -30t70 -30q43 0 51 64h12q-3 -30 -19 -53t-45 -23q-25 0 -73.5 30t-69.5 30q-44 0 -52 -64h-12z" />
    <glyph glyph-name="Ograve" unicode="&#xd2;" horiz-adv-x="738" 
d="M55 344q0 152 88 252t226 100q136 0 225.5 -100.5t89.5 -251.5t-89.5 -251.5t-225.5 -100.5q-138 0 -226 100.5t-88 251.5zM72 344q0 -145 83.5 -241t213.5 -96q129 0 213.5 96.5t84.5 240.5t-84.5 240.5t-213.5 96.5q-130 0 -213.5 -96t-83.5 -241zM364 768l-116 164h20
l110 -164h-14z" />
    <glyph glyph-name="Oacute" unicode="&#xd3;" horiz-adv-x="738" 
d="M55 344q0 152 88 252t226 100q136 0 225.5 -100.5t89.5 -251.5t-89.5 -251.5t-225.5 -100.5q-138 0 -226 100.5t-88 251.5zM72 344q0 -145 83.5 -241t213.5 -96q129 0 213.5 96.5t84.5 240.5t-84.5 240.5t-213.5 96.5q-130 0 -213.5 -96t-83.5 -241zM360 768l110 164h20
l-116 -164h-14z" />
    <glyph glyph-name="Ocircumflex" unicode="&#xd4;" horiz-adv-x="738" 
d="M55 344q0 152 88 252t226 100q136 0 225.5 -100.5t89.5 -251.5t-89.5 -251.5t-225.5 -100.5q-138 0 -226 100.5t-88 251.5zM72 344q0 -145 83.5 -241t213.5 -96q129 0 213.5 96.5t84.5 240.5t-84.5 240.5t-213.5 96.5q-130 0 -213.5 -96t-83.5 -241zM232 768l129 164h16
l129 -164h-17l-120 153l-120 -153h-17z" />
    <glyph glyph-name="Otilde" unicode="&#xd5;" horiz-adv-x="738" 
d="M55 344q0 152 88 252t226 100q136 0 225.5 -100.5t89.5 -251.5t-89.5 -251.5t-225.5 -100.5q-138 0 -226 100.5t-88 251.5zM72 344q0 -145 83.5 -241t213.5 -96q129 0 213.5 96.5t84.5 240.5t-84.5 240.5t-213.5 96.5q-130 0 -213.5 -96t-83.5 -241zM237 810q8 76 64 76
q25 0 74 -30t70 -30q43 0 51 64h12q-3 -30 -19 -53t-45 -23q-25 0 -73.5 30t-69.5 30q-44 0 -52 -64h-12z" />
    <glyph glyph-name="Odieresis" unicode="&#xd6;" horiz-adv-x="738" 
d="M55 344q0 152 88 252t226 100q136 0 225.5 -100.5t89.5 -251.5t-89.5 -251.5t-225.5 -100.5q-138 0 -226 100.5t-88 251.5zM72 344q0 -145 83.5 -241t213.5 -96q129 0 213.5 96.5t84.5 240.5t-84.5 240.5t-213.5 96.5q-130 0 -213.5 -96t-83.5 -241zM457 808v84h16v-84
h-16zM268 808v84h16v-84h-16z" />
    <glyph glyph-name="multiply" unicode="&#xd7;" horiz-adv-x="568" 
d="M99 436l11 10l176 -179l177 179l10 -11l-176 -178l177 -179l-11 -10l-177 178l-177 -179l-10 11l177 179z" />
    <glyph glyph-name="Oslash" unicode="&#xd8;" horiz-adv-x="738" 
d="M67 -12l81 98q-93 101 -93 258q0 152 88 252t226 100q124 0 212 -86l74 90h17l-82 -100q94 -100 94 -256q0 -151 -89.5 -251.5t-225.5 -100.5q-127 0 -212 85l-73 -89h-17zM72 344q0 -150 87 -245l411 498q-82 84 -201 84q-130 0 -213.5 -96t-83.5 -241zM667 344
q0 146 -88 244l-411 -499q80 -82 201 -82q129 0 213.5 96.5t84.5 240.5z" />
    <glyph glyph-name="Ugrave" unicode="&#xd9;" horiz-adv-x="667" 
d="M86 268v420h17v-420q0 -130 62 -196t169 -66q106 0 168 66t62 196v420h17v-420q0 -137 -66.5 -206.5t-180.5 -69.5t-181 69.5t-67 206.5zM328 768l-116 164h20l110 -164h-14z" />
    <glyph glyph-name="Uacute" unicode="&#xda;" horiz-adv-x="667" 
d="M86 268v420h17v-420q0 -130 62 -196t169 -66q106 0 168 66t62 196v420h17v-420q0 -137 -66.5 -206.5t-180.5 -69.5t-181 69.5t-67 206.5zM324 768l110 164h20l-116 -164h-14z" />
    <glyph glyph-name="Ucircumflex" unicode="&#xdb;" horiz-adv-x="667" 
d="M86 268v420h17v-420q0 -130 62 -196t169 -66q106 0 168 66t62 196v420h17v-420q0 -137 -66.5 -206.5t-180.5 -69.5t-181 69.5t-67 206.5zM196 768l129 164h16l129 -164h-17l-120 153l-120 -153h-17z" />
    <glyph glyph-name="Udieresis" unicode="&#xdc;" horiz-adv-x="667" 
d="M86 268v420h17v-420q0 -130 62 -196t169 -66q106 0 168 66t62 196v420h17v-420q0 -137 -66.5 -206.5t-180.5 -69.5t-181 69.5t-67 206.5zM421 808v84h16v-84h-16zM232 808v84h16v-84h-16z" />
    <glyph glyph-name="Yacute" unicode="&#xdd;" horiz-adv-x="558" 
d="M270 0v285l-254 403h18l244 -385h1l245 385h18l-255 -401v-287h-17zM270 768l110 164h20l-116 -164h-14z" />
    <glyph glyph-name="Thorn" unicode="&#xde;" horiz-adv-x="600" 
d="M99 0v688h16v-123h226q99 0 155.5 -56.5t56.5 -148.5q0 -93 -56.5 -150t-155.5 -57h-226v-153h-16zM342 552h-227v-385h227q91 0 142.5 53t51.5 140q0 86 -51.5 139t-142.5 53z" />
    <glyph glyph-name="germandbls" unicode="&#xdf;" horiz-adv-x="503" 
d="M69 0v508q0 118 50 175t133 57q73 0 112.5 -35.5t39.5 -94.5q0 -30 -12 -54t-29.5 -40.5t-35 -31.5t-29.5 -34t-12 -42q0 -29 27.5 -56.5t60 -48t60 -58.5t27.5 -87q0 -77 -48.5 -117.5t-119.5 -40.5h-66v14h66q62 0 107 36.5t45 106.5q0 46 -27.5 82.5t-60 56.5t-60 49
t-27.5 62q0 25 12.5 45.5t30 36t34.5 31.5t29.5 39t12.5 51q0 53 -35.5 84.5t-101.5 31.5q-77 0 -122 -53t-45 -165v-508h-16z" />
    <glyph glyph-name="agrave" unicode="&#xe0;" horiz-adv-x="499" 
d="M55 120q0 113 141 134l131 21q35 6 52.5 16.5t17.5 32.5q0 79 -39.5 118.5t-109.5 39.5q-67 0 -111 -37t-50 -109h-15q5 77 53.5 118.5t122.5 41.5q76 0 120.5 -44t44.5 -128v-324h-15v127h-1q-18 -63 -67.5 -99t-125.5 -36q-71 0 -110 35t-39 93zM204 6q83 0 138 51.5
t55 155.5v79q-16 -23 -68 -31l-130 -20q-128 -20 -128 -120q0 -52 35.5 -83.5t97.5 -31.5zM251 568l-116 164h20l110 -164h-14z" />
    <glyph glyph-name="aacute" unicode="&#xe1;" horiz-adv-x="499" 
d="M55 120q0 113 141 134l131 21q35 6 52.5 16.5t17.5 32.5q0 79 -39.5 118.5t-109.5 39.5q-67 0 -111 -37t-50 -109h-15q5 77 53.5 118.5t122.5 41.5q76 0 120.5 -44t44.5 -128v-324h-15v127h-1q-18 -63 -67.5 -99t-125.5 -36q-71 0 -110 35t-39 93zM204 6q83 0 138 51.5
t55 155.5v79q-16 -23 -68 -31l-130 -20q-128 -20 -128 -120q0 -52 35.5 -83.5t97.5 -31.5zM231 568l110 164h20l-116 -164h-14z" />
    <glyph glyph-name="acircumflex" unicode="&#xe2;" horiz-adv-x="499" 
d="M55 120q0 113 141 134l131 21q35 6 52.5 16.5t17.5 32.5q0 79 -39.5 118.5t-109.5 39.5q-67 0 -111 -37t-50 -109h-15q5 77 53.5 118.5t122.5 41.5q76 0 120.5 -44t44.5 -128v-324h-15v127h-1q-18 -63 -67.5 -99t-125.5 -36q-71 0 -110 35t-39 93zM204 6q83 0 138 51.5
t55 155.5v79q-16 -23 -68 -31l-130 -20q-128 -20 -128 -120q0 -52 35.5 -83.5t97.5 -31.5zM111 568l129 164h16l129 -164h-17l-120 153l-120 -153h-17z" />
    <glyph glyph-name="atilde" unicode="&#xe3;" horiz-adv-x="499" 
d="M55 120q0 113 141 134l131 21q35 6 52.5 16.5t17.5 32.5q0 79 -39.5 118.5t-109.5 39.5q-67 0 -111 -37t-50 -109h-15q5 77 53.5 118.5t122.5 41.5q76 0 120.5 -44t44.5 -128v-324h-15v127h-1q-18 -63 -67.5 -99t-125.5 -36q-71 0 -110 35t-39 93zM204 6q83 0 138 51.5
t55 155.5v79q-16 -23 -68 -31l-130 -20q-128 -20 -128 -120q0 -52 35.5 -83.5t97.5 -31.5zM116 610q8 76 64 76q25 0 74 -30t70 -30q43 0 51 64h12q-3 -30 -19 -53t-45 -23q-25 0 -73.5 30t-69.5 30q-44 0 -52 -64h-12z" />
    <glyph glyph-name="adieresis" unicode="&#xe4;" horiz-adv-x="499" 
d="M55 120q0 113 141 134l131 21q35 6 52.5 16.5t17.5 32.5q0 79 -39.5 118.5t-109.5 39.5q-67 0 -111 -37t-50 -109h-15q5 77 53.5 118.5t122.5 41.5q76 0 120.5 -44t44.5 -128v-324h-15v127h-1q-18 -63 -67.5 -99t-125.5 -36q-71 0 -110 35t-39 93zM204 6q83 0 138 51.5
t55 155.5v79q-16 -23 -68 -31l-130 -20q-128 -20 -128 -120q0 -52 35.5 -83.5t97.5 -31.5zM336 608v84h16v-84h-16zM147 608v84h16v-84h-16z" />
    <glyph glyph-name="aring" unicode="&#xe5;" horiz-adv-x="499" 
d="M55 120q0 113 141 134l131 21q35 6 52.5 16.5t17.5 32.5q0 79 -39.5 118.5t-109.5 39.5q-67 0 -111 -37t-50 -109h-15q5 77 53.5 118.5t122.5 41.5q76 0 120.5 -44t44.5 -128v-324h-15v127h-1q-18 -63 -67.5 -99t-125.5 -36q-71 0 -110 35t-39 93zM204 6q83 0 138 51.5
t55 155.5v79q-16 -23 -68 -31l-130 -20q-128 -20 -128 -120q0 -52 35.5 -83.5t97.5 -31.5zM248 575q-33 0 -59.5 24t-26.5 61q0 38 26.5 61.5t59.5 23.5t59.5 -23.5t26.5 -61.5q0 -37 -26.5 -61t-59.5 -24zM248 588q28 0 50 19.5t22 52.5t-22 52.5t-50 19.5t-50 -19.5
t-22 -52.5t22 -52.5t50 -19.5z" />
    <glyph glyph-name="ae" unicode="&#xe6;" horiz-adv-x="844" 
d="M72 336q5 77 53.5 118.5t122.5 41.5q71 0 115 -38.5t49 -112.5q23 69 73 110t114 41q81 0 135.5 -63t54.5 -169v-8h-376v-23q2 -102 53.5 -164.5t136.5 -62.5q65 0 111.5 39t54.5 103h15q-9 -70 -60 -113t-121 -43q-75 0 -127 44.5t-70 122.5q-16 -80 -70.5 -123.5
t-132.5 -43.5q-70 0 -109 35t-39 93q0 111 141 134l131 21q36 6 53 16.5t17 32.5q0 78 -39.5 118t-109.5 40q-67 0 -111 -37t-50 -109h-15zM397 221v71q-16 -23 -68 -31l-130 -20q-128 -20 -128 -120q0 -52 35.5 -83.5t97.5 -31.5q82 0 137.5 55t55.5 160zM599 482
q-74 0 -126 -59t-59 -153h359q-1 97 -51 154.5t-123 57.5z" />
    <glyph glyph-name="ccedilla" unicode="&#xe7;" horiz-adv-x="498" 
d="M226 -62l24 54q-89 5 -144 74t-55 178q0 111 60.5 181.5t149.5 70.5q70 0 121 -43.5t66 -117.5h-16q-16 68 -62 107.5t-109 39.5q-81 0 -137.5 -67.5t-56.5 -170.5q0 -105 54.5 -171.5t139.5 -66.5q63 0 109 39.5t62 107.5h16q-15 -74 -65.5 -117t-120.5 -44l-17 -42
q45 -1 68 -22.5t23 -53.5t-22 -56t-69 -24h-45v13h44q41 0 59 20t18 47q0 28 -20 46t-60 18h-15z" />
    <glyph glyph-name="egrave" unicode="&#xe8;" horiz-adv-x="506" 
d="M51 244q0 110 59.5 181t147.5 71q84 0 139 -62.5t55 -169.5v-8h-385v-12q0 -107 52.5 -172.5t142.5 -65.5q67 0 114 38.5t56 103.5h15q-9 -70 -60.5 -113t-124.5 -43q-98 0 -154.5 69t-56.5 183zM258 482q-76 0 -129.5 -59t-60.5 -153h368q-1 97 -52 154.5t-126 57.5z
M253 568l-116 164h20l110 -164h-14z" />
    <glyph glyph-name="eacute" unicode="&#xe9;" horiz-adv-x="506" 
d="M51 244q0 110 59.5 181t147.5 71q84 0 139 -62.5t55 -169.5v-8h-385v-12q0 -107 52.5 -172.5t142.5 -65.5q67 0 114 38.5t56 103.5h15q-9 -70 -60.5 -113t-124.5 -43q-98 0 -154.5 69t-56.5 183zM258 482q-76 0 -129.5 -59t-60.5 -153h368q-1 97 -52 154.5t-126 57.5z
M249 568l110 164h20l-116 -164h-14z" />
    <glyph glyph-name="ecircumflex" unicode="&#xea;" horiz-adv-x="506" 
d="M51 244q0 110 59.5 181t147.5 71q84 0 139 -62.5t55 -169.5v-8h-385v-12q0 -107 52.5 -172.5t142.5 -65.5q67 0 114 38.5t56 103.5h15q-9 -70 -60.5 -113t-124.5 -43q-98 0 -154.5 69t-56.5 183zM258 482q-76 0 -129.5 -59t-60.5 -153h368q-1 97 -52 154.5t-126 57.5z
M121 568l129 164h16l129 -164h-17l-120 153l-120 -153h-17z" />
    <glyph glyph-name="edieresis" unicode="&#xeb;" horiz-adv-x="506" 
d="M51 244q0 110 59.5 181t147.5 71q84 0 139 -62.5t55 -169.5v-8h-385v-12q0 -107 52.5 -172.5t142.5 -65.5q67 0 114 38.5t56 103.5h15q-9 -70 -60.5 -113t-124.5 -43q-98 0 -154.5 69t-56.5 183zM258 482q-76 0 -129.5 -59t-60.5 -153h368q-1 97 -52 154.5t-126 57.5z
M346 608v84h16v-84h-16zM157 608v84h16v-84h-16z" />
    <glyph glyph-name="igrave" unicode="&#xec;" horiz-adv-x="197" 
d="M90 0v488h16v-488h-16zM93 568l-116 164h20l110 -164h-14z" />
    <glyph glyph-name="iacute" unicode="&#xed;" horiz-adv-x="197" 
d="M90 0v488h16v-488h-16zM89 568l110 164h20l-116 -164h-14z" />
    <glyph glyph-name="icircumflex" unicode="&#xee;" horiz-adv-x="197" 
d="M90 0v488h16v-488h-16zM-39 568l129 164h16l129 -164h-17l-120 153l-120 -153h-17z" />
    <glyph glyph-name="idieresis" unicode="&#xef;" horiz-adv-x="197" 
d="M90 0v488h16v-488h-16zM186 608v84h16v-84h-16zM-3 608v84h16v-84h-16z" />
    <glyph glyph-name="eth" unicode="&#xf0;" horiz-adv-x="518" 
d="M168 567l-7 10l120 79q-64 46 -153 74l2 14q97 -30 165 -80l101 67l6 -10l-98 -64q155 -122 156 -385v-40q0 -106 -60.5 -173t-151.5 -67q-94 0 -152.5 66.5t-58.5 169.5q0 102 61 169t150 67q67 0 117.5 -36t74.5 -97h1q-18 214 -150 317zM53 228q0 -96 54.5 -159
t140.5 -63q83 0 139.5 62.5t56.5 159.5q0 98 -55 160t-141 62q-82 0 -138.5 -63.5t-56.5 -158.5z" />
    <glyph glyph-name="ntilde" unicode="&#xf1;" horiz-adv-x="542" 
d="M90 0v488h15v-133h1q19 71 69 106t113 35q77 0 122.5 -46.5t45.5 -142.5v-307h-16v306q0 89 -41 132.5t-111 43.5q-78 0 -130 -56.5t-52 -166.5v-259h-16zM136 610q8 76 64 76q25 0 74 -30t70 -30q43 0 51 64h12q-3 -30 -19 -53t-45 -23q-25 0 -73.5 30t-69.5 30
q-44 0 -52 -64h-12z" />
    <glyph glyph-name="ograve" unicode="&#xf2;" horiz-adv-x="524" 
d="M51 244q0 110 61.5 181t149.5 71q93 0 152 -70t59 -182q0 -110 -61.5 -181t-149.5 -71q-93 0 -152 70t-59 182zM67 244q0 -104 55.5 -171t139.5 -67q81 0 138 67.5t57 170.5q0 105 -55 171.5t-140 66.5q-81 0 -138 -67.5t-57 -170.5zM257 568l-116 164h20l110 -164h-14z
" />
    <glyph glyph-name="oacute" unicode="&#xf3;" horiz-adv-x="524" 
d="M51 244q0 110 61.5 181t149.5 71q93 0 152 -70t59 -182q0 -110 -61.5 -181t-149.5 -71q-93 0 -152 70t-59 182zM67 244q0 -104 55.5 -171t139.5 -67q81 0 138 67.5t57 170.5q0 105 -55 171.5t-140 66.5q-81 0 -138 -67.5t-57 -170.5zM253 568l110 164h20l-116 -164h-14z
" />
    <glyph glyph-name="ocircumflex" unicode="&#xf4;" horiz-adv-x="524" 
d="M51 244q0 110 61.5 181t149.5 71q93 0 152 -70t59 -182q0 -110 -61.5 -181t-149.5 -71q-93 0 -152 70t-59 182zM67 244q0 -104 55.5 -171t139.5 -67q81 0 138 67.5t57 170.5q0 105 -55 171.5t-140 66.5q-81 0 -138 -67.5t-57 -170.5zM125 568l129 164h16l129 -164h-17
l-120 153l-120 -153h-17z" />
    <glyph glyph-name="otilde" unicode="&#xf5;" horiz-adv-x="524" 
d="M51 244q0 110 61.5 181t149.5 71q93 0 152 -70t59 -182q0 -110 -61.5 -181t-149.5 -71q-93 0 -152 70t-59 182zM67 244q0 -104 55.5 -171t139.5 -67q81 0 138 67.5t57 170.5q0 105 -55 171.5t-140 66.5q-81 0 -138 -67.5t-57 -170.5zM130 610q8 76 64 76q25 0 74 -30
t70 -30q43 0 51 64h12q-3 -30 -19 -53t-45 -23q-25 0 -73.5 30t-69.5 30q-44 0 -52 -64h-12z" />
    <glyph glyph-name="odieresis" unicode="&#xf6;" horiz-adv-x="524" 
d="M51 244q0 110 61.5 181t149.5 71q93 0 152 -70t59 -182q0 -110 -61.5 -181t-149.5 -71q-93 0 -152 70t-59 182zM67 244q0 -104 55.5 -171t139.5 -67q81 0 138 67.5t57 170.5q0 105 -55 171.5t-140 66.5q-81 0 -138 -67.5t-57 -170.5zM350 608v84h16v-84h-16zM161 608v84
h16v-84h-16z" />
    <glyph glyph-name="divide" unicode="&#xf7;" horiz-adv-x="568" 
d="M276 380v93h16v-93h-16zM60 246v14h448v-14h-448zM276 35v93h16v-93h-16z" />
    <glyph glyph-name="oslash" unicode="&#xf8;" horiz-adv-x="524" 
d="M54 -12l57 73q-60 69 -60 183q0 110 61.5 181t149.5 71q87 0 143 -61l51 65h15l-58 -74q60 -69 60 -182q0 -110 -61.5 -181t-149.5 -71q-86 0 -143 59l-49 -63h-16zM67 244q0 -103 54 -170l274 348q-54 60 -133 60q-81 0 -138 -67.5t-57 -170.5zM457 244q0 104 -54 169
l-273 -349q53 -58 132 -58q81 0 138 67.5t57 170.5z" />
    <glyph glyph-name="ugrave" unicode="&#xf9;" horiz-adv-x="534" 
d="M82 181v307h16v-306q0 -89 41 -132.5t109 -43.5q77 0 128.5 57t51.5 165v260h16v-488h-15v133h-1q-19 -71 -68.5 -106t-111.5 -35q-75 0 -120.5 47t-45.5 142zM262 568l-116 164h20l110 -164h-14z" />
    <glyph glyph-name="uacute" unicode="&#xfa;" horiz-adv-x="534" 
d="M82 181v307h16v-306q0 -89 41 -132.5t109 -43.5q77 0 128.5 57t51.5 165v260h16v-488h-15v133h-1q-19 -71 -68.5 -106t-111.5 -35q-75 0 -120.5 47t-45.5 142zM258 568l110 164h20l-116 -164h-14z" />
    <glyph glyph-name="ucircumflex" unicode="&#xfb;" horiz-adv-x="534" 
d="M82 181v307h16v-306q0 -89 41 -132.5t109 -43.5q77 0 128.5 57t51.5 165v260h16v-488h-15v133h-1q-19 -71 -68.5 -106t-111.5 -35q-75 0 -120.5 47t-45.5 142zM130 568l129 164h16l129 -164h-17l-120 153l-120 -153h-17z" />
    <glyph glyph-name="udieresis" unicode="&#xfc;" horiz-adv-x="534" 
d="M82 181v307h16v-306q0 -89 41 -132.5t109 -43.5q77 0 128.5 57t51.5 165v260h16v-488h-15v133h-1q-19 -71 -68.5 -106t-111.5 -35q-75 0 -120.5 47t-45.5 142zM355 608v84h16v-84h-16zM166 608v84h16v-84h-16z" />
    <glyph glyph-name="yacute" unicode="&#xfd;" horiz-adv-x="440" 
d="M33 -211h14q51 0 78.5 28.5t50.5 87.5l36 95l-192 488h16l184 -470h1l184 470h16l-232 -589q-24 -62 -54 -92.5t-86 -30.5h-16v13zM211 568l110 164h20l-116 -164h-14z" />
    <glyph glyph-name="thorn" unicode="&#xfe;" horiz-adv-x="555" 
d="M504 248q0 -112 -59.5 -184t-146.5 -72q-68 0 -120 42t-72 112h-1l1 -227v-139h-16v952h16v-163q0 -1 -0.5 -112.5t-0.5 -114.5h1q20 70 72 112t120 42q89 0 147.5 -68.5t58.5 -179.5zM488 248q0 105 -54.5 169.5t-135.5 64.5q-83 0 -137.5 -65.5t-54.5 -172.5
t54.5 -172.5t137.5 -65.5q81 0 135.5 68t54.5 174z" />
    <glyph glyph-name="ydieresis" unicode="&#xff;" horiz-adv-x="440" 
d="M33 -211h14q51 0 78.5 28.5t50.5 87.5l36 95l-192 488h16l184 -470h1l184 470h16l-232 -589q-24 -62 -54 -92.5t-86 -30.5h-16v13zM308 608v84h16v-84h-16zM119 608v84h16v-84h-16z" />
    <glyph glyph-name="Amacron" unicode="&#x100;" horiz-adv-x="597" 
d="M23 0l266 688h19l266 -688h-17l-94 243h-330l-93 -243h-17zM298 671l-159 -414h319l-159 414h-1zM162 842v12h276v-12h-276z" />
    <glyph glyph-name="amacron" unicode="&#x101;" horiz-adv-x="499" 
d="M55 120q0 113 141 134l131 21q35 6 52.5 16.5t17.5 32.5q0 79 -39.5 118.5t-109.5 39.5q-67 0 -111 -37t-50 -109h-15q5 77 53.5 118.5t122.5 41.5q76 0 120.5 -44t44.5 -128v-324h-15v127h-1q-18 -63 -67.5 -99t-125.5 -36q-71 0 -110 35t-39 93zM204 6q83 0 138 51.5
t55 155.5v79q-16 -23 -68 -31l-130 -20q-128 -20 -128 -120q0 -52 35.5 -83.5t97.5 -31.5zM112 642v12h276v-12h-276z" />
    <glyph glyph-name="Abreve" unicode="&#x102;" horiz-adv-x="597" 
d="M23 0l266 688h19l266 -688h-17l-94 243h-330l-93 -243h-17zM298 671l-159 -414h319l-159 414h-1zM298 794q-50 0 -84 29t-42 90h13q16 -106 113 -106t113 106h13q-8 -61 -42 -90t-84 -29z" />
    <glyph glyph-name="abreve" unicode="&#x103;" horiz-adv-x="499" 
d="M55 120q0 113 141 134l131 21q35 6 52.5 16.5t17.5 32.5q0 79 -39.5 118.5t-109.5 39.5q-67 0 -111 -37t-50 -109h-15q5 77 53.5 118.5t122.5 41.5q76 0 120.5 -44t44.5 -128v-324h-15v127h-1q-18 -63 -67.5 -99t-125.5 -36q-71 0 -110 35t-39 93zM204 6q83 0 138 51.5
t55 155.5v79q-16 -23 -68 -31l-130 -20q-128 -20 -128 -120q0 -52 35.5 -83.5t97.5 -31.5zM248 594q-50 0 -84 29t-42 90h13q16 -106 113 -106t113 106h13q-8 -61 -42 -90t-84 -29z" />
    <glyph glyph-name="Aogonek" unicode="&#x104;" horiz-adv-x="597" 
d="M494 -128q0 57 62 128h1l-94 243h-330l-93 -243h-17l266 688h19l266 -688h-2q-63 -73 -63 -126q0 -66 73 -66h37v-14h-38q-43 0 -65 21.5t-22 56.5zM298 671l-159 -414h319l-159 414h-1z" />
    <glyph glyph-name="aogonek" unicode="&#x105;" horiz-adv-x="499" 
d="M335 -128q0 57 62 128h1v127h-1q-18 -63 -67.5 -99t-125.5 -36q-71 0 -110 35t-39 93q0 113 141 134l131 21q35 6 52.5 16.5t17.5 32.5q0 79 -39.5 118.5t-109.5 39.5q-67 0 -111 -37t-50 -109h-15q5 77 53.5 118.5t122.5 41.5q76 0 120.5 -44t44.5 -128v-324
q-63 -73 -63 -126q0 -66 73 -66h37v-14h-38q-43 0 -65 21.5t-22 56.5zM204 6q83 0 138 51.5t55 155.5v79q-16 -23 -68 -31l-130 -20q-128 -20 -128 -120q0 -52 35.5 -83.5t97.5 -31.5z" />
    <glyph glyph-name="Cacute" unicode="&#x106;" horiz-adv-x="698" 
d="M55 344q0 147 87 249.5t227 102.5q109 0 181.5 -56.5t99.5 -153.5h-16q-27 91 -95 143t-170 52q-133 0 -215 -98t-82 -239q0 -140 81.5 -238.5t214.5 -98.5q102 0 169 52t97 143h16q-30 -98 -101.5 -154t-180.5 -56q-139 0 -226 102.5t-87 249.5zM359 768l110 164h20
l-116 -164h-14z" />
    <glyph glyph-name="cacute" unicode="&#x107;" horiz-adv-x="498" 
d="M51 244q0 111 60.5 181.5t149.5 70.5q70 0 121 -43.5t66 -117.5h-16q-16 68 -62 107.5t-109 39.5q-81 0 -137.5 -67.5t-56.5 -170.5q0 -105 54.5 -171.5t139.5 -66.5q63 0 109 39.5t62 107.5h16q-15 -74 -66 -117.5t-121 -43.5q-93 0 -151.5 70t-58.5 182zM251 568
l110 164h20l-116 -164h-14z" />
    <glyph glyph-name="Ccircumflex" unicode="&#x108;" horiz-adv-x="698" 
d="M55 344q0 147 87 249.5t227 102.5q109 0 181.5 -56.5t99.5 -153.5h-16q-27 91 -95 143t-170 52q-133 0 -215 -98t-82 -239q0 -140 81.5 -238.5t214.5 -98.5q102 0 169 52t97 143h16q-30 -98 -101.5 -154t-180.5 -56q-139 0 -226 102.5t-87 249.5zM231 768l129 164h16
l129 -164h-17l-120 153l-120 -153h-17z" />
    <glyph glyph-name="ccircumflex" unicode="&#x109;" horiz-adv-x="498" 
d="M51 244q0 111 60.5 181.5t149.5 70.5q70 0 121 -43.5t66 -117.5h-16q-16 68 -62 107.5t-109 39.5q-81 0 -137.5 -67.5t-56.5 -170.5q0 -105 54.5 -171.5t139.5 -66.5q63 0 109 39.5t62 107.5h16q-15 -74 -66 -117.5t-121 -43.5q-93 0 -151.5 70t-58.5 182zM123 568
l129 164h16l129 -164h-17l-120 153l-120 -153h-17z" />
    <glyph glyph-name="Cdotaccent" unicode="&#x10a;" horiz-adv-x="698" 
d="M55 344q0 147 87 249.5t227 102.5q109 0 181.5 -56.5t99.5 -153.5h-16q-27 91 -95 143t-170 52q-133 0 -215 -98t-82 -239q0 -140 81.5 -238.5t214.5 -98.5q102 0 169 52t97 143h16q-30 -98 -101.5 -154t-180.5 -56q-139 0 -226 102.5t-87 249.5zM360 808v84h16v-84h-16z
" />
    <glyph glyph-name="cdotaccent" unicode="&#x10b;" horiz-adv-x="498" 
d="M51 244q0 111 60.5 181.5t149.5 70.5q70 0 121 -43.5t66 -117.5h-16q-16 68 -62 107.5t-109 39.5q-81 0 -137.5 -67.5t-56.5 -170.5q0 -105 54.5 -171.5t139.5 -66.5q63 0 109 39.5t62 107.5h16q-15 -74 -66 -117.5t-121 -43.5q-93 0 -151.5 70t-58.5 182zM252 608v84h16
v-84h-16z" />
    <glyph glyph-name="Ccaron" unicode="&#x10c;" horiz-adv-x="698" 
d="M55 344q0 147 87 249.5t227 102.5q109 0 181.5 -56.5t99.5 -153.5h-16q-27 91 -95 143t-170 52q-133 0 -215 -98t-82 -239q0 -140 81.5 -238.5t214.5 -98.5q102 0 169 52t97 143h16q-30 -98 -101.5 -154t-180.5 -56q-139 0 -226 102.5t-87 249.5zM360 768l-129 164h17
l120 -153l120 153h17l-129 -164h-16z" />
    <glyph glyph-name="ccaron" unicode="&#x10d;" horiz-adv-x="498" 
d="M51 244q0 111 60.5 181.5t149.5 70.5q70 0 121 -43.5t66 -117.5h-16q-16 68 -62 107.5t-109 39.5q-81 0 -137.5 -67.5t-56.5 -170.5q0 -105 54.5 -171.5t139.5 -66.5q63 0 109 39.5t62 107.5h16q-15 -74 -66 -117.5t-121 -43.5q-93 0 -151.5 70t-58.5 182zM252 568
l-129 164h17l120 -153l120 153h17l-129 -164h-16z" />
    <glyph glyph-name="Dcaron" unicode="&#x10e;" horiz-adv-x="675" 
d="M99 0v688h158q177 0 270 -94t93 -250t-93 -250t-270 -94h-158zM257 674h-142v-660h142q169 0 258 90.5t89 239.5t-89 239.5t-258 90.5zM296 768l-129 164h17l120 -153l120 153h17l-129 -164h-16z" />
    <glyph glyph-name="dcaron" unicode="&#x10f;" horiz-adv-x="555" 
d="M51 240q0 112 59.5 184t147.5 72q68 0 119.5 -42t71.5 -112h1q0 4 -0.5 114t-0.5 112v164h16v-732h-15v146h-1q-20 -70 -72 -112t-120 -42q-89 0 -147.5 68.5t-58.5 179.5zM67 240q0 -105 54.5 -169.5t135.5 -64.5t135 62t57 165v11q0 107 -54 172.5t-137 65.5
q-82 0 -136.5 -68t-54.5 -174zM545 559l29 113h-4v60h16v-63l-32 -110h-9z" />
    <glyph glyph-name="Dcroat" unicode="&#x110;" horiz-adv-x="675" 
d="M4 339v13h95v336h158q177 0 270 -94t93 -250t-93 -250t-270 -94h-158v339h-95zM257 674h-142v-322h167v-13h-167v-325h142q170 0 258.5 90.5t88.5 239.5t-88.5 239.5t-258.5 90.5z" />
    <glyph glyph-name="dcroat" unicode="&#x111;" horiz-adv-x="555" 
d="M265 617v13h184v102h16v-102h90v-13h-90v-617h-15v146h-1q-20 -70 -72 -112t-120 -42q-89 0 -147.5 68.5t-58.5 179.5q0 112 59.5 184t147.5 72q68 0 119.5 -42t71.5 -112h1q0 4 -0.5 114t-0.5 112v49h-184zM67 240q0 -105 54.5 -169.5t135.5 -64.5q83 0 137.5 65.5
t54.5 172.5v11q-3 103 -57 165t-134 62q-82 0 -136.5 -68t-54.5 -174z" />
    <glyph glyph-name="Emacron" unicode="&#x112;" horiz-adv-x="590" 
d="M99 0v688h435v-14h-419v-314h343v-14h-343v-332h427v-14h-443zM184 842v12h276v-12h-276z" />
    <glyph glyph-name="emacron" unicode="&#x113;" horiz-adv-x="506" 
d="M51 244q0 110 59.5 181t147.5 71q84 0 139 -62.5t55 -169.5v-8h-385v-12q0 -107 52.5 -172.5t142.5 -65.5q67 0 114 38.5t56 103.5h15q-9 -70 -60.5 -113t-124.5 -43q-98 0 -154.5 69t-56.5 183zM258 482q-76 0 -129.5 -59t-60.5 -153h368q-1 97 -52 154.5t-126 57.5z
M122 642v12h276v-12h-276z" />
    <glyph glyph-name="Ebreve" unicode="&#x114;" horiz-adv-x="590" 
d="M99 0v688h435v-14h-419v-314h343v-14h-343v-332h427v-14h-443zM320 794q-50 0 -84 29t-42 90h13q16 -106 113 -106t113 106h13q-8 -61 -42 -90t-84 -29z" />
    <glyph glyph-name="ebreve" unicode="&#x115;" horiz-adv-x="506" 
d="M51 244q0 110 59.5 181t147.5 71q84 0 139 -62.5t55 -169.5v-8h-385v-12q0 -107 52.5 -172.5t142.5 -65.5q67 0 114 38.5t56 103.5h15q-9 -70 -60.5 -113t-124.5 -43q-98 0 -154.5 69t-56.5 183zM258 482q-76 0 -129.5 -59t-60.5 -153h368q-1 97 -52 154.5t-126 57.5z
M258 594q-50 0 -84 29t-42 90h13q16 -106 113 -106t113 106h13q-8 -61 -42 -90t-84 -29z" />
    <glyph glyph-name="Edotaccent" unicode="&#x116;" horiz-adv-x="590" 
d="M99 0v688h435v-14h-419v-314h343v-14h-343v-332h427v-14h-443zM312 808v84h16v-84h-16z" />
    <glyph glyph-name="edotaccent" unicode="&#x117;" horiz-adv-x="506" 
d="M51 244q0 110 59.5 181t147.5 71q84 0 139 -62.5t55 -169.5v-8h-385v-12q0 -107 52.5 -172.5t142.5 -65.5q67 0 114 38.5t56 103.5h15q-9 -70 -60.5 -113t-124.5 -43q-98 0 -154.5 69t-56.5 183zM258 482q-76 0 -129.5 -59t-60.5 -153h368q-1 97 -52 154.5t-126 57.5z
M250 608v84h16v-84h-16z" />
    <glyph glyph-name="Eogonek" unicode="&#x118;" horiz-adv-x="590" 
d="M99 0v688h435v-14h-419v-314h343v-14h-343v-332h427v-14h2q-63 -73 -63 -126q0 -66 73 -66h37v-14h-38q-43 0 -65 21.5t-22 56.5q0 57 62 128h-429z" />
    <glyph glyph-name="eogonek" unicode="&#x119;" horiz-adv-x="506" 
d="M237 -132q0 55 101 138q-36 -14 -76 -14q-98 0 -154.5 69t-56.5 183q0 110 59.5 181t147.5 71q84 0 139 -62.5t55 -169.5v-8h-385v-12q0 -107 52.5 -172.5t142.5 -65.5q67 0 114 38.5t56 103.5h15q-9 -68 -59 -112q-8 -7 -32 -27.5t-38 -34t-31.5 -33t-26.5 -37.5t-9 -35
q0 -62 74 -62h37v-13h-38q-87 0 -87 74zM258 482q-76 0 -129.5 -59t-60.5 -153h368q-1 97 -52 154.5t-126 57.5z" />
    <glyph glyph-name="Ecaron" unicode="&#x11a;" horiz-adv-x="590" 
d="M99 0v688h435v-14h-419v-314h343v-14h-343v-332h427v-14h-443zM312 768l-129 164h17l120 -153l120 153h17l-129 -164h-16z" />
    <glyph glyph-name="ecaron" unicode="&#x11b;" horiz-adv-x="506" 
d="M51 244q0 110 59.5 181t147.5 71q84 0 139 -62.5t55 -169.5v-8h-385v-12q0 -107 52.5 -172.5t142.5 -65.5q67 0 114 38.5t56 103.5h15q-9 -70 -60.5 -113t-124.5 -43q-98 0 -154.5 69t-56.5 183zM258 482q-76 0 -129.5 -59t-60.5 -153h368q-1 97 -52 154.5t-126 57.5z
M250 568l-129 164h17l120 -153l120 153h17l-129 -164h-16z" />
    <glyph glyph-name="Gcircumflex" unicode="&#x11c;" horiz-adv-x="742" 
d="M641 0v166h-1q-28 -87 -101 -130.5t-170 -43.5q-138 0 -226 103t-88 249q0 153 90.5 252.5t231.5 99.5q113 0 184 -57.5t91 -147.5h-17q-18 82 -85.5 136t-172.5 54q-135 0 -220 -94.5t-85 -242.5q0 -140 83 -238.5t214 -98.5q53 0 100.5 14.5t86.5 44t61.5 80.5
t22.5 118v71h-267v15h282v-350h-14zM239 768l129 164h16l129 -164h-17l-120 153l-120 -153h-17z" />
    <glyph glyph-name="gcircumflex" unicode="&#x11d;" horiz-adv-x="555" 
d="M63 -60h15q0 -71 49 -112.5t130 -41.5q192 0 192 227l1 133h-1q-20 -70 -72 -112t-120 -42q-89 0 -147.5 68.5t-58.5 179.5q0 112 59.5 184t147.5 72q68 0 119.5 -42t71.5 -112h1v146h15v-475q0 -240 -208 -240q-88 0 -141 44.5t-53 122.5zM67 240q0 -105 54.5 -169.5
t135.5 -64.5q83 0 137.5 65.5t54.5 172.5t-54 172.5t-137 65.5q-82 0 -136.5 -68t-54.5 -174zM123 568l129 164h16l129 -164h-17l-120 153l-120 -153h-17z" />
    <glyph glyph-name="Gbreve" unicode="&#x11e;" horiz-adv-x="742" 
d="M641 0v166h-1q-28 -87 -101 -130.5t-170 -43.5q-138 0 -226 103t-88 249q0 153 90.5 252.5t231.5 99.5q113 0 184 -57.5t91 -147.5h-17q-18 82 -85.5 136t-172.5 54q-135 0 -220 -94.5t-85 -242.5q0 -140 83 -238.5t214 -98.5q53 0 100.5 14.5t86.5 44t61.5 80.5
t22.5 118v71h-267v15h282v-350h-14zM376 794q-50 0 -84 29t-42 90h13q16 -106 113 -106t113 106h13q-8 -61 -42 -90t-84 -29z" />
    <glyph glyph-name="gbreve" unicode="&#x11f;" horiz-adv-x="555" 
d="M63 -60h15q0 -71 49 -112.5t130 -41.5q192 0 192 227l1 133h-1q-20 -70 -72 -112t-120 -42q-89 0 -147.5 68.5t-58.5 179.5q0 112 59.5 184t147.5 72q68 0 119.5 -42t71.5 -112h1v146h15v-475q0 -240 -208 -240q-88 0 -141 44.5t-53 122.5zM67 240q0 -105 54.5 -169.5
t135.5 -64.5q83 0 137.5 65.5t54.5 172.5t-54 172.5t-137 65.5q-82 0 -136.5 -68t-54.5 -174zM260 594q-50 0 -84 29t-42 90h13q16 -106 113 -106t113 106h13q-8 -61 -42 -90t-84 -29z" />
    <glyph glyph-name="Gdotaccent" unicode="&#x120;" horiz-adv-x="742" 
d="M641 0v166h-1q-28 -87 -101 -130.5t-170 -43.5q-138 0 -226 103t-88 249q0 153 90.5 252.5t231.5 99.5q113 0 184 -57.5t91 -147.5h-17q-18 82 -85.5 136t-172.5 54q-135 0 -220 -94.5t-85 -242.5q0 -140 83 -238.5t214 -98.5q53 0 100.5 14.5t86.5 44t61.5 80.5
t22.5 118v71h-267v15h282v-350h-14zM368 808v84h16v-84h-16z" />
    <glyph glyph-name="gdotaccent" unicode="&#x121;" horiz-adv-x="555" 
d="M63 -60h15q0 -71 49 -112.5t130 -41.5q192 0 192 227l1 133h-1q-20 -70 -72 -112t-120 -42q-89 0 -147.5 68.5t-58.5 179.5q0 112 59.5 184t147.5 72q68 0 119.5 -42t71.5 -112h1v146h15v-475q0 -240 -208 -240q-88 0 -141 44.5t-53 122.5zM67 240q0 -105 54.5 -169.5
t135.5 -64.5q83 0 137.5 65.5t54.5 172.5t-54 172.5t-137 65.5q-82 0 -136.5 -68t-54.5 -174zM252 608v84h16v-84h-16z" />
    <glyph glyph-name="Gcommaaccent" unicode="&#x122;" horiz-adv-x="742" 
d="M641 0v166h-1q-28 -87 -101 -130.5t-170 -43.5q-138 0 -226 103t-88 249q0 153 90.5 252.5t231.5 99.5q113 0 184 -57.5t91 -147.5h-17q-18 82 -85.5 136t-172.5 54q-135 0 -220 -94.5t-85 -242.5q0 -140 83 -238.5t214 -98.5q53 0 100.5 14.5t86.5 44t61.5 80.5
t22.5 118v71h-267v15h282v-350h-14zM360 -61h16v-62l-32 -107h-9l29 110h-4v59z" />
    <glyph glyph-name="gcommaaccent" unicode="&#x123;" horiz-adv-x="555" 
d="M63 -60h15q0 -71 49 -112.5t130 -41.5q192 0 192 227l1 133h-1q-20 -70 -72 -112t-120 -42q-89 0 -147.5 68.5t-58.5 179.5q0 112 59.5 184t147.5 72q68 0 119.5 -42t71.5 -112h1v146h15v-475q0 -240 -208 -240q-88 0 -141 44.5t-53 122.5zM67 240q0 -105 54.5 -169.5
t135.5 -64.5q83 0 137.5 65.5t54.5 172.5t-54 172.5t-137 65.5q-82 0 -136.5 -68t-54.5 -174zM251 568v62l33 107h8l-29 -110h4v-59h-16z" />
    <glyph glyph-name="Hcircumflex" unicode="&#x124;" horiz-adv-x="685" 
d="M99 0v688h16v-329h455v329h16v-688h-16v345h-455v-345h-16zM205 768l129 164h16l129 -164h-17l-120 153l-120 -153h-17z" />
    <glyph glyph-name="hcircumflex" unicode="&#x125;" horiz-adv-x="542" 
d="M90 0v732h16v-163q0 -1 -0.5 -106t-0.5 -108h1q19 71 69 106t113 35q77 0 122.5 -46.5t45.5 -142.5v-307h-16v306q0 89 -41 132.5t-111 43.5q-78 0 -130 -56t-52 -166v-260h-16zM-39 800l129 164h16l129 -164h-17l-120 153l-120 -153h-17z" />
    <glyph glyph-name="Hbar" unicode="&#x126;" horiz-adv-x="685" 
d="M4 524v13h95v151h16v-151h455v151h16v-151h95v-13h-95v-524h-16v346h-455v-346h-16v524h-95zM115 524v-164h455v164h-455z" />
    <glyph glyph-name="hbar" unicode="&#x127;" horiz-adv-x="542" 
d="M0 617v13h90v102h16v-102h184v-13h-184v-48q0 -1 -0.5 -106t-0.5 -108h1q19 71 69 106t113 35q77 0 122.5 -46.5t45.5 -142.5v-307h-16v306q0 89 -41 132.5t-111 43.5q-78 0 -130 -56.5t-52 -166.5v-259h-16v617h-90z" />
    <glyph glyph-name="Itilde" unicode="&#x128;" horiz-adv-x="214" 
d="M99 0v688h16v-688h-16zM-25 810q8 76 64 76q25 0 74 -30t70 -30q43 0 51 64h12q-3 -30 -19 -53t-45 -23q-25 0 -73.5 30t-69.5 30q-44 0 -52 -64h-12z" />
    <glyph glyph-name="itilde" unicode="&#x129;" horiz-adv-x="197" 
d="M90 0v488h16v-488h-16zM-34 610q8 76 64 76q25 0 74 -30t70 -30q43 0 51 64h12q-3 -30 -19 -53t-45 -23q-25 0 -73.5 30t-69.5 30q-44 0 -52 -64h-12z" />
    <glyph glyph-name="Imacron" unicode="&#x12a;" horiz-adv-x="214" 
d="M99 0v688h16v-688h-16zM-29 842v12h276v-12h-276z" />
    <glyph glyph-name="imacron" unicode="&#x12b;" horiz-adv-x="197" 
d="M90 0v488h16v-488h-16zM-38 642v12h276v-12h-276z" />
    <glyph glyph-name="Ibreve" unicode="&#x12c;" horiz-adv-x="214" 
d="M99 0v688h16v-688h-16zM107 794q-50 0 -84 29t-42 90h13q16 -106 113 -106t113 106h13q-8 -61 -42 -90t-84 -29z" />
    <glyph glyph-name="ibreve" unicode="&#x12d;" horiz-adv-x="197" 
d="M90 0v488h16v-488h-16zM98 594q-50 0 -84 29t-42 90h13q16 -106 113 -106t113 106h13q-8 -61 -42 -90t-84 -29z" />
    <glyph glyph-name="Iogonek" unicode="&#x12e;" horiz-adv-x="214" 
d="M37 -128q0 57 62 128v688h16v-688q-63 -73 -63 -126q0 -66 73 -66h37v-14h-38q-43 0 -65 21.5t-22 56.5z" />
    <glyph glyph-name="iogonek" unicode="&#x12f;" horiz-adv-x="197" 
d="M28 -128q0 57 62 128v488h16v-488q-63 -73 -63 -126q0 -66 73 -66h37v-14h-38q-43 0 -65 21.5t-22 56.5zM90 646v86h17v-86h-17z" />
    <glyph glyph-name="Idotaccent" unicode="&#x130;" horiz-adv-x="214" 
d="M99 0v688h16v-688h-16zM99 808v84h16v-84h-16z" />
    <glyph glyph-name="dotlessi" unicode="&#x131;" horiz-adv-x="197" 
d="M90 0v488h16v-488h-16z" />
    <glyph glyph-name="IJ" unicode="&#x132;" horiz-adv-x="730" 
d="M99 0v688h16v-688h-16zM283 185v43h16v-42q0 -92 45 -136t121 -44q71 0 116.5 45.5t45.5 134.5v502h16v-503q0 -96 -50 -144.5t-128 -48.5q-83 0 -132.5 47.5t-49.5 145.5z" />
    <glyph glyph-name="ij" unicode="&#x133;" horiz-adv-x="394" 
d="M90 646v86h17v-86h-17zM90 0v488h16v-488h-16zM287 646v86h17v-86h-17zM287 -115v603h16v-605q0 -103 -96 -103h-25v14h24q41 0 61 20.5t20 70.5z" />
    <glyph glyph-name="Jcircumflex" unicode="&#x134;" horiz-adv-x="516" 
d="M69 185v43h16v-42q0 -92 44.5 -136t120.5 -44q71 0 116.5 45.5t45.5 134.5v502h16v-503q0 -96 -49.5 -144.5t-128.5 -48.5q-83 0 -132 47.5t-49 145.5zM283 768l129 164h16l129 -164h-17l-120 153l-120 -153h-17z" />
    <glyph glyph-name="jcircumflex" unicode="&#x135;" horiz-adv-x="197" 
d="M90 -115v603h16v-605q0 -103 -96 -103h-25v14h24q41 0 61 20.5t20 70.5zM-39 568l129 164h16l129 -164h-17l-120 153l-120 -153h-17z" />
    <glyph glyph-name="Kcommaaccent" unicode="&#x136;" horiz-adv-x="630" 
d="M99 0v688h16v-482l438 482h21l-270 -296l289 -392h-19l-281 380l-178 -196v-184h-16zM312 -61h16v-62l-32 -107h-9l29 110h-4v59z" />
    <glyph glyph-name="kcommaaccent" unicode="&#x137;" horiz-adv-x="475" 
d="M90 0v732h16v-584l307 340h19l-184 -204l209 -284h-20l-200 272l-131 -145v-127h-16zM244 -61h16v-62l-32 -107h-9l29 110h-4v59z" />
    <glyph glyph-name="Lacute" unicode="&#x139;" horiz-adv-x="535" 
d="M99 0v688h16v-674h390v-14h-406zM99 768l110 164h20l-116 -164h-14z" />
    <glyph glyph-name="lacute" unicode="&#x13a;" horiz-adv-x="196" 
d="M90 0v732h16v-732h-16zM89 812l110 164h20l-116 -164h-14z" />
    <glyph glyph-name="Lcommaaccent" unicode="&#x13b;" horiz-adv-x="535" 
d="M99 0v688h16v-674h390v-14h-406zM284 -61h16v-62l-32 -107h-9l29 110h-4v59z" />
    <glyph glyph-name="lcommaaccent" unicode="&#x13c;" horiz-adv-x="196" 
d="M90 0v732h16v-732h-16zM90 -61h16v-62l-32 -107h-9l29 110h-4v59z" />
    <glyph glyph-name="Lcaron" unicode="&#x13d;" horiz-adv-x="535" 
d="M99 0v688h16v-674h390v-14h-406zM324 515l28 113h-4v60h17v-63l-33 -110h-8z" />
    <glyph glyph-name="lcaron" unicode="&#x13e;" horiz-adv-x="197" 
d="M186 559l29 113h-4v60h17v-63l-33 -110h-9zM90 0v732h16v-732h-16z" />
    <glyph glyph-name="Ldot" unicode="&#x13f;" horiz-adv-x="535" 
d="M99 0v688h16v-674h390v-14h-406zM293 304v86h17v-86h-17z" />
    <glyph glyph-name="ldot" unicode="&#x140;" horiz-adv-x="212" 
d="M90 0v732h16v-732h-16zM196 302v86h17v-86h-17z" />
    <glyph glyph-name="Lslash" unicode="&#x141;" horiz-adv-x="535" 
d="M-4 219l-8 11l111 78v380h16v-368l196 139l8 -11l-204 -145v-289h390v-14h-406v292z" />
    <glyph glyph-name="lslash" unicode="&#x142;" horiz-adv-x="197" 
d="M2 281l88 97v354h16v-336l81 90l9 -10l-90 -100v-376h-16v359l-80 -88z" />
    <glyph glyph-name="Nacute" unicode="&#x143;" horiz-adv-x="689" 
d="M99 0v688h16l458 -660h1v660h16v-688h-16l-458 660h-1v-660h-16zM335 768l110 164h20l-116 -164h-14z" />
    <glyph glyph-name="nacute" unicode="&#x144;" horiz-adv-x="542" 
d="M90 0v488h15v-133h1q19 71 69 106t113 35q77 0 122.5 -46.5t45.5 -142.5v-307h-16v306q0 89 -41 132.5t-111 43.5q-78 0 -130 -56.5t-52 -166.5v-259h-16zM259 568l110 164h20l-116 -164h-14z" />
    <glyph glyph-name="Ncommaaccent" unicode="&#x145;" horiz-adv-x="689" 
d="M99 0v688h16l458 -660h1v660h16v-688h-16l-458 660h-1v-660h-16zM336 -61h16v-62l-32 -107h-9l29 110h-4v59z" />
    <glyph glyph-name="ncommaaccent" unicode="&#x146;" horiz-adv-x="542" 
d="M90 0v488h15v-133h1q19 71 69 106t113 35q77 0 122.5 -46.5t45.5 -142.5v-307h-16v306q0 89 -41 132.5t-111 43.5q-78 0 -130 -56.5t-52 -166.5v-259h-16zM263 -61h16v-62l-32 -107h-9l29 110h-4v59z" />
    <glyph glyph-name="Ncaron" unicode="&#x147;" horiz-adv-x="689" 
d="M99 0v688h16l458 -660h1v660h16v-688h-16l-458 660h-1v-660h-16zM336 768l-129 164h17l120 -153l120 153h17l-129 -164h-16z" />
    <glyph glyph-name="ncaron" unicode="&#x148;" horiz-adv-x="542" 
d="M90 0v488h15v-133h1q19 71 69 106t113 35q77 0 122.5 -46.5t45.5 -142.5v-307h-16v306q0 89 -41 132.5t-111 43.5q-78 0 -130 -56.5t-52 -166.5v-259h-16zM260 568l-129 164h17l120 -153l120 153h17l-129 -164h-16z" />
    <glyph glyph-name="napostrophe" unicode="&#x149;" horiz-adv-x="542" 
d="M90 0v488h15v-133h1q19 71 69 106t113 35q77 0 122.5 -46.5t45.5 -142.5v-307h-16v306q0 89 -41 132.5t-111 43.5q-78 0 -130 -56.5t-52 -166.5v-259h-16zM62 568l29 110h-4v59h16v-62l-32 -107h-9z" />
    <glyph glyph-name="Eng" unicode="&#x14a;" horiz-adv-x="689" 
d="M99 0v688h16l458 -658h1v658h16v-774q0 -134 -115 -134h-48v15h48q99 0 99 120v85l-458 661h-1v-661h-16z" />
    <glyph glyph-name="eng" unicode="&#x14b;" horiz-adv-x="542" 
d="M440 -115v421q0 89 -41 132.5t-111 43.5q-78 0 -130 -56.5t-52 -166.5v-259h-16v488h15v-133h1q19 71 69 106t113 35q77 0 122.5 -46.5t45.5 -142.5v-424q0 -103 -96 -103h-25v14h24q41 0 61 20.5t20 70.5z" />
    <glyph glyph-name="Omacron" unicode="&#x14c;" horiz-adv-x="738" 
d="M55 344q0 152 88 252t226 100q136 0 225.5 -100.5t89.5 -251.5t-89.5 -251.5t-225.5 -100.5q-138 0 -226 100.5t-88 251.5zM72 344q0 -145 83.5 -241t213.5 -96q129 0 213.5 96.5t84.5 240.5t-84.5 240.5t-213.5 96.5q-130 0 -213.5 -96t-83.5 -241zM233 842v12h276v-12
h-276z" />
    <glyph glyph-name="omacron" unicode="&#x14d;" horiz-adv-x="524" 
d="M51 244q0 110 61.5 181t149.5 71q93 0 152 -70t59 -182q0 -110 -61.5 -181t-149.5 -71q-93 0 -152 70t-59 182zM67 244q0 -104 55.5 -171t139.5 -67q81 0 138 67.5t57 170.5q0 105 -55 171.5t-140 66.5q-81 0 -138 -67.5t-57 -170.5zM126 642v12h276v-12h-276z" />
    <glyph glyph-name="Obreve" unicode="&#x14e;" horiz-adv-x="738" 
d="M55 344q0 152 88 252t226 100q136 0 225.5 -100.5t89.5 -251.5t-89.5 -251.5t-225.5 -100.5q-138 0 -226 100.5t-88 251.5zM72 344q0 -145 83.5 -241t213.5 -96q129 0 213.5 96.5t84.5 240.5t-84.5 240.5t-213.5 96.5q-130 0 -213.5 -96t-83.5 -241zM369 794
q-50 0 -84 29t-42 90h13q16 -106 113 -106t113 106h13q-8 -61 -42 -90t-84 -29z" />
    <glyph glyph-name="obreve" unicode="&#x14f;" horiz-adv-x="524" 
d="M51 244q0 110 61.5 181t149.5 71q93 0 152 -70t59 -182q0 -110 -61.5 -181t-149.5 -71q-93 0 -152 70t-59 182zM67 244q0 -104 55.5 -171t139.5 -67q81 0 138 67.5t57 170.5q0 105 -55 171.5t-140 66.5q-81 0 -138 -67.5t-57 -170.5zM262 594q-50 0 -84 29t-42 90h13
q16 -106 113 -106t113 106h13q-8 -61 -42 -90t-84 -29z" />
    <glyph glyph-name="Ohungarumlaut" unicode="&#x150;" horiz-adv-x="738" 
d="M55 344q0 152 88 252t226 100q136 0 225.5 -100.5t89.5 -251.5t-89.5 -251.5t-225.5 -100.5q-138 0 -226 100.5t-88 251.5zM72 344q0 -145 83.5 -241t213.5 -96q129 0 213.5 96.5t84.5 240.5t-84.5 240.5t-213.5 96.5q-130 0 -213.5 -96t-83.5 -241zM446 768l110 164h19
l-116 -164h-13zM277 768l110 164h19l-116 -164h-13z" />
    <glyph glyph-name="ohungarumlaut" unicode="&#x151;" horiz-adv-x="524" 
d="M51 244q0 110 61.5 181t149.5 71q93 0 152 -70t59 -182q0 -110 -61.5 -181t-149.5 -71q-93 0 -152 70t-59 182zM67 244q0 -104 55.5 -171t139.5 -67q81 0 138 67.5t57 170.5q0 105 -55 171.5t-140 66.5q-81 0 -138 -67.5t-57 -170.5zM339 568l110 164h19l-116 -164h-13z
M170 568l110 164h19l-116 -164h-13z" />
    <glyph glyph-name="OE" unicode="&#x152;" horiz-adv-x="1039" 
d="M418 0q-177 0 -270 94t-93 250t93 250t270 94h565v-14h-419v-314h343v-14h-343v-332h427v-14h-573zM72 344q0 -149 88.5 -239.5t257.5 -90.5h130v660h-130q-169 0 -257.5 -90.5t-88.5 -239.5z" />
    <glyph glyph-name="oe" unicode="&#x153;" horiz-adv-x="912" 
d="M51 244q0 110 61.5 181t149.5 71q76 0 130.5 -49t71.5 -132q18 82 72.5 131.5t126.5 49.5q84 0 139.5 -63t55.5 -169v-8h-385v-12q0 -107 52 -172.5t142 -65.5q67 0 114.5 39t56.5 103h15q-9 -70 -61 -113t-125 -43q-81 0 -134 48t-69 131q-19 -81 -75 -130t-127 -49
q-93 0 -152 70t-59 182zM67 244q0 -104 55.5 -171t139.5 -67q81 0 138 67.5t57 170.5v10q-3 101 -58 164.5t-137 63.5q-81 0 -138 -67.5t-57 -170.5zM663 482q-76 0 -129 -59t-60 -153h368q-1 97 -52.5 154.5t-126.5 57.5z" />
    <glyph glyph-name="Racute" unicode="&#x154;" horiz-adv-x="627" 
d="M99 0v688h253q100 0 154 -48t54 -134q0 -84 -53 -136.5t-146 -54.5l208 -315h-18l-207 315h-229v-315h-16zM352 674h-237v-345h237q91 0 141 48.5t50 128.5q0 79 -49 123.5t-142 44.5zM295 768l110 164h20l-116 -164h-14z" />
    <glyph glyph-name="racute" unicode="&#x155;" horiz-adv-x="324" 
d="M90 0v488h15v-120h1q14 56 51.5 92t89.5 36q40 0 70 -18l-7 -14q-28 17 -63 17q-62 0 -101.5 -58t-39.5 -140v-283h-16zM193 568l110 164h20l-116 -164h-14z" />
    <glyph glyph-name="Rcommaaccent" unicode="&#x156;" horiz-adv-x="627" 
d="M99 0v688h253q100 0 154 -48t54 -134q0 -84 -53 -136.5t-146 -54.5l208 -315h-18l-207 315h-229v-315h-16zM352 674h-237v-345h237q91 0 141 48.5t50 128.5q0 79 -49 123.5t-142 44.5zM300 -61h16v-62l-32 -107h-9l29 110h-4v59z" />
    <glyph glyph-name="rcommaaccent" unicode="&#x157;" horiz-adv-x="324" 
d="M90 0v488h15v-120h1q14 56 51.5 92t89.5 36q40 0 70 -18l-7 -14q-28 17 -63 17q-62 0 -101.5 -58t-39.5 -140v-283h-16zM90 -61h16v-62l-32 -107h-9l29 110h-4v59z" />
    <glyph glyph-name="Rcaron" unicode="&#x158;" horiz-adv-x="627" 
d="M99 0v688h253q100 0 154 -48t54 -134q0 -84 -53 -136.5t-146 -54.5l208 -315h-18l-207 315h-229v-315h-16zM352 674h-237v-345h237q91 0 141 48.5t50 128.5q0 79 -49 123.5t-142 44.5zM296 768l-129 164h17l120 -153l120 153h17l-129 -164h-16z" />
    <glyph glyph-name="rcaron" unicode="&#x159;" horiz-adv-x="324" 
d="M90 0v488h15v-120h1q14 56 51.5 92t89.5 36q40 0 70 -18l-7 -14q-28 17 -63 17q-62 0 -101.5 -58t-39.5 -140v-283h-16zM194 568l-129 164h17l120 -153l120 153h17l-129 -164h-16z" />
    <glyph glyph-name="Sacute" unicode="&#x15a;" horiz-adv-x="612" 
d="M68 182h15q0 -88 61 -132t165 -44q101 0 158.5 47.5t57.5 127.5q0 53 -25 87t-64.5 49t-87.5 23.5t-96 17.5t-87.5 24.5t-64.5 50t-25 88.5q0 75 63 125t164 50q103 0 164.5 -44.5t61.5 -129.5h-16q0 78 -57.5 119t-152.5 41q-92 0 -151 -45.5t-59 -114.5q0 -51 25 -83
t64.5 -46t87.5 -22.5t96 -17.5t87.5 -25t64.5 -52.5t25 -93.5q0 -87 -61.5 -138.5t-171.5 -51.5q-112 0 -176.5 47t-64.5 143zM293 768l110 164h20l-116 -164h-14z" />
    <glyph glyph-name="sacute" unicode="&#x15b;" horiz-adv-x="452" 
d="M41 133h15q0 -65 47.5 -96t118.5 -31q70 0 116.5 31.5t46.5 91.5q0 49 -27 73t-88 34l-92 16q-60 10 -93 35t-33 79q0 60 47.5 95t122.5 35q71 0 120.5 -34t49.5 -99h-15q0 59 -45 89t-110 30q-68 0 -111 -31t-43 -84q0 -47 29 -69.5t83 -31.5l92 -16q68 -12 98.5 -38
t30.5 -82q0 -66 -51.5 -102t-127.5 -36q-79 0 -130 35t-51 106zM213 568l110 164h20l-116 -164h-14z" />
    <glyph glyph-name="Scircumflex" unicode="&#x15c;" horiz-adv-x="612" 
d="M68 182h15q0 -88 61 -132t165 -44q101 0 158.5 47.5t57.5 127.5q0 53 -25 87t-64.5 49t-87.5 23.5t-96 17.5t-87.5 24.5t-64.5 50t-25 88.5q0 75 63 125t164 50q103 0 164.5 -44.5t61.5 -129.5h-16q0 78 -57.5 119t-152.5 41q-92 0 -151 -45.5t-59 -114.5q0 -51 25 -83
t64.5 -46t87.5 -22.5t96 -17.5t87.5 -25t64.5 -52.5t25 -93.5q0 -87 -61.5 -138.5t-171.5 -51.5q-112 0 -176.5 47t-64.5 143zM165 768l129 164h16l129 -164h-17l-120 153l-120 -153h-17z" />
    <glyph glyph-name="scircumflex" unicode="&#x15d;" horiz-adv-x="452" 
d="M41 133h15q0 -65 47.5 -96t118.5 -31q70 0 116.5 31.5t46.5 91.5q0 49 -27 73t-88 34l-92 16q-60 10 -93 35t-33 79q0 60 47.5 95t122.5 35q71 0 120.5 -34t49.5 -99h-15q0 59 -45 89t-110 30q-68 0 -111 -31t-43 -84q0 -47 29 -69.5t83 -31.5l92 -16q68 -12 98.5 -38
t30.5 -82q0 -66 -51.5 -102t-127.5 -36q-79 0 -130 35t-51 106zM85 568l129 164h16l129 -164h-17l-120 153l-120 -153h-17z" />
    <glyph glyph-name="Scedilla" unicode="&#x15e;" horiz-adv-x="612" 
d="M272 -62l24 54q-107 3 -167.5 50t-60.5 140h15q0 -88 61 -132t165 -44q101 0 158.5 47.5t57.5 127.5q0 53 -25 87t-64.5 49t-87.5 23.5t-96 17.5t-87.5 24.5t-64.5 50t-25 88.5q0 75 63 125t164 50q103 0 164.5 -44.5t61.5 -129.5h-16q0 78 -57.5 119t-152.5 41
q-92 0 -151 -45.5t-59 -114.5q0 -51 25 -83t64.5 -46t87.5 -22.5t96 -17.5t87.5 -25t64.5 -52.5t25 -93.5q0 -87 -61.5 -138.5t-171.5 -51.5h-1l-17 -42q45 -1 68 -22.5t23 -53.5t-22 -56t-69 -24h-45v13h44q41 0 59 20t18 47q0 28 -20 46t-60 18h-15z" />
    <glyph glyph-name="scedilla" unicode="&#x15f;" horiz-adv-x="452" 
d="M188 -62l24 54q-76 2 -123.5 37t-47.5 104h15q0 -65 47.5 -96t118.5 -31q70 0 116.5 31.5t46.5 91.5q0 49 -27 73t-88 34l-92 16q-60 10 -93 35t-33 79q0 60 47.5 95t122.5 35q71 0 120.5 -34t49.5 -99h-15q0 59 -45 89t-110 30q-68 0 -111 -31t-43 -84q0 -47 29 -69.5
t83 -31.5l92 -16q68 -12 98.5 -38t30.5 -82q0 -66 -51 -101.5t-126 -36.5l-17 -42q45 -1 68 -22.5t23 -53.5t-22 -56t-69 -24h-45v13h44q41 0 59 20t18 47q0 28 -20 46t-60 18h-15z" />
    <glyph glyph-name="Scaron" unicode="&#x160;" horiz-adv-x="612" 
d="M68 182h15q0 -88 61 -132t165 -44q101 0 158.5 47.5t57.5 127.5q0 53 -25 87t-64.5 49t-87.5 23.5t-96 17.5t-87.5 24.5t-64.5 50t-25 88.5q0 75 63 125t164 50q103 0 164.5 -44.5t61.5 -129.5h-16q0 78 -57.5 119t-152.5 41q-92 0 -151 -45.5t-59 -114.5q0 -51 25 -83
t64.5 -46t87.5 -22.5t96 -17.5t87.5 -25t64.5 -52.5t25 -93.5q0 -87 -61.5 -138.5t-171.5 -51.5q-112 0 -176.5 47t-64.5 143zM294 768l-129 164h17l120 -153l120 153h17l-129 -164h-16z" />
    <glyph glyph-name="scaron" unicode="&#x161;" horiz-adv-x="452" 
d="M41 133h15q0 -65 47.5 -96t118.5 -31q70 0 116.5 31.5t46.5 91.5q0 49 -27 73t-88 34l-92 16q-60 10 -93 35t-33 79q0 60 47.5 95t122.5 35q71 0 120.5 -34t49.5 -99h-15q0 59 -45 89t-110 30q-68 0 -111 -31t-43 -84q0 -47 29 -69.5t83 -31.5l92 -16q68 -12 98.5 -38
t30.5 -82q0 -66 -51.5 -102t-127.5 -36q-79 0 -130 35t-51 106zM214 568l-129 164h17l120 -153l120 153h17l-129 -164h-16z" />
    <glyph glyph-name="Tcommaaccent" unicode="&#x162;" horiz-adv-x="556" 
d="M244 -62l28 62h-2v674h-262v14h540v-14h-262v-674h-2l-21 -50q45 -1 68 -22.5t23 -53.5t-22 -56t-69 -24h-45v13h44q41 0 59 20t18 47q0 28 -20 46t-60 18h-15z" />
    <glyph glyph-name="tcommaaccent" unicode="&#x163;" horiz-adv-x="290" 
d="M140 -62l28 69q-66 23 -66 123v345h-106v13h106v148h16v-148h148v-13h-148v-345q0 -64 25 -90t79 -26h44v-14h-45q-26 0 -43 4l-19 -54q45 -1 68 -22.5t23 -53.5t-22 -56t-69 -24h-45v13h44q41 0 59 20t18 47q0 28 -20 46t-60 18h-15z" />
    <glyph glyph-name="Tcaron" unicode="&#x164;" horiz-adv-x="556" 
d="M8 674v14h540v-14h-262v-674h-16v674h-262zM270 768l-129 164h17l120 -153l120 153h17l-129 -164h-16z" />
    <glyph glyph-name="tcaron" unicode="&#x165;" horiz-adv-x="290" 
d="M102 130v345h-114v13h114v148h16v-148h148v-13h-148v-345q0 -64 25 -90t79 -26h44v-14h-45q-60 0 -89.5 30t-29.5 100zM178 562l29 112h-4v61h17v-63l-33 -110h-9z" />
    <glyph glyph-name="Tbar" unicode="&#x166;" horiz-adv-x="556" 
d="M8 674v14h540v-14h-262v-318h191v-13h-191v-343h-16v343h-192v13h192v318h-262z" />
    <glyph glyph-name="tbar" unicode="&#x167;" horiz-adv-x="290" 
d="M-12 254v12h114v209h-114v13h114v148h16v-148h148v-13h-148v-209h148v-12h-148v-124q0 -64 25 -90t79 -26h44v-14h-45q-60 0 -89.5 30t-29.5 100v124h-114z" />
    <glyph glyph-name="Utilde" unicode="&#x168;" horiz-adv-x="667" 
d="M86 268v420h17v-420q0 -130 62 -196t169 -66q106 0 168 66t62 196v420h17v-420q0 -137 -66.5 -206.5t-180.5 -69.5t-181 69.5t-67 206.5zM201 810q8 76 64 76q25 0 74 -30t70 -30q43 0 51 64h12q-3 -30 -19 -53t-45 -23q-25 0 -73.5 30t-69.5 30q-44 0 -52 -64h-12z" />
    <glyph glyph-name="utilde" unicode="&#x169;" horiz-adv-x="534" 
d="M82 181v307h16v-306q0 -89 41 -132.5t109 -43.5q77 0 128.5 57t51.5 165v260h16v-488h-15v133h-1q-19 -71 -68.5 -106t-111.5 -35q-75 0 -120.5 47t-45.5 142zM135 610q8 76 64 76q25 0 74 -30t70 -30q43 0 51 64h12q-3 -30 -19 -53t-45 -23q-25 0 -73.5 30t-69.5 30
q-44 0 -52 -64h-12z" />
    <glyph glyph-name="Umacron" unicode="&#x16a;" horiz-adv-x="667" 
d="M86 268v420h17v-420q0 -130 62 -196t169 -66q106 0 168 66t62 196v420h17v-420q0 -137 -66.5 -206.5t-180.5 -69.5t-181 69.5t-67 206.5zM197 842v12h276v-12h-276z" />
    <glyph glyph-name="umacron" unicode="&#x16b;" horiz-adv-x="534" 
d="M82 181v307h16v-306q0 -89 41 -132.5t109 -43.5q77 0 128.5 57t51.5 165v260h16v-488h-15v133h-1q-19 -71 -68.5 -106t-111.5 -35q-75 0 -120.5 47t-45.5 142zM131 642v12h276v-12h-276z" />
    <glyph glyph-name="Ubreve" unicode="&#x16c;" horiz-adv-x="667" 
d="M86 268v420h17v-420q0 -130 62 -196t169 -66q106 0 168 66t62 196v420h17v-420q0 -137 -66.5 -206.5t-180.5 -69.5t-181 69.5t-67 206.5zM333 794q-50 0 -84 29t-42 90h13q16 -106 113 -106t113 106h13q-8 -61 -42 -90t-84 -29z" />
    <glyph glyph-name="ubreve" unicode="&#x16d;" horiz-adv-x="534" 
d="M82 181v307h16v-306q0 -89 41 -132.5t109 -43.5q77 0 128.5 57t51.5 165v260h16v-488h-15v133h-1q-19 -71 -68.5 -106t-111.5 -35q-75 0 -120.5 47t-45.5 142zM267 594q-50 0 -84 29t-42 90h13q16 -106 113 -106t113 106h13q-8 -61 -42 -90t-84 -29z" />
    <glyph glyph-name="Uring" unicode="&#x16e;" horiz-adv-x="667" 
d="M86 268v420h17v-420q0 -130 62 -196t169 -66q106 0 168 66t62 196v420h17v-420q0 -137 -66.5 -206.5t-180.5 -69.5t-181 69.5t-67 206.5zM333 775q-33 0 -59.5 24t-26.5 61q0 38 26.5 61.5t59.5 23.5t59.5 -23.5t26.5 -61.5q0 -37 -26.5 -61t-59.5 -24zM333 788
q28 0 50 19.5t22 52.5t-22 52.5t-50 19.5t-50 -19.5t-22 -52.5t22 -52.5t50 -19.5z" />
    <glyph glyph-name="uring" unicode="&#x16f;" horiz-adv-x="534" 
d="M82 181v307h16v-306q0 -89 41 -132.5t109 -43.5q77 0 128.5 57t51.5 165v260h16v-488h-15v133h-1q-19 -71 -68.5 -106t-111.5 -35q-75 0 -120.5 47t-45.5 142zM267 575q-33 0 -59.5 24t-26.5 61q0 38 26.5 61.5t59.5 23.5t59.5 -23.5t26.5 -61.5q0 -37 -26.5 -61
t-59.5 -24zM267 588q28 0 50 19.5t22 52.5t-22 52.5t-50 19.5t-50 -19.5t-22 -52.5t22 -52.5t50 -19.5z" />
    <glyph glyph-name="Uhungarumlaut" unicode="&#x170;" horiz-adv-x="667" 
d="M86 268v420h17v-420q0 -130 62 -196t169 -66q106 0 168 66t62 196v420h17v-420q0 -137 -66.5 -206.5t-180.5 -69.5t-181 69.5t-67 206.5zM410 768l110 164h19l-116 -164h-13zM241 768l110 164h19l-116 -164h-13z" />
    <glyph glyph-name="uhungarumlaut" unicode="&#x171;" horiz-adv-x="534" 
d="M82 181v307h16v-306q0 -89 41 -132.5t109 -43.5q77 0 128.5 57t51.5 165v260h16v-488h-15v133h-1q-19 -71 -68.5 -106t-111.5 -35q-75 0 -120.5 47t-45.5 142zM344 568l110 164h19l-116 -164h-13zM175 568l110 164h19l-116 -164h-13z" />
    <glyph glyph-name="Uogonek" unicode="&#x172;" horiz-adv-x="667" 
d="M334 -132q0 55 107 144q-49 -20 -107 -20q-113 0 -180.5 70.5t-67.5 205.5v420h17v-420q0 -130 62 -196t169 -66q106 0 168 66t62 196v420h17v-420q0 -158 -94 -230q-139 -108 -139 -169q0 -62 74 -62h37v-13h-38q-87 0 -87 74z" />
    <glyph glyph-name="uogonek" unicode="&#x173;" horiz-adv-x="534" 
d="M366 -128q0 57 62 128h1v133h-1q-19 -71 -68.5 -106t-111.5 -35q-75 0 -120.5 47t-45.5 142v307h16v-306q0 -89 41 -132.5t109 -43.5q77 0 128.5 57t51.5 165v260h16v-488q-63 -73 -63 -126q0 -66 73 -66h37v-14h-38q-43 0 -65 21.5t-22 56.5z" />
    <glyph glyph-name="Wcircumflex" unicode="&#x174;" horiz-adv-x="871" 
d="M206 0l-190 688h16l184 -669h1l211 669h17l210 -669h1l183 669h17l-190 -688h-21l-208 664h-1l-209 -664h-21zM298 768l129 164h16l129 -164h-17l-120 153l-120 -153h-17z" />
    <glyph glyph-name="wcircumflex" unicode="&#x175;" horiz-adv-x="677" 
d="M175 0l-155 488h15l148 -470h1l147 470h17l146 -470h1l148 470h15l-155 -488h-18l-145 471h-1l-146 -471h-18zM203 568l129 164h16l129 -164h-17l-120 153l-120 -153h-17z" />
    <glyph glyph-name="Ycircumflex" unicode="&#x176;" horiz-adv-x="558" 
d="M270 0v285l-254 403h18l244 -385h1l245 385h18l-255 -401v-287h-17zM142 768l129 164h16l129 -164h-17l-120 153l-120 -153h-17z" />
    <glyph glyph-name="ycircumflex" unicode="&#x177;" horiz-adv-x="440" 
d="M33 -211h14q51 0 78.5 28.5t50.5 87.5l36 95l-192 488h16l184 -470h1l184 470h16l-232 -589q-24 -62 -54 -92.5t-86 -30.5h-16v13zM83 568l129 164h16l129 -164h-17l-120 153l-120 -153h-17z" />
    <glyph glyph-name="Ydieresis" unicode="&#x178;" horiz-adv-x="558" 
d="M270 0v285l-254 403h18l244 -385h1l245 385h18l-255 -401v-287h-17zM367 808v84h16v-84h-16zM178 808v84h16v-84h-16z" />
    <glyph glyph-name="Zacute" unicode="&#x179;" horiz-adv-x="552" 
d="M60 674v14h452v-9l-452 -665h448v-14h-468v9l451 665h-431zM267 768l110 164h20l-116 -164h-14z" />
    <glyph glyph-name="zacute" unicode="&#x17a;" horiz-adv-x="404" 
d="M28 475v13h344v-10l-320 -465h324v-13h-344v9l321 466h-325zM191 568l110 164h20l-116 -164h-14z" />
    <glyph glyph-name="Zdotaccent" unicode="&#x17b;" horiz-adv-x="552" 
d="M60 674v14h452v-9l-452 -665h448v-14h-468v9l451 665h-431zM268 808v84h16v-84h-16z" />
    <glyph glyph-name="zdotaccent" unicode="&#x17c;" horiz-adv-x="404" 
d="M28 475v13h344v-10l-320 -465h324v-13h-344v9l321 466h-325zM192 608v84h16v-84h-16z" />
    <glyph glyph-name="Zcaron" unicode="&#x17d;" horiz-adv-x="552" 
d="M60 674v14h452v-9l-452 -665h448v-14h-468v9l451 665h-431zM268 768l-129 164h17l120 -153l120 153h17l-129 -164h-16z" />
    <glyph glyph-name="zcaron" unicode="&#x17e;" horiz-adv-x="404" 
d="M28 475v13h344v-10l-320 -465h324v-13h-344v9l321 466h-325zM192 568l-129 164h17l120 -153l120 153h17l-129 -164h-16z" />
    <glyph glyph-name="longs" unicode="&#x17f;" horiz-adv-x="236" 
d="M110 0v475h-110v13h110v102q0 142 132 142h35v-14h-34q-58 0 -87.5 -30.5t-29.5 -98.5v-589h-16z" />
    <glyph glyph-name="florin" unicode="&#x192;" horiz-adv-x="568" 
d="M125 339v13h136l19 184q17 160 131 160q119 0 103 -158l-3 -30h-15l3 30q8 79 -14.5 111.5t-73.5 32.5q-101 0 -115 -146l-19 -184h158v-13h-160l-37 -371q-17 -160 -131 -160q-119 0 -103 158l3 30h15l-3 -30q-8 -79 14.5 -111.5t73.5 -32.5q101 0 115 146l38 371h-135z
" />
    <glyph glyph-name="AEacute" unicode="&#x1fc;" horiz-adv-x="1018" 
d="M8 0l514 688h439v-14h-418v-314h342v-14h-342v-332h426v-14h-442v176h-367l-131 -176h-21zM170 190h357v478zM527 768l110 164h20l-116 -164h-14z" />
    <glyph glyph-name="aeacute" unicode="&#x1fd;" horiz-adv-x="844" 
d="M72 336q5 77 53.5 118.5t122.5 41.5q71 0 115 -38.5t49 -112.5q23 69 73 110t114 41q81 0 135.5 -63t54.5 -169v-8h-376v-23q2 -102 53.5 -164.5t136.5 -62.5q65 0 111.5 39t54.5 103h15q-9 -70 -60 -113t-121 -43q-75 0 -127 44.5t-70 122.5q-16 -80 -70.5 -123.5
t-132.5 -43.5q-70 0 -109 35t-39 93q0 111 141 134l131 21q36 6 53 16.5t17 32.5q0 78 -39.5 118t-109.5 40q-67 0 -111 -37t-50 -109h-15zM397 221v71q-16 -23 -68 -31l-130 -20q-128 -20 -128 -120q0 -52 35.5 -83.5t97.5 -31.5q82 0 137.5 55t55.5 160zM599 482
q-74 0 -126 -59t-59 -153h359q-1 97 -51 154.5t-123 57.5zM396 568l110 164h20l-116 -164h-14z" />
    <glyph glyph-name="Oslashacute" unicode="&#x1fe;" horiz-adv-x="738" 
d="M67 -12l81 98q-93 101 -93 258q0 152 88 252t226 100q124 0 212 -86l74 90h17l-82 -100q94 -100 94 -256q0 -151 -89.5 -251.5t-225.5 -100.5q-127 0 -212 85l-73 -89h-17zM72 344q0 -150 87 -245l411 498q-82 84 -201 84q-130 0 -213.5 -96t-83.5 -241zM667 344
q0 146 -88 244l-411 -499q80 -82 201 -82q129 0 213.5 96.5t84.5 240.5zM359 768l110 164h20l-116 -164h-14z" />
    <glyph glyph-name="oslashacute" unicode="&#x1ff;" horiz-adv-x="524" 
d="M54 -12l57 73q-60 69 -60 183q0 110 61.5 181t149.5 71q87 0 143 -61l51 65h15l-58 -74q60 -69 60 -182q0 -110 -61.5 -181t-149.5 -71q-86 0 -143 59l-49 -63h-16zM67 244q0 -103 54 -170l274 348q-54 60 -133 60q-81 0 -138 -67.5t-57 -170.5zM457 244q0 104 -54 169
l-273 -349q53 -58 132 -58q81 0 138 67.5t57 170.5zM253 568l110 164h20l-116 -164h-14z" />
    <glyph glyph-name="Scommaaccent" unicode="&#x218;" horiz-adv-x="612" 
d="M68 182h15q0 -88 61 -132t165 -44q101 0 158.5 47.5t57.5 127.5q0 53 -25 87t-64.5 49t-87.5 23.5t-96 17.5t-87.5 24.5t-64.5 50t-25 88.5q0 75 63 125t164 50q103 0 164.5 -44.5t61.5 -129.5h-16q0 78 -57.5 119t-152.5 41q-92 0 -151 -45.5t-59 -114.5q0 -51 25 -83
t64.5 -46t87.5 -22.5t96 -17.5t87.5 -25t64.5 -52.5t25 -93.5q0 -87 -61.5 -138.5t-171.5 -51.5q-112 0 -176.5 47t-64.5 143zM298 -61h16v-62l-32 -107h-9l29 110h-4v59z" />
    <glyph glyph-name="scommaaccent" unicode="&#x219;" horiz-adv-x="452" 
d="M41 133h15q0 -65 47.5 -96t118.5 -31q70 0 116.5 31.5t46.5 91.5q0 49 -27 73t-88 34l-92 16q-60 10 -93 35t-33 79q0 60 47.5 95t122.5 35q71 0 120.5 -34t49.5 -99h-15q0 59 -45 89t-110 30q-68 0 -111 -31t-43 -84q0 -47 29 -69.5t83 -31.5l92 -16q68 -12 98.5 -38
t30.5 -82q0 -66 -51.5 -102t-127.5 -36q-79 0 -130 35t-51 106zM214 -61h16v-62l-32 -107h-9l29 110h-4v59z" />
    <glyph glyph-name="uni021A" unicode="&#x21a;" horiz-adv-x="556" 
d="M8 674v14h540v-14h-262v-674h-16v674h-262zM270 -61h16v-62l-32 -107h-9l29 110h-4v59z" />
    <glyph glyph-name="uni021B" unicode="&#x21b;" horiz-adv-x="290" 
d="M102 130v345h-106v13h106v148h16v-148h148v-13h-148v-345q0 -64 25 -90t79 -26h44v-14h-45q-60 0 -89.5 30t-29.5 100zM160 -61h16v-62l-32 -107h-9l29 110h-4v59z" />
    <glyph glyph-name="circumflex" unicode="&#x2c6;" horiz-adv-x="524" 
d="M125 568l129 164h16l129 -164h-17l-120 153l-120 -153h-17z" />
    <glyph glyph-name="caron" unicode="&#x2c7;" horiz-adv-x="524" 
d="M254 568l-129 164h17l120 -153l120 153h17l-129 -164h-16z" />
    <glyph glyph-name="uni02C9" unicode="&#x2c9;" horiz-adv-x="524" 
d="M126 642v13h276v-13h-276z" />
    <glyph glyph-name="breve" unicode="&#x2d8;" horiz-adv-x="524" 
d="M262 594q-50 0 -84 29t-42 90h13q16 -106 113 -106t113 106h13q-8 -61 -42 -90t-84 -29z" />
    <glyph glyph-name="dotaccent" unicode="&#x2d9;" horiz-adv-x="524" 
d="M254 608v84h16v-84h-16z" />
    <glyph glyph-name="ring" unicode="&#x2da;" horiz-adv-x="524" 
d="M262 575q-33 0 -59.5 24t-26.5 61q0 38 26.5 61.5t59.5 23.5t59.5 -23.5t26.5 -61.5q0 -37 -26.5 -61t-59.5 -24zM262 588q28 0 50 19.5t22 52.5t-22 52.5t-50 19.5t-50 -19.5t-22 -52.5t22 -52.5t50 -19.5z" />
    <glyph glyph-name="ogonek" unicode="&#x2db;" horiz-adv-x="524" 
d="M192 -128q0 57 62 128h16q-63 -73 -63 -126q0 -66 73 -66h37v-14h-38q-43 0 -65 21.5t-22 56.5z" />
    <glyph glyph-name="tilde" unicode="&#x2dc;" horiz-adv-x="524" 
d="M130 610q8 76 64 76q25 0 74 -30t70 -30q43 0 51 64h12q-3 -30 -19 -53t-45 -23q-25 0 -73.5 30t-69.5 30q-44 0 -52 -64h-12z" />
    <glyph glyph-name="hungarumlaut" unicode="&#x2dd;" horiz-adv-x="524" 
d="M339 568l110 164h19l-116 -164h-13zM170 568l110 164h19l-116 -164h-13z" />
    <glyph glyph-name="uni0394" unicode="&#x394;" horiz-adv-x="590" 
d="M31 0l254 688h20l254 -688h-528zM295 673l-242 -659h484z" />
    <glyph glyph-name="uni03A9" unicode="&#x3a9;" horiz-adv-x="696" 
d="M426 0v169q63 15 121.5 82.5t58.5 168.5q0 113 -75 187.5t-183 74.5t-183 -74.5t-75 -187.5q0 -101 58.5 -168.5t121.5 -82.5v-169h-185v14h169v144q-70 24 -125.5 93t-55.5 169q0 119 80 197.5t195 78.5t195 -78.5t80 -197.5q0 -100 -55.5 -169t-125.5 -93v-144h169v-14
h-185z" />
    <glyph glyph-name="uni03BC" unicode="&#x3bc;" horiz-adv-x="546" 
d="M439 0v133h-1q-19 -71 -68.5 -106t-111.5 -35q-114 0 -151 94q1 -66 1 -228v-78h-16v708h16v-306q0 -89 41 -132.5t109 -43.5q76 0 128 56.5t52 167.5v258h16v-488h-15z" />
    <glyph glyph-name="pi" unicode="&#x3c0;" horiz-adv-x="556" 
d="M91 0v488h373v-488h-16v474h-341v-474h-16z" />
    <glyph glyph-name="Wgrave" unicode="&#x1e80;" horiz-adv-x="871" 
d="M206 0l-190 688h16l184 -669h1l211 669h17l210 -669h1l183 669h17l-190 -688h-21l-208 664h-1l-209 -664h-21zM430 768l-116 164h20l110 -164h-14z" />
    <glyph glyph-name="wgrave" unicode="&#x1e81;" horiz-adv-x="677" 
d="M175 0l-155 488h15l148 -470h1l147 470h17l146 -470h1l148 470h15l-155 -488h-18l-145 471h-1l-146 -471h-18zM335 568l-116 164h20l110 -164h-14z" />
    <glyph glyph-name="Wacute" unicode="&#x1e82;" horiz-adv-x="871" 
d="M206 0l-190 688h16l184 -669h1l211 669h17l210 -669h1l183 669h17l-190 -688h-21l-208 664h-1l-209 -664h-21zM426 768l110 164h20l-116 -164h-14z" />
    <glyph glyph-name="wacute" unicode="&#x1e83;" horiz-adv-x="677" 
d="M175 0l-155 488h15l148 -470h1l147 470h17l146 -470h1l148 470h15l-155 -488h-18l-145 471h-1l-146 -471h-18zM331 568l110 164h20l-116 -164h-14z" />
    <glyph glyph-name="Wdieresis" unicode="&#x1e84;" horiz-adv-x="871" 
d="M206 0l-190 688h16l184 -669h1l211 669h17l210 -669h1l183 669h17l-190 -688h-21l-208 664h-1l-209 -664h-21zM523 808v84h16v-84h-16zM334 808v84h16v-84h-16z" />
    <glyph glyph-name="wdieresis" unicode="&#x1e85;" horiz-adv-x="677" 
d="M175 0l-155 488h15l148 -470h1l147 470h17l146 -470h1l148 470h15l-155 -488h-18l-145 471h-1l-146 -471h-18zM428 608v84h16v-84h-16zM239 608v84h16v-84h-16z" />
    <glyph glyph-name="Ygrave" unicode="&#x1ef2;" horiz-adv-x="558" 
d="M270 0v285l-254 403h18l244 -385h1l245 385h18l-255 -401v-287h-17zM274 768l-116 164h20l110 -164h-14z" />
    <glyph glyph-name="ygrave" unicode="&#x1ef3;" horiz-adv-x="440" 
d="M33 -211h14q51 0 78.5 28.5t50.5 87.5l36 95l-192 488h16l184 -470h1l184 470h16l-232 -589q-24 -62 -54 -92.5t-86 -30.5h-16v13zM215 568l-116 164h20l110 -164h-14z" />
    <glyph glyph-name="endash" unicode="&#x2013;" horiz-adv-x="556" 
d="M60 245v15h436v-15h-436z" />
    <glyph glyph-name="emdash" unicode="&#x2014;" horiz-adv-x="840" 
d="M60 245v15h720v-15h-720z" />
    <glyph glyph-name="quoteleft" unicode="&#x2018;" horiz-adv-x="187" 
d="M86 436v100l35 152h10l-31 -152h4v-100h-18z" />
    <glyph glyph-name="quoteright" unicode="&#x2019;" horiz-adv-x="187" 
d="M56 436l31 152h-4v100h17v-100l-34 -152h-10z" />
    <glyph glyph-name="quotesinglbase" unicode="&#x201a;" horiz-adv-x="187" 
d="M87 0h-4v101h17v-101l-34 -151h-10z" />
    <glyph glyph-name="quotedblleft" unicode="&#x201c;" horiz-adv-x="338" 
d="M86 436v100l35 152h10l-31 -152h4v-100h-18zM238 436v100l34 152h10l-31 -152h4v-100h-17z" />
    <glyph glyph-name="quotedblright" unicode="&#x201d;" horiz-adv-x="338" 
d="M56 436l31 152h-4v100h17v-100l-34 -152h-10zM207 436l31 152h-4v100h18v-100l-35 -152h-10z" />
    <glyph glyph-name="quotedblbase" unicode="&#x201e;" horiz-adv-x="338" 
d="M87 0h-4v101h17v-101l-34 -151h-10zM238 0h-4v101h18v-101l-35 -151h-10z" />
    <glyph glyph-name="dagger" unicode="&#x2020;" horiz-adv-x="404" 
d="M44 481v14h150v193h16v-193h150v-14h-150v-481h-16v481h-150z" />
    <glyph glyph-name="daggerdbl" unicode="&#x2021;" horiz-adv-x="404" 
d="M44 481v14h150v193h16v-193h150v-14h-150v-274h150v-13h-150v-194h-16v194h-150v13h150v274h-150z" />
    <glyph glyph-name="bullet" unicode="&#x2022;" horiz-adv-x="488" 
d="M244 80q-73 0 -122.5 49.5t-49.5 122.5t49.5 122.5t122.5 49.5t122.5 -49.5t49.5 -122.5t-49.5 -122.5t-122.5 -49.5z" />
    <glyph glyph-name="ellipsis" unicode="&#x2026;" horiz-adv-x="574" 
d="M469 0v98h19v-98h-19zM278 0v98h18v-98h-18zM87 0v98h18v-98h-18z" />
    <glyph glyph-name="perthousand" unicode="&#x2030;" horiz-adv-x="1085" 
d="M176 337q-64 0 -99 50.5t-35 128.5t35 128.5t99 50.5t99 -50.5t35 -128.5t-35 -128.5t-99 -50.5zM176 351q57 0 87.5 45.5t30.5 119.5t-30.5 119.5t-87.5 45.5t-87.5 -46t-30.5 -119t30.5 -119t87.5 -46zM183 -12l351 712h16l-351 -712h-16zM557 -7q-64 0 -99 50.5
t-35 128.5t35 128.5t99 50.5t99 -50.5t35 -128.5t-35 -128.5t-99 -50.5zM557 7q57 0 87.5 45.5t30.5 119.5t-30.5 119.5t-87.5 45.5t-87.5 -46t-30.5 -119t30.5 -119t87.5 -46zM909 -7q-64 0 -99 50.5t-35 128.5t35 128.5t99 50.5t99 -50.5t35 -128.5t-35 -128.5t-99 -50.5z
M909 7q57 0 87.5 45.5t30.5 119.5t-30.5 119.5t-87.5 45.5t-87.5 -46t-30.5 -119t30.5 -119t87.5 -46z" />
    <glyph glyph-name="guilsinglleft" unicode="&#x2039;" horiz-adv-x="288" 
d="M212 48l-149 204l149 204h14l-146 -204l146 -204h-14z" />
    <glyph glyph-name="guilsinglright" unicode="&#x203a;" horiz-adv-x="288" 
d="M62 48l146 204l-146 204h13l150 -204l-150 -204h-13z" />
    <glyph glyph-name="fraction" unicode="&#x2044;" horiz-adv-x="29" 
d="M-169 -12l351 712h16l-351 -712h-16z" />
    <glyph glyph-name="uni2070" unicode="&#x2070;" 
d="M176 489q-64 0 -99 50.5t-35 128.5t35 128.5t99 50.5t99 -50.5t35 -128.5t-35 -128.5t-99 -50.5zM176 503q57 0 87.5 45.5t30.5 119.5t-30.5 119.5t-87.5 45.5t-87.5 -46t-30.5 -119t30.5 -119t87.5 -46z" />
    <glyph glyph-name="uni2074" unicode="&#x2074;" 
d="M35 592v12l203 240h14v-238h65v-14h-65v-96h-16v96h-201zM54 606h182v215z" />
    <glyph glyph-name="uni2075" unicode="&#x2075;" 
d="M55 586h15q6 -37 33 -60.5t77 -23.5q46 0 78 29.5t32 72.5q0 48 -31.5 75.5t-78.5 27.5q-62 0 -102 -54l-15 1l13 186h210v-14h-196l-13 -153h2q43 48 103 48q53 0 88.5 -32t35.5 -85q0 -48 -37 -82t-89 -34q-108 0 -125 98z" />
    <glyph glyph-name="uni2076" unicode="&#x2076;" 
d="M297 755h-15q-10 78 -98 78q-52 0 -87 -41.5t-35 -131.5v-17h1q11 35 43.5 56t74.5 21q53 0 88.5 -31.5t35.5 -84.5q0 -48 -37 -82t-88 -34q-59 0 -96.5 40t-37.5 132q0 95 40 141t98 46q51 0 79.5 -25t33.5 -67zM69 605q0 -15 5 -32q26 -71 106 -71q46 0 77.5 29.5
t31.5 72.5q0 48 -30.5 75t-78.5 27q-46 0 -78.5 -29t-32.5 -72z" />
    <glyph glyph-name="uni2077" unicode="&#x2077;" 
d="M122 496l169 330h-241v14h259v-10l-171 -334h-16z" />
    <glyph glyph-name="uni2078" unicode="&#x2078;" 
d="M45 585q0 35 25 60t60 31v1q-31 7 -52 29t-21 52q0 40 35 64.5t84 24.5t84 -24.5t35 -64.5q0 -30 -21 -52t-52 -29v-1q35 -6 60 -31t25 -60q0 -45 -36 -71t-95 -26t-95 26t-36 71zM61 585q0 -40 31 -61.5t84 -21.5t84 21.5t31 61.5q0 39 -32 62t-83 23t-83 -23t-32 -62z
M73 758q0 -35 29 -55t74 -20t74 20t29 55q0 36 -30 55.5t-73 19.5t-73 -19.5t-30 -55.5z" />
    <glyph glyph-name="uni2079" unicode="&#x2079;" 
d="M58 580h15q10 -78 98 -78q52 0 87 41.5t35 131.5q0 11 -1 17q-11 -35 -43.5 -56t-74.5 -21q-53 0 -88.5 31.5t-35.5 84.5q0 48 37 82t88 34q59 0 96.5 -40t37.5 -132q0 -95 -40 -141t-98 -46q-51 0 -79.5 25t-33.5 67zM286 730q0 18 -6 31q-27 72 -105 72
q-46 0 -77.5 -29.5t-31.5 -72.5q0 -48 30.5 -75t78.5 -27q46 0 78.5 29t32.5 72z" />
    <glyph glyph-name="parenleft.superior" unicode="&#x207d;" horiz-adv-x="162" 
d="M140 424q-32 39 -56 105.5t-24 138.5t24 138.5t56 105.5h14q-30 -37 -55 -105t-25 -139t25 -139t55 -105h-14z" />
    <glyph glyph-name="parenright.superior" unicode="&#x207e;" horiz-adv-x="162" 
d="M8 424q30 37 55 105t25 139t-25 139t-55 105h14q32 -39 56 -105.5t24 -138.5t-24 -138.5t-56 -105.5h-14z" />
    <glyph glyph-name="n.superior" unicode="&#x207f;" horiz-adv-x="390" 
d="M62 496v344h15v-93h1q14 47 49.5 72.5t78.5 25.5q57 0 91.5 -35t34.5 -108v-206h-16v205q0 130 -112 130q-51 0 -88.5 -41.5t-37.5 -118.5v-175h-16z" />
    <glyph glyph-name="uni2080" unicode="&#x2080;" 
d="M176 -159q-64 0 -99 50.5t-35 128.5t35 128.5t99 50.5t99 -50.5t35 -128.5t-35 -128.5t-99 -50.5zM176 -145q57 0 87.5 45.5t30.5 119.5t-30.5 119.5t-87.5 45.5t-87.5 -46t-30.5 -119t30.5 -119t87.5 -46z" />
    <glyph glyph-name="uni2081" unicode="&#x2081;" 
d="M68 107l-6 12l127 73h11v-330h113v-14h-250v14h121v311z" />
    <glyph glyph-name="uni2082" unicode="&#x2082;" 
d="M56 -152q2 56 26 87t76 57l43 21q22 11 32.5 17t25.5 17.5t21 25t6 30.5q0 38 -27 59t-76 21t-83 -25.5t-35 -81.5h-15q2 63 40.5 92t92.5 29q55 0 87 -25t32 -69q0 -20 -7 -35t-23 -28t-28 -19.5t-37 -19.5l-42 -21q-48 -24 -69.5 -49.5t-22.5 -68.5h235v-14h-252z" />
    <glyph glyph-name="uni2083" unicode="&#x2083;" 
d="M46 -55h15q0 -46 31.5 -68.5t83.5 -22.5q53 0 84 21.5t31 61.5q0 39 -32 62t-83 23h-32v13h32q45 0 74 20t29 55q0 36 -30 55.5t-73 19.5t-73.5 -23.5t-30.5 -67.5h-14q0 50 34 77.5t84 27.5q49 0 84 -24.5t35 -64.5q0 -30 -21 -52t-52 -29v-1q36 -7 60.5 -31t24.5 -61
q0 -45 -35.5 -70.5t-95.5 -25.5q-58 0 -94 26.5t-36 78.5z" />
    <glyph glyph-name="uni2084" unicode="&#x2084;" 
d="M35 -56v12l203 240h14v-238h65v-14h-65v-96h-16v96h-201zM54 -42h182v215z" />
    <glyph glyph-name="uni2085" unicode="&#x2085;" 
d="M55 -62h15q6 -37 33 -60.5t77 -23.5q46 0 78 29.5t32 72.5q0 48 -31.5 75.5t-78.5 27.5q-62 0 -102 -54l-15 1l13 186h210v-14h-196l-13 -153h2q43 48 103 48q53 0 88.5 -32t35.5 -85q0 -48 -37 -82t-89 -34q-108 0 -125 98z" />
    <glyph glyph-name="uni2086" unicode="&#x2086;" 
d="M297 107h-15q-10 78 -98 78q-52 0 -87 -41.5t-35 -131.5v-17h1q11 35 43.5 56t74.5 21q53 0 88.5 -31.5t35.5 -84.5q0 -48 -37 -82t-88 -34q-59 0 -96.5 40t-37.5 132q0 95 40 141t98 46q51 0 79.5 -25t33.5 -67zM69 -43q0 -15 5 -32q26 -71 106 -71q46 0 77.5 29.5
t31.5 72.5q0 48 -30.5 75t-78.5 27q-46 0 -78.5 -29t-32.5 -72z" />
    <glyph glyph-name="uni2087" unicode="&#x2087;" 
d="M122 -152l169 330h-241v14h259v-10l-171 -334h-16z" />
    <glyph glyph-name="uni2088" unicode="&#x2088;" 
d="M45 -63q0 35 25 60t60 31v1q-31 7 -52 29t-21 52q0 40 35 64.5t84 24.5t84 -24.5t35 -64.5q0 -30 -21 -52t-52 -29v-1q35 -6 60 -31t25 -60q0 -45 -36 -71t-95 -26t-95 26t-36 71zM61 -63q0 -40 31 -61.5t84 -21.5t84 21.5t31 61.5q0 39 -32 62t-83 23t-83 -23t-32 -62z
M73 110q0 -35 29 -55t74 -20t74 20t29 55q0 36 -30 55.5t-73 19.5t-73 -19.5t-30 -55.5z" />
    <glyph glyph-name="uni2089" unicode="&#x2089;" 
d="M58 -68h15q10 -78 98 -78q52 0 87 41.5t35 131.5q0 11 -1 17q-11 -35 -43.5 -56t-74.5 -21q-53 0 -88.5 31.5t-35.5 84.5q0 48 37 82t88 34q59 0 96.5 -40t37.5 -132q0 -95 -40 -141t-98 -46q-51 0 -79.5 25t-33.5 67zM286 82q0 18 -6 31q-27 72 -105 72
q-46 0 -77.5 -29.5t-31.5 -72.5q0 -48 30.5 -75t78.5 -27q46 0 78.5 29t32.5 72z" />
    <glyph glyph-name="parenleft.inferior" unicode="&#x208d;" horiz-adv-x="162" 
d="M140 -224q-32 39 -56 105.5t-24 138.5t24 138.5t56 105.5h14q-30 -37 -55 -105t-25 -139t25 -139t55 -105h-14z" />
    <glyph glyph-name="parenright.inferior" unicode="&#x208e;" horiz-adv-x="162" 
d="M8 -224q30 37 55 105t25 139t-25 139t-55 105h14q32 -39 56 -105.5t24 -138.5t-24 -138.5t-56 -105.5h-14z" />
    <glyph glyph-name="Euro" unicode="&#x20ac;" horiz-adv-x="568" 
d="M35 422l2 13h71q16 119 75.5 190t156.5 71q77 0 126 -46.5t68 -129.5h-16q-38 162 -178 162q-90 0 -145 -66.5t-71 -180.5h236l-2 -13h-236q-4 -33 -4 -78q0 -35 3 -68h223l-1 -13h-220q14 -118 69.5 -187.5t147.5 -69.5q132 0 171 142h15q-42 -156 -186 -156
q-99 0 -159 73.5t-75 197.5h-87l1 13h85q-3 33 -3 68q0 45 4 78h-71z" />
    <glyph glyph-name="afii61289" unicode="&#x2113;" horiz-adv-x="412" 
d="M129 26q-38 41 -38 139v74l-2 1l-59 -41l-12 24q38 31 73 61v136q0 102 18 157t55 89q37 33 85 33q47 0 74 -34.5t27 -93.5q0 -46 -17.5 -89.5t-50 -80.5t-55.5 -58.5t-58 -48.5v-109q0 -138 91 -138q63 0 118 80l22 -16q-24 -58 -68 -90.5t-101 -32.5q-66 0 -102 38z
M171 342q121 103 121 230q0 91 -55 91q-68 0 -68 -179v-141z" />
    <glyph glyph-name="afii61352" unicode="&#x2116;" horiz-adv-x="1088" 
d="M722 516q0 78 44.5 127.5t110.5 49.5q70 0 112.5 -48.5t42.5 -128.5q0 -78 -44.5 -127.5t-110.5 -49.5q-70 0 -112.5 49t-42.5 128zM737 516q0 -73 38.5 -119t101.5 -46q60 0 100 46.5t40 118.5q0 73 -39 119t-101 46q-60 0 -100 -46t-40 -119zM99 0v688h16l458 -660h1
v660h16v-688h-16l-458 660h-1v-660h-16zM722 0v13h310v-13h-310zM722 188v12h310v-12h-310z" />
    <glyph glyph-name="trademark" unicode="&#x2122;" horiz-adv-x="732" 
d="M334 344v344h19l158 -325h1l158 325h19v-344h-15v317h-1l-155 -317h-13l-155 317h-1v-317h-15zM8 674v14h275v-14h-130v-330h-16v330h-129z" />
    <glyph glyph-name="Omega" unicode="&#x2126;" horiz-adv-x="696" 
d="M426 0v169q63 15 121.5 82.5t58.5 168.5q0 113 -75 187.5t-183 74.5t-183 -74.5t-75 -187.5q0 -101 58.5 -168.5t121.5 -82.5v-169h-185v14h169v144q-70 24 -125.5 93t-55.5 169q0 119 80 197.5t195 78.5t195 -78.5t80 -197.5q0 -100 -55.5 -169t-125.5 -93v-144h169v-14
h-185z" />
    <glyph glyph-name="estimated" unicode="&#x212e;" horiz-adv-x="850" 
d="M184 113q98 -103 243 -103q76 0 142 31t113 86h58q-55 -64 -137.5 -101.5t-176.5 -37.5q-165 0 -281 104t-116 252t116.5 252t280.5 104t280 -104t116 -252v-10h-641q-7 0 -7 -4v-194q0 -11 10 -23zM181 355h492q4 0 4 6v193q0 14 -10 24q-98 100 -240 100t-242 -103
q-11 -11 -11 -26v-188q0 -6 7 -6z" />
    <glyph glyph-name="uni2153" unicode="&#x2153;" horiz-adv-x="733" 
d="M427 97h15q0 -46 31.5 -68.5t83.5 -22.5q53 0 84 21.5t31 61.5q0 39 -32 62t-83 23h-32v13h32q45 0 74 20t29 55q0 36 -30 55.5t-73 19.5t-73.5 -23.5t-30.5 -67.5h-14q0 50 34 77.5t84 27.5q49 0 84 -24.5t35 -64.5q0 -30 -21 -52t-52 -29v-1q36 -7 60.5 -31t24.5 -61
q0 -45 -35.5 -70.5t-95.5 -25.5q-58 0 -94 26.5t-36 78.5zM203 -12l351 712h16l-351 -712h-16zM68 603l-6 12l127 73h11v-330h113v-14h-250v14h121v311z" />
    <glyph glyph-name="uni2154" unicode="&#x2154;" horiz-adv-x="733" 
d="M427 97h15q0 -46 31.5 -68.5t83.5 -22.5q53 0 84 21.5t31 61.5q0 39 -32 62t-83 23h-32v13h32q45 0 74 20t29 55q0 36 -30 55.5t-73 19.5t-73.5 -23.5t-30.5 -67.5h-14q0 50 34 77.5t84 27.5q49 0 84 -24.5t35 -64.5q0 -30 -21 -52t-52 -29v-1q36 -7 60.5 -31t24.5 -61
q0 -45 -35.5 -70.5t-95.5 -25.5q-58 0 -94 26.5t-36 78.5zM56 344q2 56 26 87t76 57l43 21q22 11 32.5 17t25.5 17.5t21 25t6 30.5q0 38 -27 59t-76 21t-83 -25.5t-35 -81.5h-15q2 63 40.5 92t92.5 29q55 0 87 -25t32 -69q0 -20 -7 -35t-23 -28t-28 -19.5t-37 -19.5l-42 -21
q-48 -24 -69.5 -49.5t-22.5 -68.5h235v-14h-252zM203 -12l351 712h16l-351 -712h-16z" />
    <glyph glyph-name="uni2155" unicode="&#x2155;" horiz-adv-x="733" 
d="M436 90h15q6 -37 33 -60.5t77 -23.5q46 0 78 29.5t32 72.5q0 48 -31.5 75.5t-78.5 27.5q-62 0 -102 -54l-15 1l13 186h210v-14h-196l-13 -153h2q43 48 103 48q53 0 88.5 -32t35.5 -85q0 -48 -37 -82t-89 -34q-108 0 -125 98zM203 -12l351 712h16l-351 -712h-16zM68 603
l-6 12l127 73h11v-330h113v-14h-250v14h121v311z" />
    <glyph glyph-name="uni2156" unicode="&#x2156;" horiz-adv-x="733" 
d="M436 90h15q6 -37 33 -60.5t77 -23.5q46 0 78 29.5t32 72.5q0 48 -31.5 75.5t-78.5 27.5q-62 0 -102 -54l-15 1l13 186h210v-14h-196l-13 -153h2q43 48 103 48q53 0 88.5 -32t35.5 -85q0 -48 -37 -82t-89 -34q-108 0 -125 98zM56 344q2 56 26 87t76 57l43 21
q22 11 32.5 17t25.5 17.5t21 25t6 30.5q0 38 -27 59t-76 21t-83 -25.5t-35 -81.5h-15q2 63 40.5 92t92.5 29q55 0 87 -25t32 -69q0 -20 -7 -35t-23 -28t-28 -19.5t-37 -19.5l-42 -21q-48 -24 -69.5 -49.5t-22.5 -68.5h235v-14h-252zM203 -12l351 712h16l-351 -712h-16z" />
    <glyph glyph-name="uni2157" unicode="&#x2157;" horiz-adv-x="733" 
d="M436 90h15q6 -37 33 -60.5t77 -23.5q46 0 78 29.5t32 72.5q0 48 -31.5 75.5t-78.5 27.5q-62 0 -102 -54l-15 1l13 186h210v-14h-196l-13 -153h2q43 48 103 48q53 0 88.5 -32t35.5 -85q0 -48 -37 -82t-89 -34q-108 0 -125 98zM46 441h15q0 -46 31.5 -68.5t83.5 -22.5
q53 0 84 21.5t31 61.5q0 39 -32 62t-83 23h-32v13h32q45 0 74 20t29 55q0 36 -30 55.5t-73 19.5t-73.5 -23.5t-30.5 -67.5h-14q0 50 34 77.5t84 27.5q49 0 84 -24.5t35 -64.5q0 -30 -21 -52t-52 -29v-1q36 -7 60.5 -31t24.5 -61q0 -45 -35.5 -70.5t-95.5 -25.5
q-58 0 -94 26.5t-36 78.5zM179 -12l351 712h16l-351 -712h-16z" />
    <glyph glyph-name="uni2158" unicode="&#x2158;" horiz-adv-x="733" 
d="M35 440v12l203 240h14v-238h65v-14h-65v-96h-16v96h-201zM54 454h182v215zM436 90h15q6 -37 33 -60.5t77 -23.5q46 0 78 29.5t32 72.5q0 48 -31.5 75.5t-78.5 27.5q-62 0 -102 -54l-15 1l13 186h210v-14h-196l-13 -153h2q43 48 103 48q53 0 88.5 -32t35.5 -85
q0 -48 -37 -82t-89 -34q-108 0 -125 98zM183 -12l351 712h16l-351 -712h-16z" />
    <glyph glyph-name="uni2159" unicode="&#x2159;" horiz-adv-x="733" 
d="M678 259h-15q-10 78 -98 78q-52 0 -87 -41.5t-35 -131.5v-17h1q11 35 43.5 56t74.5 21q53 0 88.5 -31.5t35.5 -84.5q0 -48 -37 -82t-88 -34q-59 0 -96.5 40t-37.5 132q0 95 40 141t98 46q51 0 79.5 -25t33.5 -67zM455 77q15 -35 39 -53t67 -18q46 0 77.5 29.5t31.5 72.5
q0 48 -30.5 75t-78.5 27q-46 0 -78.5 -29t-32.5 -72q0 -20 5 -32zM211 -12l351 712h16l-351 -712h-16zM68 603l-6 12l127 73h11v-330h113v-14h-250v14h121v311z" />
    <glyph glyph-name="uni215A" unicode="&#x215a;" horiz-adv-x="733" 
d="M678 259h-15q-10 78 -98 78q-52 0 -87 -41.5t-35 -131.5v-17h1q11 35 43.5 56t74.5 21q53 0 88.5 -31.5t35.5 -84.5q0 -48 -37 -82t-88 -34q-59 0 -96.5 40t-37.5 132q0 95 40 141t98 46q51 0 79.5 -25t33.5 -67zM450 109q0 -42 31 -72.5t80 -30.5q46 0 77.5 29.5
t31.5 72.5q0 48 -30.5 75t-78.5 27q-46 0 -78.5 -29t-32.5 -72zM55 434h15q6 -37 33 -60.5t77 -23.5q46 0 78 29.5t32 72.5q0 48 -31.5 75.5t-78.5 27.5q-62 0 -102 -54l-15 1l13 186h210v-14h-196l-13 -153h2q43 48 103 48q53 0 88.5 -32t35.5 -85q0 -48 -37 -82t-89 -34
q-108 0 -125 98zM183 -12l351 712h16l-351 -712h-16z" />
    <glyph glyph-name="uni215B" unicode="&#x215b;" horiz-adv-x="733" 
d="M426 89q0 35 25 60t60 31v1q-31 7 -52 29t-21 52q0 40 35 64.5t84 24.5t84 -24.5t35 -64.5q0 -30 -21 -52t-52 -29v-1q35 -6 60 -31t25 -60q0 -45 -36 -71t-95 -26t-95 26t-36 71zM442 89q0 -40 31 -61.5t84 -21.5t84 21.5t31 61.5q0 39 -32 62t-83 23t-83 -23t-32 -62z
M454 262q0 -35 29 -55t74 -20t74 20t29 55q0 36 -30 55.5t-73 19.5t-73 -19.5t-30 -55.5zM203 -12l351 712h16l-351 -712h-16zM68 603l-6 12l127 73h11v-330h113v-14h-250v14h121v311z" />
    <glyph glyph-name="uni215C" unicode="&#x215c;" horiz-adv-x="733" 
d="M426 89q0 35 25 60t60 31v1q-31 7 -52 29t-21 52q0 40 35 64.5t84 24.5t84 -24.5t35 -64.5q0 -30 -21 -52t-52 -29v-1q35 -6 60 -31t25 -60q0 -45 -36 -71t-95 -26t-95 26t-36 71zM442 89q0 -40 31 -61.5t84 -21.5t84 21.5t31 61.5q0 39 -32 62t-83 23t-83 -23t-32 -62z
M454 262q0 -35 29 -55t74 -20t74 20t29 55q0 36 -30 55.5t-73 19.5t-73 -19.5t-30 -55.5zM46 441h15q0 -46 31.5 -68.5t83.5 -22.5q53 0 84 21.5t31 61.5q0 39 -32 62t-83 23h-32v13h32q45 0 74 20t29 55q0 36 -30 55.5t-73 19.5t-73.5 -23.5t-30.5 -67.5h-14q0 50 34 77.5
t84 27.5q49 0 84 -24.5t35 -64.5q0 -30 -21 -52t-52 -29v-1q36 -7 60.5 -31t24.5 -61q0 -45 -35.5 -70.5t-95.5 -25.5q-58 0 -94 26.5t-36 78.5zM183 -12l351 712h16l-351 -712h-16z" />
    <glyph glyph-name="uni215D" unicode="&#x215d;" horiz-adv-x="733" 
d="M426 89q0 35 25 60t60 31v1q-31 7 -52 29t-21 52q0 40 35 64.5t84 24.5t84 -24.5t35 -64.5q0 -30 -21 -52t-52 -29v-1q35 -6 60 -31t25 -60q0 -45 -36 -71t-95 -26t-95 26t-36 71zM442 89q0 -40 31 -61.5t84 -21.5t84 21.5t31 61.5q0 39 -32 62t-83 23t-83 -23t-32 -62z
M454 262q0 -35 29 -55t74 -20t74 20t29 55q0 36 -30 55.5t-73 19.5t-73 -19.5t-30 -55.5zM55 434h15q6 -37 33 -60.5t77 -23.5q46 0 78 29.5t32 72.5q0 48 -31.5 75.5t-78.5 27.5q-62 0 -102 -54l-15 1l13 186h210v-14h-196l-13 -153h2q43 48 103 48q53 0 88.5 -32t35.5 -85
q0 -48 -37 -82t-89 -34q-108 0 -125 98zM183 -12l351 712h16l-351 -712h-16z" />
    <glyph glyph-name="uni215E" unicode="&#x215e;" horiz-adv-x="733" 
d="M426 89q0 35 25 60t60 31v1q-31 7 -52 29t-21 52q0 40 35 64.5t84 24.5t84 -24.5t35 -64.5q0 -30 -21 -52t-52 -29v-1q35 -6 60 -31t25 -60q0 -45 -36 -71t-95 -26t-95 26t-36 71zM442 89q0 -40 31 -61.5t84 -21.5t84 21.5t31 61.5q0 39 -32 62t-83 23t-83 -23t-32 -62z
M454 262q0 -35 29 -55t74 -20t74 20t29 55q0 36 -30 55.5t-73 19.5t-73 -19.5t-30 -55.5zM151 -12l351 712h16l-351 -712h-16zM122 344l169 330h-241v14h259v-10l-171 -334h-16z" />
    <glyph glyph-name="uni2190" unicode="&#x2190;" horiz-adv-x="660" 
d="M266 34l-10 -9l-228 227l228 227l10 -9l-213 -212q6 1 147 1h432v-14h-432q-141 0 -147 1z" />
    <glyph glyph-name="uni2191" unicode="&#x2191;" horiz-adv-x="660" 
d="M112 316l-9 10l227 228l227 -228l-9 -10l-212 213q1 -6 1 -147v-432h-14v432q0 141 1 147z" />
    <glyph glyph-name="uni2192" unicode="&#x2192;" horiz-adv-x="660" 
d="M404 25l-10 9l213 212q-6 -1 -147 -1h-432v14h432q141 0 147 -1l-213 212l10 9l228 -227z" />
    <glyph glyph-name="uni2193" unicode="&#x2193;" horiz-adv-x="660" 
d="M548 188l9 -10l-227 -228l-227 228l9 10l212 -213q-1 6 -1 147v432h14v-432q0 -141 -1 -147z" />
    <glyph glyph-name="uni2196" unicode="&#x2196;" horiz-adv-x="660" 
d="M116 466h322v-13h-299q4 -3 90 -90t88 -89l229 -229l-9 -9l-229 229q-1 1 -89 88.5t-90 90.5v-300h-13v322z" />
    <glyph glyph-name="uni2197" unicode="&#x2197;" horiz-adv-x="660" 
d="M224 453v13h322v-322h-13v300q-2 -3 -90 -90.5t-89 -88.5l-229 -229l-9 9l229 229q2 3 178 179h-299z" />
    <glyph glyph-name="uni2198" unicode="&#x2198;" horiz-adv-x="660" 
d="M224 36v13h299l-178 179l-229 229l9 9l229 -229l18 -19q19 -18 44.5 -43.5t52 -51t45 -44.5t19.5 -20v299h13v-322h-322z" />
    <glyph glyph-name="uni2199" unicode="&#x2199;" horiz-adv-x="660" 
d="M139 49h299v-13h-322v322h13v-299q1 1 19.5 20t45 44.5t52 51t44.5 43.5l18 19l229 229l9 -9l-229 -229l-19 -18q-18 -19 -43.5 -44.5t-51 -52t-44.5 -45t-20 -19.5z" />
    <glyph glyph-name="partialdiff" unicode="&#x2202;" horiz-adv-x="568" 
d="M38 192q0 107 68.5 177.5t175.5 70.5q47 0 90 -17t77.5 -61t38.5 -108q16 78 16 157q0 139 -55.5 205t-142.5 66q-83 0 -134 -45t-68 -121h-16q18 82 73.5 131t145.5 49q93 0 153 -70t60 -215q0 -77 -13.5 -146t-43 -133t-86.5 -102t-135 -38q-88 0 -146 54.5t-58 145.5z
M243 6q58 0 105.5 25t74 61.5t40.5 72.5t14 65q0 55 -20 96t-52 61.5t-63 29.5t-60 9q-100 0 -164 -66.5t-64 -167.5q0 -84 54 -135t135 -51z" />
    <glyph glyph-name="Delta" unicode="&#x2206;" horiz-adv-x="590" 
d="M31 0l254 688h20l254 -688h-528zM295 673l-242 -659h484z" />
    <glyph glyph-name="product" unicode="&#x220f;" horiz-adv-x="677" 
d="M99 0v688h479v-688h-16v674h-447v-674h-16z" />
    <glyph glyph-name="summation" unicode="&#x2211;" horiz-adv-x="496" 
d="M31 0v9l236 335l-235 334v10h431v-14h-409l232 -329l-234 -331h420v-14h-441z" />
    <glyph glyph-name="minus" unicode="&#x2212;" horiz-adv-x="568" 
d="M60 246v14h448v-14h-448z" />
    <glyph glyph-name="uni2215" unicode="&#x2215;" horiz-adv-x="72" 
d="M-144 -12l353 712h15l-353 -712h-15z" />
    <glyph glyph-name="uni2219" unicode="&#x2219;" horiz-adv-x="192" 
d="M87 203v98h18v-98h-18z" />
    <glyph glyph-name="radical" unicode="&#x221a;" horiz-adv-x="588" 
d="M42 354v15l108 33l163 -382h1l245 668h16l-252 -688h-19l-165 384z" />
    <glyph glyph-name="infinity" unicode="&#x221e;" horiz-adv-x="708" 
d="M168 99q-63 0 -102.5 44t-39.5 109t39.5 109t102.5 44q99 0 186 -142q87 142 186 142q63 0 102.5 -44t39.5 -109t-39.5 -109t-102.5 -44q-98 0 -186 141q-90 -141 -186 -141zM168 113q90 0 177 139q-87 139 -177 139q-57 0 -92 -40t-35 -99t35 -99t92 -40zM363 252
q90 -139 177 -139q57 0 92 40t35 99t-35 99t-92 40q-87 0 -177 -139z" />
    <glyph glyph-name="integral" unicode="&#x222b;" horiz-adv-x="364" 
d="M32 -138h31q73 0 104 46t25 143l-36 542q-12 201 144 201h32v-14h-31q-73 0 -104 -45.5t-25 -142.5l36 -542q12 -202 -144 -202h-32v14z" />
    <glyph glyph-name="approxequal" unicode="&#x2248;" horiz-adv-x="568" 
d="M81 291q0 58 26 89t70 31q28 0 58 -15.5t51.5 -34t50 -34t54.5 -15.5q38 0 59.5 27t21.5 79h15q0 -58 -25.5 -89t-69.5 -31q-36 0 -73.5 25t-73.5 49.5t-68 24.5q-38 0 -59.5 -27t-21.5 -79h-15zM81 90q0 58 26 89t70 31q28 0 58 -15.5t51.5 -33.5t50 -33.5t54.5 -15.5
q38 0 59.5 26.5t21.5 78.5h15q0 -58 -25.5 -88.5t-69.5 -30.5q-28 0 -58.5 15.5t-52 34t-50 34t-54.5 15.5q-38 0 -59.5 -27.5t-21.5 -79.5h-15z" />
    <glyph glyph-name="notequal" unicode="&#x2260;" horiz-adv-x="568" 
d="M60 352v14h274l87 156l13 -8l-82 -148h156v-14h-164l-108 -196h272v-14h-280l-86 -156l-13 8l82 148h-151v14h158l109 196h-267z" />
    <glyph glyph-name="lessequal" unicode="&#x2264;" horiz-adv-x="568" 
d="M76 277v15l416 180v-16l-401 -172l401 -172v-15zM76 0v14h416v-14h-416z" />
    <glyph glyph-name="greaterequal" unicode="&#x2265;" horiz-adv-x="568" 
d="M492 292v-15l-416 -180v15l399 172l-399 172v16zM76 0v14h416v-14h-416z" />
    <glyph glyph-name="uni25A0" unicode="&#x25a0;" horiz-adv-x="688" 
d="M0 0v688h688v-688h-688z" />
    <glyph glyph-name="uni25A1" unicode="&#x25a1;" horiz-adv-x="688" 
d="M0 0v688h688v-688h-688zM15 14h658v660h-658v-660z" />
    <glyph glyph-name="uni25B6" unicode="&#x25b6;" horiz-adv-x="495" 
d="M44 -12v512l439 -256z" />
    <glyph glyph-name="uni25B7" unicode="&#x25b7;" horiz-adv-x="495" 
d="M44 -12v512l439 -256zM59 13l398 231l-398 231v-462z" />
    <glyph glyph-name="uni25C0" unicode="&#x25c0;" horiz-adv-x="495" 
d="M12 244l439 256v-512z" />
    <glyph glyph-name="uni25C1" unicode="&#x25c1;" horiz-adv-x="495" 
d="M12 244l439 256v-512zM38 244l398 -231v462z" />
    <glyph glyph-name="lozenge" unicode="&#x25ca;" horiz-adv-x="637" 
d="M312 0l-271 344l271 344h17l266 -344l-266 -344h-17zM577 344l-257 330l-260 -330l260 -332z" />
    <glyph glyph-name="uni25CB" unicode="&#x25cb;" horiz-adv-x="552" 
d="M31 244q0 105 71.5 178.5t173.5 73.5q103 0 174 -72.5t71 -179.5q0 -105 -71.5 -178.5t-173.5 -73.5q-103 0 -174 72.5t-71 179.5zM46 244q0 -102 66.5 -170t163.5 -68t163.5 69t66.5 169q0 102 -66.5 170t-163.5 68t-163.5 -69t-66.5 -169z" />
    <glyph glyph-name="uni25CF" unicode="&#x25cf;" horiz-adv-x="552" 
d="M31 244q0 105 71.5 178.5t173.5 73.5q103 0 174 -72.5t71 -179.5q0 -105 -71.5 -178.5t-173.5 -73.5q-103 0 -174 72.5t-71 179.5z" />
    <glyph glyph-name="uni25FB" unicode="&#x25fb;" horiz-adv-x="488" 
d="M0 0v488h488v-488h-488zM15 14h458v461h-458v-461z" />
    <glyph glyph-name="uni25FC" unicode="&#x25fc;" horiz-adv-x="488" 
d="M0 0v488h488v-488h-488z" />
    <glyph glyph-name="uni2605" unicode="&#x2605;" horiz-adv-x="546" 
d="M106 13l68 183l-162 108l5 16l195 -9l53 189h16l52 -189l196 9l5 -16l-163 -108l69 -183l-14 -10l-153 121l-153 -121z" />
    <glyph glyph-name="dotlessi.sc" unicode="&#xe08e;" horiz-adv-x="214" 
d="M99 0v520h16v-520h-16z" />
    <glyph glyph-name="g.superior" unicode="&#xe0a3;" horiz-adv-x="402" 
d="M47 454h15q0 -50 35 -77t91 -27q66 0 102 36t35 120v89h-1q-15 -48 -52.5 -76t-83.5 -28q-67 0 -108 48.5t-41 128.5q0 78 43 127.5t106 49.5q49 0 85.5 -27.5t50.5 -74.5h1v97h15v-335q0 -169 -152 -169q-62 0 -101 30.5t-40 87.5zM55 668q0 -73 37 -118t97 -45
q55 0 94 43t41 112v15q-2 70 -40 113t-95 43q-58 0 -96 -45t-38 -118z" />
    <glyph glyph-name="germandbls.sc" unicode="&#xe0a4;" horiz-adv-x="984" 
d="M55 141h16q0 -65 50 -100t132 -35q78 0 122.5 36.5t44.5 97.5q0 52 -36.5 79t-88 35.5t-103.5 17.5t-88.5 38t-36.5 84q0 59 49.5 96.5t133.5 37.5q83 0 132.5 -39t49.5 -99h-16q0 54 -45 89t-121 35q-78 0 -122.5 -33t-44.5 -87q0 -51 36.5 -77t88.5 -34.5t104 -17.5
t88.5 -38.5t36.5 -85.5q0 -67 -49.5 -108t-134.5 -41q-88 0 -143 39.5t-55 109.5zM547 141h16q0 -65 50 -100t132 -35q78 0 122.5 36.5t44.5 97.5q0 52 -36.5 79t-88 35.5t-103.5 17.5t-88.5 38t-36.5 84q0 59 49.5 96.5t133.5 37.5q83 0 132.5 -39t49.5 -99h-16
q0 54 -45 89t-121 35q-78 0 -122.5 -33t-44.5 -87q0 -51 36.5 -77t88.5 -34.5t104 -17.5t88.5 -38.5t36.5 -85.5q0 -67 -49.5 -108t-134.5 -41q-88 0 -143 39.5t-55 109.5z" />
    <glyph glyph-name="onesuperior" unicode="&#xe105;" 
d="M68 755l-6 12l127 73h11v-330h113v-14h-250v14h121v311z" />
    <glyph glyph-name="twosuperior" unicode="&#xe107;" 
d="M56 496q2 56 26 87t76 57l43 21q22 11 32.5 17t25.5 17.5t21 25t6 30.5q0 38 -27 59t-76 21t-83 -25.5t-35 -81.5h-15q2 63 40.5 92t92.5 29q55 0 87 -25t32 -69q0 -20 -7 -35t-23 -28t-28 -19.5t-37 -19.5l-42 -21q-48 -24 -69.5 -49.5t-22.5 -68.5h235v-14h-252z" />
    <glyph glyph-name="threesuperior" unicode="&#xe108;" 
d="M46 593h15q0 -46 31.5 -68.5t83.5 -22.5q53 0 84 21.5t31 61.5q0 39 -32 62t-83 23h-32v13h32q45 0 74 20t29 55q0 36 -30 55.5t-73 19.5t-73.5 -23.5t-30.5 -67.5h-14q0 50 34 77.5t84 27.5q49 0 84 -24.5t35 -64.5q0 -30 -21 -52t-52 -29v-1q36 -7 60.5 -31t24.5 -61
q0 -45 -35.5 -70.5t-95.5 -25.5q-58 0 -94 26.5t-36 78.5z" />
    <glyph glyph-name="cent.denominator" unicode="&#xf629;" 
d="M54 172q0 55 35 90.5t92 37.5v48h13v-48q44 -2 75 -26t36 -59h-16q-5 31 -33 51t-68 20q-53 0 -85.5 -31t-32.5 -83q0 -51 32.5 -82t85.5 -31q40 0 68 19.5t33 50.5h16q-5 -35 -36 -59t-75 -25v-49h-13v49q-57 2 -92 37t-35 90z" />
    <glyph glyph-name="dollar.denominator" unicode="&#xf62a;" 
d="M50 96h14q4 -42 35.5 -64t80.5 -22q47 0 77 21.5t30 60.5q0 33 -23.5 50t-57.5 23t-68 12.5t-57.5 25.5t-23.5 55q0 38 31 63.5t81 27.5v54h14v-54q46 -2 76.5 -26t34.5 -67h-15q-4 39 -32.5 59t-70.5 20q-46 0 -75 -21t-29 -55q0 -32 24 -48.5t58 -22.5t67.5 -12.5
t57.5 -26.5t24 -56q0 -43 -33 -69t-84 -28v-60h-13v60q-53 2 -87 28t-36 72z" />
    <glyph glyph-name="hyphen.denominator" unicode="&#xf62b;" horiz-adv-x="277" 
d="M41 166v13h195v-13h-195z" />
    <glyph glyph-name="parenleft.denominator" unicode="&#xf62c;" horiz-adv-x="162" 
d="M140 -72q-32 39 -56 105.5t-24 138.5t24 138.5t56 105.5h14q-30 -37 -55 -105t-25 -139t25 -139t55 -105h-14z" />
    <glyph glyph-name="parenright.denominator" unicode="&#xf62d;" horiz-adv-x="162" 
d="M8 -72q30 37 55 105t25 139t-25 139t-55 105h14q32 -39 56 -105.5t24 -138.5t-24 -138.5t-56 -105.5h-14z" />
    <glyph glyph-name="cent.numerator" unicode="&#xf62e;" 
d="M54 516q0 55 35 90.5t92 37.5v48h13v-48q44 -2 75 -26t36 -59h-16q-5 31 -33 51t-68 20q-53 0 -85.5 -31t-32.5 -83q0 -51 32.5 -82t85.5 -31q40 0 68 19.5t33 50.5h16q-5 -35 -36 -59t-75 -25v-49h-13v49q-57 2 -92 37t-35 90z" />
    <glyph glyph-name="dollar.numerator" unicode="&#xf62f;" 
d="M50 440h14q4 -42 35.5 -64t80.5 -22q47 0 77 21.5t30 60.5q0 33 -23.5 50t-57.5 23t-68 12.5t-57.5 25.5t-23.5 55q0 38 31 63.5t81 27.5v54h14v-54q46 -2 76.5 -26t34.5 -67h-15q-4 39 -32.5 59t-70.5 20q-46 0 -75 -21t-29 -55q0 -32 24 -48.5t58 -22.5t67.5 -12.5
t57.5 -26.5t24 -56q0 -43 -33 -69t-84 -28v-60h-13v60q-53 2 -87 28t-36 72z" />
    <glyph glyph-name="hyphen.numerator" unicode="&#xf630;" horiz-adv-x="277" 
d="M41 510v13h195v-13h-195z" />
    <glyph glyph-name="parenleft.numerator" unicode="&#xf631;" horiz-adv-x="162" 
d="M140 272q-32 39 -56 105.5t-24 138.5t24 138.5t56 105.5h14q-30 -37 -55 -105t-25 -139t25 -139t55 -105h-14z" />
    <glyph glyph-name="parenright.numerator" unicode="&#xf632;" horiz-adv-x="162" 
d="M8 272q30 37 55 105t25 139t-25 139t-55 105h14q32 -39 56 -105.5t24 -138.5t-24 -138.5t-56 -105.5h-14z" />
    <glyph glyph-name="h.superior" unicode="&#xf637;" horiz-adv-x="390" 
d="M62 496v516h16v-115q0 -1 -0.5 -73.5t-0.5 -76.5h2q14 47 49 72.5t78 25.5q57 0 91.5 -35t34.5 -108v-206h-16v205q0 130 -112 130q-51 0 -88.5 -41t-37.5 -117v-177h-16z" />
    <glyph glyph-name="zero.denominator" unicode="&#xf655;" 
d="M176 -7q-64 0 -99 50.5t-35 128.5t35 128.5t99 50.5t99 -50.5t35 -128.5t-35 -128.5t-99 -50.5zM176 7q57 0 87.5 45.5t30.5 119.5t-30.5 119.5t-87.5 45.5t-87.5 -46t-30.5 -119t30.5 -119t87.5 -46z" />
    <glyph glyph-name="one.denominator" unicode="&#xf656;" 
d="M68 259l-6 12l127 73h11v-330h113v-14h-250v14h121v311z" />
    <glyph glyph-name="two.denominator" unicode="&#xf657;" 
d="M56 0q2 56 26 87t76 57l43 21q22 11 32.5 17t25.5 17.5t21 25t6 30.5q0 38 -27 59t-76 21t-83 -25.5t-35 -81.5h-15q2 63 40.5 92t92.5 29q55 0 87 -25t32 -69q0 -20 -7 -35t-23 -28t-28 -19.5t-37 -19.5l-42 -21q-48 -24 -69.5 -49.5t-22.5 -68.5h235v-14h-252z" />
    <glyph glyph-name="three.denominator" unicode="&#xf658;" 
d="M46 97h15q0 -46 31.5 -68.5t83.5 -22.5q53 0 84 21.5t31 61.5q0 39 -32 62t-83 23h-32v13h32q45 0 74 20t29 55q0 36 -30 55.5t-73 19.5t-73.5 -23.5t-30.5 -67.5h-14q0 50 34 77.5t84 27.5q49 0 84 -24.5t35 -64.5q0 -30 -21 -52t-52 -29v-1q36 -7 60.5 -31t24.5 -61
q0 -45 -35.5 -70.5t-95.5 -25.5q-58 0 -94 26.5t-36 78.5z" />
    <glyph glyph-name="four.denominator" unicode="&#xf659;" 
d="M35 96v12l203 240h14v-238h65v-14h-65v-96h-16v96h-201zM54 110h182v215z" />
    <glyph glyph-name="five.denominator" unicode="&#xf65a;" 
d="M55 90h15q6 -37 33 -60.5t77 -23.5q46 0 78 29.5t32 72.5q0 48 -31.5 75.5t-78.5 27.5q-62 0 -102 -54l-15 1l13 186h210v-14h-196l-13 -153h2q43 48 103 48q53 0 88.5 -32t35.5 -85q0 -48 -37 -82t-89 -34q-108 0 -125 98z" />
    <glyph glyph-name="six.denominator" unicode="&#xf65b;" 
d="M297 259h-15q-10 78 -98 78q-52 0 -87 -41.5t-35 -131.5v-17h1q11 35 43.5 56t74.5 21q53 0 88.5 -31.5t35.5 -84.5q0 -48 -37 -82t-88 -34q-59 0 -96.5 40t-37.5 132q0 95 40 141t98 46q51 0 79.5 -25t33.5 -67zM69 109q0 -15 5 -32q26 -71 106 -71q46 0 77.5 29.5
t31.5 72.5q0 48 -30.5 75t-78.5 27q-46 0 -78.5 -29t-32.5 -72z" />
    <glyph glyph-name="seven.denominator" unicode="&#xf65c;" 
d="M122 0l169 330h-241v14h259v-10l-171 -334h-16z" />
    <glyph glyph-name="eight.denominator" unicode="&#xf65d;" 
d="M45 89q0 35 25 60t60 31v1q-31 7 -52 29t-21 52q0 40 35 64.5t84 24.5t84 -24.5t35 -64.5q0 -30 -21 -52t-52 -29v-1q35 -6 60 -31t25 -60q0 -45 -36 -71t-95 -26t-95 26t-36 71zM61 89q0 -40 31 -61.5t84 -21.5t84 21.5t31 61.5q0 39 -32 62t-83 23t-83 -23t-32 -62z
M73 262q0 -35 29 -55t74 -20t74 20t29 55q0 36 -30 55.5t-73 19.5t-73 -19.5t-30 -55.5z" />
    <glyph glyph-name="nine.denominator" unicode="&#xf65e;" 
d="M58 84h15q10 -78 98 -78q52 0 87 41.5t35 131.5q0 11 -1 17q-11 -35 -43.5 -56t-74.5 -21q-53 0 -88.5 31.5t-35.5 84.5q0 48 37 82t88 34q59 0 96.5 -40t37.5 -132q0 -95 -40 -141t-98 -46q-51 0 -79.5 25t-33.5 67zM286 234q0 18 -6 31q-27 72 -105 72
q-46 0 -77.5 -29.5t-31.5 -72.5q0 -48 30.5 -75t78.5 -27q46 0 78.5 29t32.5 72z" />
    <glyph glyph-name="comma.denominator" unicode="&#xf65f;" horiz-adv-x="141" 
d="M62 0v61h16v-61l-25 -98h-9l22 98h-4z" />
    <glyph glyph-name="period.denominator" unicode="&#xf660;" horiz-adv-x="141" 
d="M62 0v61h16v-61h-16z" />
    <glyph glyph-name="zero.numerator" unicode="&#xf661;" 
d="M176 337q-64 0 -99 50.5t-35 128.5t35 128.5t99 50.5t99 -50.5t35 -128.5t-35 -128.5t-99 -50.5zM176 351q57 0 87.5 45.5t30.5 119.5t-30.5 119.5t-87.5 45.5t-87.5 -46t-30.5 -119t30.5 -119t87.5 -46z" />
    <glyph glyph-name="one.numerator" unicode="&#xf662;" 
d="M68 603l-6 12l127 73h11v-330h113v-14h-250v14h121v311z" />
    <glyph glyph-name="two.numerator" unicode="&#xf663;" 
d="M56 344q2 56 26 87t76 57l43 21q22 11 32.5 17t25.5 17.5t21 25t6 30.5q0 38 -27 59t-76 21t-83 -25.5t-35 -81.5h-15q2 63 40.5 92t92.5 29q55 0 87 -25t32 -69q0 -20 -7 -35t-23 -28t-28 -19.5t-37 -19.5l-42 -21q-48 -24 -69.5 -49.5t-22.5 -68.5h235v-14h-252z" />
    <glyph glyph-name="three.numerator" unicode="&#xf664;" 
d="M46 441h15q0 -46 31.5 -68.5t83.5 -22.5q53 0 84 21.5t31 61.5q0 39 -32 62t-83 23h-32v13h32q45 0 74 20t29 55q0 36 -30 55.5t-73 19.5t-73.5 -23.5t-30.5 -67.5h-14q0 50 34 77.5t84 27.5q49 0 84 -24.5t35 -64.5q0 -30 -21 -52t-52 -29v-1q36 -7 60.5 -31t24.5 -61
q0 -45 -35.5 -70.5t-95.5 -25.5q-58 0 -94 26.5t-36 78.5z" />
    <glyph glyph-name="four.numerator" unicode="&#xf665;" 
d="M35 440v12l203 240h14v-238h65v-14h-65v-96h-16v96h-201zM54 454h182v215z" />
    <glyph glyph-name="five.numerator" unicode="&#xf666;" 
d="M55 434h15q6 -37 33 -60.5t77 -23.5q46 0 78 29.5t32 72.5q0 48 -31.5 75.5t-78.5 27.5q-62 0 -102 -54l-15 1l13 186h210v-14h-196l-13 -153h2q43 48 103 48q53 0 88.5 -32t35.5 -85q0 -48 -37 -82t-89 -34q-108 0 -125 98z" />
    <glyph glyph-name="six.numerator" unicode="&#xf667;" 
d="M297 603h-15q-10 78 -98 78q-52 0 -87 -41.5t-35 -131.5v-17h1q11 35 43.5 56t74.5 21q53 0 88.5 -31.5t35.5 -84.5q0 -48 -37 -82t-88 -34q-59 0 -96.5 40t-37.5 132q0 95 40 141t98 46q51 0 79.5 -25t33.5 -67zM69 453q0 -15 5 -32q26 -71 106 -71q46 0 77.5 29.5
t31.5 72.5q0 48 -30.5 75t-78.5 27q-46 0 -78.5 -29t-32.5 -72z" />
    <glyph glyph-name="seven.numerator" unicode="&#xf668;" 
d="M122 344l169 330h-241v14h259v-10l-171 -334h-16z" />
    <glyph glyph-name="eight.numerator" unicode="&#xf669;" 
d="M45 433q0 35 25 60t60 31v1q-31 7 -52 29t-21 52q0 40 35 64.5t84 24.5t84 -24.5t35 -64.5q0 -30 -21 -52t-52 -29v-1q35 -6 60 -31t25 -60q0 -45 -36 -71t-95 -26t-95 26t-36 71zM61 433q0 -40 31 -61.5t84 -21.5t84 21.5t31 61.5q0 39 -32 62t-83 23t-83 -23t-32 -62z
M73 606q0 -35 29 -55t74 -20t74 20t29 55q0 36 -30 55.5t-73 19.5t-73 -19.5t-30 -55.5z" />
    <glyph glyph-name="nine.numerator" unicode="&#xf66a;" 
d="M58 428h15q10 -78 98 -78q52 0 87 41.5t35 131.5q0 11 -1 17q-11 -35 -43.5 -56t-74.5 -21q-53 0 -88.5 31.5t-35.5 84.5q0 48 37 82t88 34q59 0 96.5 -40t37.5 -132q0 -95 -40 -141t-98 -46q-51 0 -79.5 25t-33.5 67zM286 578q0 18 -6 31q-27 72 -105 72
q-46 0 -77.5 -29.5t-31.5 -72.5q0 -48 30.5 -75t78.5 -27q46 0 78.5 29t32.5 72z" />
    <glyph glyph-name="comma.numerator" unicode="&#xf66b;" horiz-adv-x="141" 
d="M62 344v61h16v-61l-25 -98h-9l22 98h-4z" />
    <glyph glyph-name="period.numerator" unicode="&#xf66c;" horiz-adv-x="141" 
d="M62 344v61h16v-61h-16z" />
    <glyph glyph-name="abreve.sc" unicode="&#xf66d;" horiz-adv-x="466" 
d="M15 0l209 520h18l209 -520h-17l-73 180h-257l-72 -180h-17zM232 501l-123 -307h247l-123 307h-1zM233 626q-50 0 -84 29t-42 90h13q16 -106 113 -106t113 106h13q-8 -61 -42 -90t-84 -29z" />
    <glyph glyph-name="amacron.sc" unicode="&#xf66e;" horiz-adv-x="466" 
d="M15 0l209 520h18l209 -520h-17l-73 180h-257l-72 -180h-17zM232 501l-123 -307h247l-123 307h-1zM97 674v12h276v-12h-276z" />
    <glyph glyph-name="aogonek.sc" unicode="&#xf66f;" horiz-adv-x="466" 
d="M372 -128q0 57 62 128l-73 180h-257l-72 -180h-17l209 520h18l209 -520h-1q-63 -73 -63 -126q0 -66 73 -66h37v-14h-38q-43 0 -65 21.5t-22 56.5zM232 501l-123 -307h247l-123 307h-1z" />
    <glyph glyph-name="aeacute.sc" unicode="&#xf670;" horiz-adv-x="819" 
d="M7 0l411 520h351v-14h-332v-233h272v-14h-272v-245h340v-14h-356v133h-291l-104 -133h-19zM141 147h280v356zM421 600l110 164h20l-116 -164h-14z" />
    <glyph glyph-name="cacute.sc" unicode="&#xf671;" horiz-adv-x="573" 
d="M52 260q0 111 69.5 189.5t179.5 78.5q87 0 145 -43.5t80 -117.5h-15q-22 68 -75.5 107.5t-134.5 39.5q-103 0 -168 -74.5t-65 -179.5t65 -179.5t168 -74.5q80 0 133.5 39.5t76.5 108.5h15q-24 -75 -81.5 -118.5t-143.5 -43.5q-110 0 -179.5 78.5t-69.5 189.5zM291 600
l110 164h20l-116 -164h-14z" />
    <glyph glyph-name="ccaron.sc" unicode="&#xf672;" horiz-adv-x="573" 
d="M52 260q0 111 69.5 189.5t179.5 78.5q87 0 145 -43.5t80 -117.5h-15q-22 68 -75.5 107.5t-134.5 39.5q-103 0 -168 -74.5t-65 -179.5t65 -179.5t168 -74.5q80 0 133.5 39.5t76.5 108.5h15q-24 -75 -81.5 -118.5t-143.5 -43.5q-110 0 -179.5 78.5t-69.5 189.5zM292 600
l-129 164h17l120 -153l120 153h17l-129 -164h-16z" />
    <glyph glyph-name="ccircumflex.sc" unicode="&#xf673;" horiz-adv-x="573" 
d="M52 260q0 111 69.5 189.5t179.5 78.5q87 0 145 -43.5t80 -117.5h-15q-22 68 -75.5 107.5t-134.5 39.5q-103 0 -168 -74.5t-65 -179.5t65 -179.5t168 -74.5q80 0 133.5 39.5t76.5 108.5h15q-24 -75 -81.5 -118.5t-143.5 -43.5q-110 0 -179.5 78.5t-69.5 189.5zM163 600
l129 164h16l129 -164h-17l-120 153l-120 -153h-17z" />
    <glyph glyph-name="cdotaccent.sc" unicode="&#xf674;" horiz-adv-x="573" 
d="M52 260q0 111 69.5 189.5t179.5 78.5q87 0 145 -43.5t80 -117.5h-15q-22 68 -75.5 107.5t-134.5 39.5q-103 0 -168 -74.5t-65 -179.5t65 -179.5t168 -74.5q80 0 133.5 39.5t76.5 108.5h15q-24 -75 -81.5 -118.5t-143.5 -43.5q-110 0 -179.5 78.5t-69.5 189.5zM292 640v84
h16v-84h-16z" />
    <glyph glyph-name="dcaron.sc" unicode="&#xf675;" horiz-adv-x="571" 
d="M99 0v520h134q138 0 212.5 -71.5t74.5 -188.5q0 -116 -74.5 -188t-212.5 -72h-134zM233 506h-118v-492h118q131 0 201 68.5t70 177.5q0 111 -69.5 178.5t-201.5 67.5zM260 600l-129 164h17l120 -153l120 153h17l-129 -164h-16z" />
    <glyph glyph-name="dcroat.sc" unicode="&#xf676;" horiz-adv-x="571" 
d="M4 254v13h95v253h134q138 0 212.5 -71.5t74.5 -188.5q0 -116 -74.5 -188t-212.5 -72h-134v254h-95zM233 506h-118v-239h119v-13h-119v-240h118q131 0 201 68.5t70 177.5q0 111 -69.5 178.5t-201.5 67.5z" />
    <glyph glyph-name="ebreve.sc" unicode="&#xf677;" horiz-adv-x="496" 
d="M99 0v520h347v-14h-331v-233h272v-14h-272v-245h339v-14h-355zM276 626q-50 0 -84 29t-42 90h13q16 -106 113 -106t113 106h13q-8 -61 -42 -90t-84 -29z" />
    <glyph glyph-name="ecaron.sc" unicode="&#xf678;" horiz-adv-x="496" 
d="M99 0v520h347v-14h-331v-233h272v-14h-272v-245h339v-14h-355zM268 600l-129 164h17l120 -153l120 153h17l-129 -164h-16z" />
    <glyph glyph-name="edotaccent.sc" unicode="&#xf679;" horiz-adv-x="496" 
d="M99 0v520h347v-14h-331v-233h272v-14h-272v-245h339v-14h-355zM268 640v84h16v-84h-16z" />
    <glyph glyph-name="emacron.sc" unicode="&#xf67a;" horiz-adv-x="496" 
d="M99 0v520h347v-14h-331v-233h272v-14h-272v-245h339v-14h-355zM140 674v12h276v-12h-276z" />
    <glyph glyph-name="eng.sc" unicode="&#xf67b;" horiz-adv-x="592" 
d="M99 0v520h15l362 -493h1v493h16v-606q0 -134 -115 -134h-48v14h48q99 0 99 120v87l-361 492h-1v-493h-16z" />
    <glyph glyph-name="eogonek.sc" unicode="&#xf67c;" horiz-adv-x="496" 
d="M99 0v520h347v-14h-331v-233h272v-14h-272v-245h339v-14h-2q-63 -73 -63 -126q0 -66 73 -66h37v-14h-38q-43 0 -65 21.5t-22 56.5q0 57 62 128h-337z" />
    <glyph glyph-name="gbreve.sc" unicode="&#xf67d;" horiz-adv-x="611" 
d="M306 250v14h226v-264h-14l-1 121h-1q-24 -64 -81.5 -96.5t-132.5 -32.5q-111 0 -180.5 78.5t-69.5 189.5q0 116 72.5 192t186.5 76q90 0 146.5 -44.5t71.5 -112.5h-16q-15 62 -67 102.5t-135 40.5q-107 0 -175 -72t-68 -182q0 -105 65 -179.5t169 -74.5q91 0 152.5 49
t61.5 145v50h-210zM310 626q-50 0 -84 29t-42 90h13q16 -106 113 -106t113 106h13q-8 -61 -42 -90t-84 -29z" />
    <glyph glyph-name="gcircumflex.sc" unicode="&#xf67e;" horiz-adv-x="611" 
d="M306 250v14h226v-264h-14l-1 121h-1q-24 -64 -81.5 -96.5t-132.5 -32.5q-111 0 -180.5 78.5t-69.5 189.5q0 116 72.5 192t186.5 76q90 0 146.5 -44.5t71.5 -112.5h-16q-15 62 -67 102.5t-135 40.5q-107 0 -175 -72t-68 -182q0 -105 65 -179.5t169 -74.5q91 0 152.5 49
t61.5 145v50h-210zM173 600l129 164h16l129 -164h-17l-120 153l-120 -153h-17z" />
    <glyph glyph-name="gcommaaccent.sc" unicode="&#xf67f;" horiz-adv-x="611" 
d="M306 250v14h226v-264h-14l-1 121h-1q-24 -64 -81.5 -96.5t-132.5 -32.5q-111 0 -180.5 78.5t-69.5 189.5q0 116 72.5 192t186.5 76q90 0 146.5 -44.5t71.5 -112.5h-16q-15 62 -67 102.5t-135 40.5q-107 0 -175 -72t-68 -182q0 -105 65 -179.5t169 -74.5q91 0 152.5 49
t61.5 145v50h-210zM294 -61h16v-62l-32 -107h-9l29 110h-4v59z" />
    <glyph glyph-name="gdotaccent.sc" unicode="&#xf680;" horiz-adv-x="611" 
d="M306 250v14h226v-264h-14l-1 121h-1q-24 -64 -81.5 -96.5t-132.5 -32.5q-111 0 -180.5 78.5t-69.5 189.5q0 116 72.5 192t186.5 76q90 0 146.5 -44.5t71.5 -112.5h-16q-15 62 -67 102.5t-135 40.5q-107 0 -175 -72t-68 -182q0 -105 65 -179.5t169 -74.5q91 0 152.5 49
t61.5 145v50h-210zM302 640v84h16v-84h-16z" />
    <glyph glyph-name="hbar.sc" unicode="&#xf681;" horiz-adv-x="588" 
d="M5 397v13h94v110h16v-110h359v110h16v-110h94v-13h-94v-397h-16v256h-359v-256h-16v397h-94zM115 397v-127h359v127h-359z" />
    <glyph glyph-name="hcircumflex.sc" unicode="&#xf682;" horiz-adv-x="588" 
d="M99 0v520h16v-250h359v250h16v-520h-16v256h-359v-256h-16zM157 600l129 164h16l129 -164h-17l-120 153l-120 -153h-17z" />
    <glyph glyph-name="ibreve.sc" unicode="&#xf683;" horiz-adv-x="214" 
d="M99 0v520h16v-520h-16zM107 626q-50 0 -84 29t-42 90h13q16 -106 113 -106t113 106h13q-8 -61 -42 -90t-84 -29z" />
    <glyph glyph-name="ij.sc" unicode="&#xf684;" horiz-adv-x="647" 
d="M99 0v520h16v-520h-16zM268 141v31h16v-30q0 -69 34.5 -102.5t95.5 -33.5q58 0 94.5 34.5t36.5 101.5v378h16v-378q0 -74 -41 -112t-106 -38q-68 0 -107 37t-39 112z" />
    <glyph glyph-name="imacron.sc" unicode="&#xf685;" horiz-adv-x="214" 
d="M99 0v520h16v-520h-16zM-29 674v12h276v-12h-276z" />
    <glyph glyph-name="iogonek.sc" unicode="&#xf686;" horiz-adv-x="214" 
d="M37 -128q0 57 62 128v520h16v-520q-63 -73 -63 -126q0 -66 73 -66h37v-14h-38q-43 0 -65 21.5t-22 56.5z" />
    <glyph glyph-name="itilde.sc" unicode="&#xf687;" horiz-adv-x="214" 
d="M99 0v520h16v-520h-16zM-25 642q8 76 64 76q25 0 74 -30t70 -30q43 0 51 64h12q-3 -30 -19 -53t-45 -23q-25 0 -73.5 30t-69.5 30q-44 0 -52 -64h-12z" />
    <glyph glyph-name="jcircumflex.sc" unicode="&#xf688;" horiz-adv-x="433" 
d="M54 141v31h16v-31q0 -68 34.5 -101t95.5 -33q58 0 94.5 34t36.5 101v378h16v-378q0 -74 -41 -111.5t-106 -37.5q-68 0 -107 36.5t-39 111.5zM203 600l129 164h16l129 -164h-17l-120 153l-120 -153h-17z" />
    <glyph glyph-name="kcommaaccent.sc" unicode="&#xf689;" horiz-adv-x="531" 
d="M99 0v520h16v-362l347 362h20l-216 -225l232 -295h-19l-223 285l-141 -146v-139h-16zM262 -61h16v-62l-32 -107h-9l29 110h-4v59z" />
    <glyph glyph-name="lacute.sc" unicode="&#xf68a;" horiz-adv-x="448" 
d="M99 0v520h16v-506h311v-14h-327zM99 600l110 164h20l-116 -164h-14z" />
    <glyph glyph-name="lcaron.sc" unicode="&#xf68b;" horiz-adv-x="448" 
d="M99 0v520h16v-506h311v-14h-327zM296 351l29 110h-4v59h16v-59l-33 -110h-8z" />
    <glyph glyph-name="lcommaaccent.sc" unicode="&#xf68c;" horiz-adv-x="448" 
d="M99 0v520h16v-506h311v-14h-327zM248 -61h16v-62l-32 -107h-9l29 110h-4v59z" />
    <glyph glyph-name="ldot.sc" unicode="&#xf68d;" horiz-adv-x="448" 
d="M99 0v520h16v-506h311v-14h-327zM275 220v85h16v-85h-16z" />
    <glyph glyph-name="nacute.sc" unicode="&#xf68e;" horiz-adv-x="592" 
d="M99 0v520h15l362 -492h1v492h16v-520h-15l-362 493h-1v-493h-16zM287 600l110 164h20l-116 -164h-14z" />
    <glyph glyph-name="ncaron.sc" unicode="&#xf68f;" horiz-adv-x="592" 
d="M99 0v520h15l362 -492h1v492h16v-520h-15l-362 493h-1v-493h-16zM288 600l-129 164h17l120 -153l120 153h17l-129 -164h-16z" />
    <glyph glyph-name="ncommaaccent.sc" unicode="&#xf690;" horiz-adv-x="592" 
d="M99 0v520h15l362 -492h1v492h16v-520h-15l-362 493h-1v-493h-16zM288 -61h16v-62l-32 -107h-9l29 110h-4v59z" />
    <glyph glyph-name="obreve.sc" unicode="&#xf691;" horiz-adv-x="603" 
d="M52 260q0 115 70.5 191.5t179.5 76.5q106 0 178 -77t72 -191q0 -113 -72 -190.5t-178 -77.5q-109 0 -179.5 77t-70.5 191zM68 260q0 -108 66 -181t168 -73q100 0 167 73.5t67 180.5t-67 180.5t-167 73.5q-102 0 -168 -73t-66 -181zM302 626q-50 0 -84 29t-42 90h13
q16 -106 113 -106t113 106h13q-8 -61 -42 -90t-84 -29z" />
    <glyph glyph-name="ohungarumlaut.sc" unicode="&#xf692;" horiz-adv-x="603" 
d="M52 260q0 115 70.5 191.5t179.5 76.5q106 0 178 -77t72 -191q0 -113 -72 -190.5t-178 -77.5q-109 0 -179.5 77t-70.5 191zM68 260q0 -108 66 -181t168 -73q100 0 167 73.5t67 180.5t-67 180.5t-167 73.5q-102 0 -168 -73t-66 -181zM379 600l110 164h19l-116 -164h-13z
M210 600l110 164h19l-116 -164h-13z" />
    <glyph glyph-name="omacron.sc" unicode="&#xf693;" horiz-adv-x="603" 
d="M52 260q0 115 70.5 191.5t179.5 76.5q106 0 178 -77t72 -191q0 -113 -72 -190.5t-178 -77.5q-109 0 -179.5 77t-70.5 191zM68 260q0 -108 66 -181t168 -73q100 0 167 73.5t67 180.5t-67 180.5t-167 73.5q-102 0 -168 -73t-66 -181zM166 674v12h276v-12h-276z" />
    <glyph glyph-name="oslashacute.sc" unicode="&#xf694;" horiz-adv-x="603" 
d="M64 -8l62 73q-75 77 -75 195q0 115 71 191.5t180 76.5q97 0 165 -65l56 65h17l-63 -74q75 -78 75 -194q0 -113 -72 -190.5t-178 -77.5q-98 0 -167 63l-54 -63h-17zM68 260q0 -111 68 -184l322 376q-65 62 -156 62q-102 0 -168 -73t-66 -181zM536 260q0 108 -69 182
l-322 -375q64 -61 157 -61q100 0 167 73.5t67 180.5zM293 600l110 164h20l-116 -164h-14z" />
    <glyph glyph-name="racute.sc" unicode="&#xf695;" horiz-adv-x="536" 
d="M99 0v520h205q80 0 122.5 -36.5t42.5 -102.5q0 -64 -41.5 -103t-115.5 -41l166 -237h-17l-167 237h-179v-237h-16zM304 506h-189v-255h189q70 0 109.5 35.5t39.5 94.5t-38.5 92t-110.5 33zM259 600l110 164h20l-116 -164h-14z" />
    <glyph glyph-name="rcaron.sc" unicode="&#xf696;" horiz-adv-x="536" 
d="M99 0v520h205q80 0 122.5 -36.5t42.5 -102.5q0 -64 -41.5 -103t-115.5 -41l166 -237h-17l-167 237h-179v-237h-16zM304 506h-189v-255h189q70 0 109.5 35.5t39.5 94.5t-38.5 92t-110.5 33zM260 600l-129 164h17l120 -153l120 153h17l-129 -164h-16z" />
    <glyph glyph-name="rcommaaccent.sc" unicode="&#xf697;" horiz-adv-x="536" 
d="M99 0v520h205q80 0 122.5 -36.5t42.5 -102.5q0 -64 -41.5 -103t-115.5 -41l166 -237h-17l-167 237h-179v-237h-16zM304 506h-189v-255h189q70 0 109.5 35.5t39.5 94.5t-38.5 92t-110.5 33zM260 -61h16v-62l-32 -107h-9l29 110h-4v59z" />
    <glyph glyph-name="sacute.sc" unicode="&#xf698;" horiz-adv-x="492" 
d="M55 141h16q0 -65 50 -100t132 -35q78 0 122.5 36.5t44.5 97.5q0 52 -36.5 79t-88 35.5t-103.5 17.5t-88.5 38t-36.5 84q0 59 49.5 96.5t133.5 37.5q83 0 132.5 -39t49.5 -99h-16q0 54 -45 89t-121 35q-78 0 -122.5 -33t-44.5 -87q0 -51 36.5 -77t88.5 -34.5t104 -17.5
t88.5 -38.5t36.5 -85.5q0 -67 -49.5 -108t-134.5 -41q-88 0 -143 39.5t-55 109.5zM241 600l110 164h20l-116 -164h-14z" />
    <glyph glyph-name="scedilla.sc" unicode="&#xf699;" horiz-adv-x="492" 
d="M219 -62l24 54q-84 2 -136 41t-52 108h16q0 -65 50 -100t132 -35q78 0 122.5 36.5t44.5 97.5q0 52 -36.5 79t-88 35.5t-103.5 17.5t-88.5 38t-36.5 84q0 59 49.5 96.5t133.5 37.5q83 0 132.5 -39t49.5 -99h-16q0 54 -45 89t-121 35q-78 0 -122.5 -33t-44.5 -87
q0 -51 36.5 -77t88.5 -34.5t104 -17.5t88.5 -38.5t36.5 -85.5q0 -67 -48.5 -107.5t-133.5 -41.5l-17 -42q45 -1 68 -22.5t23 -53.5t-22 -56t-69 -24h-45v13h44q41 0 59 20t18 47q0 28 -20 46t-60 18h-15z" />
    <glyph glyph-name="scircumflex.sc" unicode="&#xf69a;" horiz-adv-x="492" 
d="M55 141h16q0 -65 50 -100t132 -35q78 0 122.5 36.5t44.5 97.5q0 52 -36.5 79t-88 35.5t-103.5 17.5t-88.5 38t-36.5 84q0 59 49.5 96.5t133.5 37.5q83 0 132.5 -39t49.5 -99h-16q0 54 -45 89t-121 35q-78 0 -122.5 -33t-44.5 -87q0 -51 36.5 -77t88.5 -34.5t104 -17.5
t88.5 -38.5t36.5 -85.5q0 -67 -49.5 -108t-134.5 -41q-88 0 -143 39.5t-55 109.5zM113 600l129 164h16l129 -164h-17l-120 153l-120 -153h-17z" />
    <glyph glyph-name="scommaaccent.sc" unicode="&#xf69b;" horiz-adv-x="492" 
d="M55 141h16q0 -65 50 -100t132 -35q78 0 122.5 36.5t44.5 97.5q0 52 -36.5 79t-88 35.5t-103.5 17.5t-88.5 38t-36.5 84q0 59 49.5 96.5t133.5 37.5q83 0 132.5 -39t49.5 -99h-16q0 54 -45 89t-121 35q-78 0 -122.5 -33t-44.5 -87q0 -51 36.5 -77t88.5 -34.5t104 -17.5
t88.5 -38.5t36.5 -85.5q0 -67 -49.5 -108t-134.5 -41q-88 0 -143 39.5t-55 109.5zM245 -61h16v-62l-32 -107h-9l29 110h-4v59z" />
    <glyph glyph-name="tbar.sc" unicode="&#xf69c;" horiz-adv-x="460" 
d="M12 506v14h436v-14h-210v-238h159v-13h-159v-255h-16v255h-158v13h158v238h-210z" />
    <glyph glyph-name="tcaron.sc" unicode="&#xf69d;" horiz-adv-x="460" 
d="M12 506v14h436v-14h-210v-506h-16v506h-210zM222 600l-129 164h17l120 -153l120 153h17l-129 -164h-16z" />
    <glyph glyph-name="tcommaaccent.sc" unicode="&#xf69e;" horiz-adv-x="460" 
d="M196 -62l28 62h-2v506h-210v14h436v-14h-210v-506h-2l-21 -50q45 -1 68 -22.5t23 -53.5t-22 -56t-69 -24h-45v13h44q41 0 59 20t18 47q0 28 -20 46t-60 18h-15z" />
    <glyph glyph-name="ubreve.sc" unicode="&#xf69f;" horiz-adv-x="571" 
d="M86 204v316h16v-316q0 -97 49.5 -147t133.5 -50q85 0 134 50t49 147v316h16v-316q0 -105 -53.5 -158t-145.5 -53t-145.5 53t-53.5 158zM285 626q-50 0 -84 29t-42 90h13q16 -106 113 -106t113 106h13q-8 -61 -42 -90t-84 -29z" />
    <glyph glyph-name="uhungarumlaut.sc" unicode="&#xf6a0;" horiz-adv-x="571" 
d="M86 204v316h16v-316q0 -97 49.5 -147t133.5 -50q85 0 134 50t49 147v316h16v-316q0 -105 -53.5 -158t-145.5 -53t-145.5 53t-53.5 158zM362 600l110 164h19l-116 -164h-13zM193 600l110 164h19l-116 -164h-13z" />
    <glyph glyph-name="umacron.sc" unicode="&#xf6a1;" horiz-adv-x="571" 
d="M86 204v316h16v-316q0 -97 49.5 -147t133.5 -50q85 0 134 50t49 147v316h16v-316q0 -105 -53.5 -158t-145.5 -53t-145.5 53t-53.5 158zM149 674v12h276v-12h-276z" />
    <glyph glyph-name="uogonek.sc" unicode="&#xf6a2;" horiz-adv-x="571" 
d="M268 -132q0 58 104 139q-40 -14 -87 -14q-92 0 -145.5 53t-53.5 158v316h16v-316q0 -97 49.5 -147t133.5 -50q85 0 134 50t49 147v316h16v-316q0 -111 -64 -168q-4 -4 -31.5 -27t-39.5 -34.5t-31 -32.5t-27.5 -38.5t-8.5 -34.5q0 -62 74 -62h37v-13h-38q-87 0 -87 74z
" />
    <glyph glyph-name="uring.sc" unicode="&#xf6a3;" horiz-adv-x="571" 
d="M86 204v316h16v-316q0 -97 49.5 -147t133.5 -50q85 0 134 50t49 147v316h16v-316q0 -105 -53.5 -158t-145.5 -53t-145.5 53t-53.5 158zM285 607q-33 0 -59.5 24t-26.5 61q0 38 26.5 61.5t59.5 23.5t59.5 -23.5t26.5 -61.5q0 -37 -26.5 -61t-59.5 -24zM285 620
q28 0 50 19.5t22 52.5t-22 52.5t-50 19.5t-50 -19.5t-22 -52.5t22 -52.5t50 -19.5z" />
    <glyph glyph-name="utilde.sc" unicode="&#xf6a4;" horiz-adv-x="571" 
d="M86 204v316h16v-316q0 -97 49.5 -147t133.5 -50q85 0 134 50t49 147v316h16v-316q0 -105 -53.5 -158t-145.5 -53t-145.5 53t-53.5 158zM153 642q8 76 64 76q25 0 74 -30t70 -30q43 0 51 64h12q-3 -30 -19 -53t-45 -23q-25 0 -73.5 30t-69.5 30q-44 0 -52 -64h-12z" />
    <glyph glyph-name="wacute.sc" unicode="&#xf6a5;" horiz-adv-x="707" 
d="M168 0l-152 520h16l146 -502h1l167 502h16l167 -502h1l146 502h16l-152 -520h-21l-165 498h-1l-165 -498h-20zM345 600l110 164h20l-116 -164h-14z" />
    <glyph glyph-name="wcircumflex.sc" unicode="&#xf6a6;" horiz-adv-x="707" 
d="M168 0l-152 520h16l146 -502h1l167 502h16l167 -502h1l146 502h16l-152 -520h-21l-165 498h-1l-165 -498h-20zM217 600l129 164h16l129 -164h-17l-120 153l-120 -153h-17z" />
    <glyph glyph-name="wdieresis.sc" unicode="&#xf6a7;" horiz-adv-x="707" 
d="M168 0l-152 520h16l146 -502h1l167 502h16l167 -502h1l146 502h16l-152 -520h-21l-165 498h-1l-165 -498h-20zM442 640v84h16v-84h-16zM253 640v84h16v-84h-16z" />
    <glyph glyph-name="wgrave.sc" unicode="&#xf6a8;" horiz-adv-x="707" 
d="M168 0l-152 520h16l146 -502h1l167 502h16l167 -502h1l146 502h16l-152 -520h-21l-165 498h-1l-165 -498h-20zM349 600l-116 164h20l110 -164h-14z" />
    <glyph glyph-name="ycircumflex.sc" unicode="&#xf6a9;" horiz-adv-x="439" 
d="M211 0v215l-203 305h18l193 -289h1l193 289h17l-203 -305v-215h-16zM82 600l129 164h16l129 -164h-17l-120 153l-120 -153h-17z" />
    <glyph glyph-name="ygrave.sc" unicode="&#xf6aa;" horiz-adv-x="439" 
d="M211 0v215l-203 305h18l193 -289h1l193 289h17l-203 -305v-215h-16zM214 600l-116 164h20l110 -164h-14z" />
    <glyph glyph-name="zacute.sc" unicode="&#xf6ab;" horiz-adv-x="460" 
d="M52 506v14h364v-9l-358 -497h355v-14h-377v8l358 498h-342zM221 600l110 164h20l-116 -164h-14z" />
    <glyph glyph-name="zdotaccent.sc" unicode="&#xf6ac;" horiz-adv-x="460" 
d="M52 506v14h364v-9l-358 -497h355v-14h-377v8l358 498h-342zM222 640v84h16v-84h-16z" />
    <glyph glyph-name="idotaccent.sc" unicode="&#xf6ad;" horiz-adv-x="214" 
d="M99 0v520h16v-520h-16zM99 640v84h16v-84h-16z" />
    <glyph glyph-name="parenleft.cap" unicode="&#xf6ae;" horiz-adv-x="277" 
d="M239 -56q-59 77 -99.5 180t-40.5 220t40.5 220t99.5 180h16q-58 -80 -99 -183.5t-41 -216.5t41 -216.5t99 -183.5h-16z" />
    <glyph glyph-name="parenright.cap" unicode="&#xf6af;" horiz-adv-x="277" 
d="M22 -56q58 80 99 183.5t41 216.5t-41 216.5t-99 183.5h16q60 -76 100 -179.5t40 -220.5t-40 -220.5t-100 -179.5h-16z" />
    <glyph glyph-name="bracketleft.cap" unicode="&#xf6b0;" horiz-adv-x="282" 
d="M99 -56v800h159v-14h-143v-772h143v-14h-159z" />
    <glyph glyph-name="bracketright.cap" unicode="&#xf6b1;" horiz-adv-x="282" 
d="M23 -42h144v772h-144v14h160v-800h-160v14z" />
    <glyph glyph-name="braceleft.cap" unicode="&#xf6b2;" horiz-adv-x="363" 
d="M168 89v133q0 53 -24.5 77.5t-83.5 39.5v13q59 16 83.5 40t24.5 77v130q0 69 35 107t96 38h41v-14h-41q-54 0 -84.5 -34t-30.5 -96v-133q0 -54 -24.5 -80t-79.5 -41v-1q55 -14 79.5 -40.5t24.5 -80.5v-136q0 -62 30.5 -96t84.5 -34h41v-14h-41q-61 0 -96 38t-35 107z" />
    <glyph glyph-name="braceright.cap" unicode="&#xf6b3;" horiz-adv-x="363" 
d="M23 -42h41q54 0 84.5 34t30.5 96v136q0 54 25 80.5t79 40.5v1q-54 14 -79 40.5t-25 80.5v133q0 62 -30.5 96t-84.5 34h-41v14h41q61 0 96 -38t35 -107v-130q0 -53 25 -77t84 -40v-13q-59 -15 -84 -39.5t-25 -77.5v-133q0 -69 -35 -107t-96 -38h-41v14z" />
    <glyph glyph-name="exclamdown.cap" unicode="&#xf6b4;" horiz-adv-x="194" 
d="M89 602v86h16v-86h-16zM89 0v163l1 344h14l1 -344v-163h-16z" />
    <glyph glyph-name="questiondown.cap" unicode="&#xf6b5;" horiz-adv-x="436" 
d="M212 602v86h16v-86h-16zM36 150q0 38 13 68.5t32.5 49t42.5 39t42.5 39t32.5 49t13 69.5v28h16v-28q0 -48 -18 -83.5t-44 -57.5t-51.5 -43.5t-43.5 -54t-18 -75.5q0 -67 45 -105t114 -38q80 0 127.5 48t47.5 140h16q0 -98 -52.5 -150t-138.5 -52q-76 0 -126 42t-50 115z
" />
    <glyph glyph-name="guillemotleft.cap" unicode="&#xf6b6;" horiz-adv-x="487" 
d="M411 144l-149 204l149 204h14l-146 -204l146 -204h-14zM212 144l-149 204l149 204h14l-146 -204l146 -204h-14z" />
    <glyph glyph-name="guillemotright.cap" unicode="&#xf6b7;" horiz-adv-x="487" 
d="M261 144l146 204l-146 204h14l149 -204l-149 -204h-14zM62 144l146 204l-146 204h13l150 -204l-150 -204h-13z" />
    <glyph glyph-name="guilsinglleft.cap" unicode="&#xf6b8;" horiz-adv-x="288" 
d="M212 144l-149 204l149 204h14l-146 -204l146 -204h-14z" />
    <glyph glyph-name="guilsinglright.cap" unicode="&#xf6b9;" horiz-adv-x="288" 
d="M63 144l146 204l-146 204h13l150 -204l-150 -204h-13z" />
    <glyph glyph-name="hyphen.cap" unicode="&#xf6ba;" horiz-adv-x="396" 
d="M60 341v15h276v-15h-276z" />
    <glyph glyph-name="endash.cap" unicode="&#xf6bb;" horiz-adv-x="556" 
d="M60 341v15h436v-15h-436z" />
    <glyph glyph-name="emdash.cap" unicode="&#xf6bc;" horiz-adv-x="840" 
d="M60 341v15h720v-15h-720z" />
    <glyph glyph-name="periodcentered.cap" unicode="&#xf6bd;" horiz-adv-x="293" 
d="M137 306v84h19v-84h-19z" />
    <glyph glyph-name="dotlessj" unicode="&#xf6be;" horiz-adv-x="197" 
d="M90 -115v603h16v-605q0 -103 -96 -103h-25v14h24q41 0 61 20.5t20 70.5z" />
    <glyph glyph-name="space_uni0326" unicode="&#xf6c3;" horiz-adv-x="524" 
d="M254 -61h16v-62l-32 -107h-9l29 110h-4v59z" />
    <glyph glyph-name="cent.inferior" unicode="&#xf6df;" 
d="M54 20q0 55 35 90.5t92 37.5v48h13v-48q44 -2 75 -26t36 -59h-16q-5 31 -33 51t-68 20q-53 0 -85.5 -31t-32.5 -83q0 -51 32.5 -82t85.5 -31q40 0 68 19.5t33 50.5h16q-5 -35 -36 -59t-75 -25v-49h-13v49q-57 2 -92 37t-35 90z" />
    <glyph glyph-name="cent.superior" unicode="&#xf6e0;" 
d="M54 668q0 55 35 90.5t92 37.5v48h13v-48q44 -2 75 -26t36 -59h-16q-5 31 -33 51t-68 20q-53 0 -85.5 -31t-32.5 -83q0 -51 32.5 -82t85.5 -31q40 0 68 19.5t33 50.5h16q-5 -35 -36 -59t-75 -25v-49h-13v49q-57 2 -92 37t-35 90z" />
    <glyph glyph-name="comma.inferior" unicode="&#xf6e1;" horiz-adv-x="141" 
d="M62 -152v61h16v-61l-25 -98h-9l22 98h-4z" />
    <glyph glyph-name="comma.superior" unicode="&#xf6e2;" horiz-adv-x="141" 
d="M62 496v61h16v-61l-25 -98h-9l22 98h-4z" />
    <glyph glyph-name="dollar.inferior" unicode="&#xf6e3;" 
d="M50 -56h14q4 -42 35.5 -64t80.5 -22q47 0 77 21.5t30 60.5q0 33 -23.5 50t-57.5 23t-68 12.5t-57.5 25.5t-23.5 55q0 38 31 63.5t81 27.5v54h14v-54q46 -2 76.5 -26t34.5 -67h-15q-4 39 -32.5 59t-70.5 20q-46 0 -75 -21t-29 -55q0 -32 24 -48.5t58 -22.5t67.5 -12.5
t57.5 -26.5t24 -56q0 -43 -33 -69t-84 -28v-60h-13v60q-53 2 -87 28t-36 72z" />
    <glyph glyph-name="dollar.superior" unicode="&#xf6e4;" 
d="M50 592h14q4 -42 35.5 -64t80.5 -22q47 0 77 21.5t30 60.5q0 33 -23.5 50t-57.5 23t-68 12.5t-57.5 25.5t-23.5 55q0 38 31 63.5t81 27.5v54h14v-54q46 -2 76.5 -26t34.5 -67h-15q-4 39 -32.5 59t-70.5 20q-46 0 -75 -21t-29 -55q0 -32 24 -48.5t58 -22.5t67.5 -12.5
t57.5 -26.5t24 -56q0 -43 -33 -69t-84 -28v-60h-13v60q-53 2 -87 28t-36 72z" />
    <glyph glyph-name="hyphen.inferior" unicode="&#xf6e5;" horiz-adv-x="277" 
d="M41 14v13h195v-13h-195z" />
    <glyph glyph-name="hyphen.superior" unicode="&#xf6e6;" horiz-adv-x="277" 
d="M41 662v13h195v-13h-195z" />
    <glyph glyph-name="period.inferior" unicode="&#xf6e7;" horiz-adv-x="141" 
d="M62 -152v61h16v-61h-16z" />
    <glyph glyph-name="period.superior" unicode="&#xf6e8;" horiz-adv-x="141" 
d="M62 496v61h16v-61h-16z" />
    <glyph glyph-name="a.superior" unicode="&#xf6e9;" horiz-adv-x="365" 
d="M39 581q0 83 101 96l103 14q23 3 33.5 10.5t10.5 23.5q0 53 -28.5 80.5t-76.5 27.5q-47 0 -79.5 -25.5t-36.5 -74.5h-14q4 55 40.5 84.5t89.5 29.5q54 0 87.5 -31.5t33.5 -90.5v-229h-15v86h-1q-14 -40 -50.5 -66.5t-90.5 -26.5q-48 0 -77.5 25.5t-29.5 66.5zM287 648v48
q-9 -13 -41 -18l-103 -14q-88 -12 -88 -83q0 -36 24 -57t67 -21q60 0 100.5 37t40.5 108z" />
    <glyph glyph-name="b.superior" unicode="&#xf6ea;" horiz-adv-x="402" 
d="M62 496v516h16v-115q0 -1 -0.5 -76.5t-0.5 -79.5h1q15 48 52.5 76t83.5 28q67 0 108 -48.5t41 -128.5q0 -78 -43 -127.5t-106 -49.5q-49 0 -85.5 27.5t-50.5 74.5h-1v-97h-15zM78 668q0 -73 38 -118t97 -45q58 0 96 45t38 118t-37 118t-97 45q-55 0 -94 -43.5t-41 -112.5
v-7z" />
    <glyph glyph-name="d.superior" unicode="&#xf6eb;" horiz-adv-x="402" 
d="M39 668q0 78 43 127.5t106 49.5q49 0 85.5 -27.5t50.5 -74.5h1q0 3 -0.5 77t-0.5 76v116h16v-516h-15v99h-1q-15 -48 -52.5 -76t-83.5 -28q-67 0 -108 48.5t-41 128.5zM55 668q0 -73 37 -118t97 -45q56 0 95.5 45.5t39.5 117.5v7q-2 70 -40 113t-95 43q-58 0 -96 -45
t-38 -118z" />
    <glyph glyph-name="e.superior" unicode="&#xf6ec;" horiz-adv-x="369" 
d="M39 668q0 78 42.5 129t107.5 51q61 0 101 -45t40 -121v-6h-275v-8q0 -75 35 -120.5t97 -45.5q51 0 85 26.5t40 71.5h15q-7 -50 -45.5 -81t-94.5 -31q-68 0 -108 49.5t-40 130.5zM189 834q-55 0 -91.5 -40t-41.5 -105h259q-1 66 -37 105.5t-89 39.5z" />
    <glyph glyph-name="i.superior" unicode="&#xf6ed;" horiz-adv-x="140" 
d="M62 950v62h16v-62h-16zM62 496v344h16v-344h-16z" />
    <glyph glyph-name="l.superior" unicode="&#xf6ee;" horiz-adv-x="141" 
d="M63 496v516h15v-516h-15z" />
    <glyph glyph-name="m.superior" unicode="&#xf6ef;" horiz-adv-x="628" 
d="M62 496v344h15v-93h1q14 47 48.5 72.5t75.5 25.5q46 0 78 -26t41 -78h1q16 52 50.5 78t75.5 26q55 0 88.5 -35t33.5 -108v-206h-16v205q0 67 -29 98.5t-79 31.5q-49 0 -85.5 -41t-36.5 -117v-177h-16v205q0 67 -29 98.5t-79 31.5q-49 0 -85.5 -41.5t-36.5 -119.5v-174
h-16z" />
    <glyph glyph-name="o.superior" unicode="&#xf6f0;" horiz-adv-x="389" 
d="M39 668q0 78 45 127.5t111 49.5q69 0 112 -49t43 -128q0 -78 -44.5 -127.5t-110.5 -49.5q-70 0 -113 49t-43 128zM55 668q0 -73 38.5 -118t101.5 -45q59 0 99 45.5t40 117.5q0 73 -38.5 118t-100.5 45q-60 0 -100 -45.5t-40 -117.5z" />
    <glyph glyph-name="r.superior" unicode="&#xf6f1;" horiz-adv-x="241" 
d="M62 496v344h15v-90h1q11 41 36.5 68t63.5 27q35 0 55 -19l-4 -13q-22 19 -52 19q-45 0 -72 -46t-27 -110v-180h-16z" />
    <glyph glyph-name="s.superior" unicode="&#xf6f2;" horiz-adv-x="353" 
d="M43 589h15q4 -84 123 -84q50 0 82 20t32 59q0 36 -21 53t-65 24l-65 11q-44 7 -68.5 25t-24.5 58q0 42 35.5 66t89.5 24q56 0 90.5 -24t36.5 -74h-14q-4 84 -113 84q-48 0 -79 -20.5t-31 -55.5t21.5 -49.5t61.5 -20.5l65 -11q48 -8 72 -28t24 -61q0 -46 -36.5 -70
t-92.5 -24q-133 0 -138 98z" />
    <glyph glyph-name="t.superior" unicode="&#xf6f3;" horiz-adv-x="241" 
d="M87 589v238h-79v13h79v104h16v-104h115v-13h-115v-237q0 -44 17.5 -62t54.5 -18h43v-14h-44q-45 0 -66 21.5t-21 71.5z" />
    <glyph glyph-name="lslash.sc" unicode="&#xf6f9;" horiz-adv-x="448" 
d="M29 144l-8 10l78 70v296h16v-281l144 130l7 -10l-151 -137v-208h311v-14h-327v207z" />
    <glyph glyph-name="oe.sc" unicode="&#xf6fa;" horiz-adv-x="844" 
d="M794 506h-331v-233h272v-14h-272v-245h339v-14h-464q-138 0 -212.5 71.5t-74.5 188.5q0 116 74.5 188t212.5 72h456v-14zM68 260q0 -111 69 -178.5t201 -67.5h109v492h-109q-131 0 -200.5 -68.5t-69.5 -177.5z" />
    <glyph glyph-name="scaron.sc" unicode="&#xf6fd;" horiz-adv-x="492" 
d="M55 141h16q0 -65 50 -100t132 -35q78 0 122.5 36.5t44.5 97.5q0 52 -36.5 79t-88 35.5t-103.5 17.5t-88.5 38t-36.5 84q0 59 49.5 96.5t133.5 37.5q83 0 132.5 -39t49.5 -99h-16q0 54 -45 89t-121 35q-78 0 -122.5 -33t-44.5 -87q0 -51 36.5 -77t88.5 -34.5t104 -17.5
t88.5 -38.5t36.5 -85.5q0 -67 -49.5 -108t-134.5 -41q-88 0 -143 39.5t-55 109.5zM242 600l-129 164h17l120 -153l120 153h17l-129 -164h-16z" />
    <glyph glyph-name="zcaron.sc" unicode="&#xf6ff;" horiz-adv-x="460" 
d="M52 506v14h364v-9l-358 -497h355v-14h-377v8l358 498h-342zM222 600l-129 164h17l120 -153l120 153h17l-129 -164h-16z" />
    <glyph glyph-name="exclam.sc" unicode="&#xf721;" horiz-adv-x="194" 
d="M91 138l-2 258v124h16v-124l-2 -258h-12zM89 0v68h16v-68h-16z" />
    <glyph glyph-name="ampersand.sc" unicode="&#xf726;" horiz-adv-x="544" 
d="M62 125q0 55 38 88.5t108 65.5q-44 41 -64 71t-20 63q0 51 36.5 83.5t94.5 32.5q57 0 90.5 -32.5t33.5 -80.5q0 -21 -9.5 -39.5t-20 -30.5t-36 -27t-38 -21t-45.5 -22l194 -181q41 63 41 150v15h15v-15q0 -90 -46 -160l91 -85h-20l-79 74q-61 -82 -184 -82
q-83 0 -131.5 35t-48.5 98zM242 6q116 0 174 78l-199 186q-44 -20 -69.5 -35.5t-47.5 -44.5t-22 -65q0 -57 44 -88t120 -31zM139 413q0 -29 20 -58t62 -70q37 17 54.5 26t42.5 26t35.5 36t10.5 43q0 43 -29 71t-80 28q-52 0 -84 -28.5t-32 -73.5z" />
    <glyph glyph-name="zero.oldstyle" unicode="&#xf730;" horiz-adv-x="548" 
d="M44 244q0 111 65.5 181.5t164.5 70.5q103 0 166.5 -69.5t63.5 -182.5q0 -110 -66 -181t-164 -71q-103 0 -166.5 70t-63.5 182zM60 244q0 -105 59.5 -171.5t154.5 -66.5q92 0 153 67t61 171q0 106 -59.5 172t-154.5 66q-92 0 -153 -66.5t-61 -171.5z" />
    <glyph glyph-name="one.oldstyle" unicode="&#xf731;" horiz-adv-x="281" 
d="M15 368l-7 12l163 112h12v-492h-16v472z" />
    <glyph glyph-name="two.oldstyle" unicode="&#xf732;" horiz-adv-x="460" 
d="M47 0q0 75 41.5 121.5t117.5 84.5l49 24q83 41 106 62q35 32 35 78q0 49 -44 80.5t-118 31.5q-75 0 -123 -37t-52 -112h-15q3 82 56.5 122.5t133.5 40.5t129 -35t49 -91q0 -36 -23 -65.5t-42.5 -41.5t-73.5 -38q-2 -2 -3 -2.5l-3 -1.5t-3.5 -1.5t-3.5 -1.5l-49 -24
q-69 -35 -107.5 -77t-38.5 -103h361v-14h-379z" />
    <glyph glyph-name="three.oldstyle" unicode="&#xf733;" horiz-adv-x="488" 
d="M31 -3h16q0 -94 53.5 -142.5t141.5 -48.5q86 0 140.5 48.5t54.5 130.5q0 75 -55.5 122t-139.5 47h-38v14h38q70 0 118.5 43.5t48.5 113.5q0 73 -49.5 115t-117.5 42q-70 0 -119 -44t-49 -131h-15q0 93 53 141t130 48q75 0 129 -46t54 -125q0 -61 -36 -104t-92 -59v-1
q69 -16 112.5 -61.5t43.5 -115.5q0 -88 -59 -140t-152 -52q-96 0 -153.5 51.5t-57.5 153.5z" />
    <glyph glyph-name="four.oldstyle" unicode="&#xf734;" horiz-adv-x="506" 
d="M27 8v11l334 473h13v-470h107v-14h-107v-208h-16v208h-331zM45 22h313v442z" />
    <glyph glyph-name="five.oldstyle" unicode="&#xf735;" horiz-adv-x="486" 
d="M54 -30h16q10 -67 56.5 -115.5t130.5 -48.5q80 0 133.5 58.5t53.5 154.5q0 92 -50 149.5t-133 57.5q-100 0 -172 -116l-18 1l20 377h325v-14h-310l-19 -343h1q69 109 174 109q89 0 143.5 -61t54.5 -159q0 -103 -58.5 -165.5t-144.5 -62.5q-90 0 -140.5 51t-62.5 127z" />
    <glyph glyph-name="six.oldstyle" unicode="&#xf736;" horiz-adv-x="513" 
d="M55 328q0 192 60 280t160 88q80 0 126.5 -49t55.5 -131h-15q-9 76 -51.5 121t-115.5 45q-94 0 -148.5 -84.5t-54.5 -269.5q0 -36 3 -70h2q11 83 66 132.5t133 49.5q89 0 143.5 -61.5t54.5 -158.5q0 -103 -58.5 -165.5t-144.5 -62.5q-216 0 -216 336zM87 213q0 -43 5 -60
q20 -73 66.5 -110t111.5 -37q81 0 134.5 58.5t53.5 155.5q0 91 -50.5 148.5t-133.5 57.5q-80 0 -133.5 -58.5t-53.5 -154.5z" />
    <glyph glyph-name="seven.oldstyle" unicode="&#xf737;" horiz-adv-x="417" 
d="M66 -200l317 674h-367v14h385v-12l-317 -676h-18z" />
    <glyph glyph-name="eight.oldstyle" unicode="&#xf738;" horiz-adv-x="514" 
d="M47 180q0 70 44 117.5t112 63.5v1q-56 16 -92 59t-36 104q0 79 54 125t129 46t129 -46t54 -125q0 -61 -36 -104t-92 -59v-1q68 -16 112 -63.5t44 -117.5q0 -88 -58.5 -138t-152.5 -50t-152.5 50t-58.5 138zM63 181q0 -82 54 -128.5t141 -46.5t141 46.5t54 128.5
q0 75 -55.5 124t-139.5 49t-139.5 -49t-55.5 -124zM258 368q70 0 118.5 43.5t48.5 113.5q0 73 -49.5 115t-117.5 42t-117.5 -42t-49.5 -115q0 -70 48.5 -113.5t118.5 -43.5z" />
    <glyph glyph-name="nine.oldstyle" unicode="&#xf739;" horiz-adv-x="512" 
d="M462 160q0 -192 -58 -280t-158 -88q-80 0 -128.5 49.5t-57.5 130.5h15q9 -75 53.5 -120.5t117.5 -45.5q199 0 199 354q0 34 -3 69h-2q-12 -83 -67 -132t-132 -49q-90 0 -144 61.5t-54 158.5q0 103 58.5 165.5t144.5 62.5q216 0 216 -336zM430 276q0 31 -6 57
q-40 149 -178 149q-80 0 -133.5 -58.5t-53.5 -155.5q0 -91 50 -148.5t133 -57.5q81 0 134.5 59t53.5 155z" />
    <glyph glyph-name="question.sc" unicode="&#xf73f;" horiz-adv-x="414" 
d="M195 148v20q0 36 17.5 63.5t42.5 44.5t50 33.5t42.5 40.5t17.5 56q0 50 -44 78.5t-110 28.5q-71 0 -117 -35.5t-46 -103.5h-15q0 74 49.5 113.5t128.5 39.5q73 0 121.5 -32.5t48.5 -88.5q0 -34 -17.5 -60t-42.5 -42.5l-50 -33t-42.5 -42t-17.5 -59.5v-21h-16zM196 0v68
h16v-68h-16z" />
    <glyph glyph-name="a.sc" unicode="&#xf761;" horiz-adv-x="466" 
d="M15 0l209 520h18l209 -520h-17l-73 180h-257l-72 -180h-17zM232 501l-123 -307h247l-123 307h-1z" />
    <glyph glyph-name="b.sc" unicode="&#xf762;" horiz-adv-x="540" 
d="M99 0v520h204q79 0 118 -31.5t39 -88.5q0 -46 -26 -80t-74 -44q59 -10 90 -44t31 -86q0 -66 -42 -106t-124 -40h-216zM315 268h-200v-254h200q75 0 112.5 35.5t37.5 96.5q0 54 -38 88t-112 34zM303 506h-188v-224h195q63 0 98.5 33t35.5 85q0 106 -141 106z" />
    <glyph glyph-name="c.sc" unicode="&#xf763;" horiz-adv-x="573" 
d="M52 260q0 111 69.5 189.5t179.5 78.5q87 0 145 -43.5t80 -117.5h-15q-22 68 -75.5 107.5t-134.5 39.5q-103 0 -168 -74.5t-65 -179.5t65 -179.5t168 -74.5q80 0 133.5 39.5t76.5 108.5h15q-24 -75 -81.5 -118.5t-143.5 -43.5q-110 0 -179.5 78.5t-69.5 189.5z" />
    <glyph glyph-name="d.sc" unicode="&#xf764;" horiz-adv-x="571" 
d="M99 0v520h134q138 0 212.5 -71.5t74.5 -188.5q0 -116 -74.5 -188t-212.5 -72h-134zM233 506h-118v-492h118q131 0 201 68.5t70 177.5q0 111 -69.5 178.5t-201.5 67.5z" />
    <glyph glyph-name="e.sc" unicode="&#xf765;" horiz-adv-x="496" 
d="M99 0v520h347v-14h-331v-233h272v-14h-272v-245h339v-14h-355z" />
    <glyph glyph-name="f.sc" unicode="&#xf766;" horiz-adv-x="461" 
d="M99 0v520h343v-14h-327v-236h267v-14h-267v-256h-16z" />
    <glyph glyph-name="g.sc" unicode="&#xf767;" horiz-adv-x="611" 
d="M306 250v14h226v-264h-14l-1 121h-1q-24 -64 -81.5 -96.5t-132.5 -32.5q-111 0 -180.5 78.5t-69.5 189.5q0 116 72.5 192t186.5 76q90 0 146.5 -44.5t71.5 -112.5h-16q-15 62 -67 102.5t-135 40.5q-107 0 -175 -72t-68 -182q0 -105 65 -179.5t169 -74.5q91 0 152.5 49
t61.5 145v50h-210z" />
    <glyph glyph-name="h.sc" unicode="&#xf768;" horiz-adv-x="588" 
d="M99 0v520h16v-250h359v250h16v-520h-16v256h-359v-256h-16z" />
    <glyph glyph-name="i.sc" unicode="&#xf769;" horiz-adv-x="214" 
d="M99 0v520h16v-520h-16z" />
    <glyph glyph-name="j.sc" unicode="&#xf76a;" horiz-adv-x="433" 
d="M54 141v31h16v-31q0 -68 34.5 -101t95.5 -33q58 0 94.5 34t36.5 101v378h16v-378q0 -74 -41 -111.5t-106 -37.5q-68 0 -107 36.5t-39 111.5z" />
    <glyph glyph-name="k.sc" unicode="&#xf76b;" horiz-adv-x="531" 
d="M99 0v520h16v-362l347 362h20l-216 -225l232 -295h-19l-223 285l-141 -146v-139h-16z" />
    <glyph glyph-name="l.sc" unicode="&#xf76c;" horiz-adv-x="448" 
d="M99 0v520h16v-506h311v-14h-327z" />
    <glyph glyph-name="m.sc" unicode="&#xf76d;" horiz-adv-x="714" 
d="M99 0v520h17l240 -500h1l241 500h17v-520h-16l1 490h-1l-236 -490h-13l-235 490h-1l1 -490h-16z" />
    <glyph glyph-name="n.sc" unicode="&#xf76e;" horiz-adv-x="592" 
d="M99 0v520h15l362 -492h1v492h16v-520h-15l-362 493h-1v-493h-16z" />
    <glyph glyph-name="o.sc" unicode="&#xf76f;" horiz-adv-x="603" 
d="M52 260q0 115 70.5 191.5t179.5 76.5q106 0 178 -77t72 -191q0 -113 -72 -190.5t-178 -77.5q-109 0 -179.5 77t-70.5 191zM68 260q0 -108 66 -181t168 -73q100 0 167 73.5t67 180.5t-67 180.5t-167 73.5q-102 0 -168 -73t-66 -181z" />
    <glyph glyph-name="p.sc" unicode="&#xf770;" horiz-adv-x="512" 
d="M99 0v520h195q80 0 125 -43t45 -113t-45 -113t-125 -43h-179v-208h-16zM294 506h-179v-284h179q72 0 113 39t41 103t-41 103t-113 39z" />
    <glyph glyph-name="q.sc" unicode="&#xf771;" horiz-adv-x="603" 
d="M52 260q0 115 70.5 191.5t179.5 76.5q106 0 178 -77t72 -191q0 -66 -26 -121.5t-72 -92.5l106 -110l-11 -10l-106 111q-62 -45 -141 -45q-109 0 -179.5 77t-70.5 191zM68 260q0 -108 66 -181t168 -73q100 0 167 73.5t67 180.5t-67 180.5t-167 73.5q-102 0 -168 -73
t-66 -181z" />
    <glyph glyph-name="r.sc" unicode="&#xf772;" horiz-adv-x="536" 
d="M99 0v520h205q80 0 122.5 -36.5t42.5 -102.5q0 -64 -41.5 -103t-115.5 -41l166 -237h-17l-167 237h-179v-237h-16zM304 506h-189v-255h189q70 0 109.5 35.5t39.5 94.5t-38.5 92t-110.5 33z" />
    <glyph glyph-name="s.sc" unicode="&#xf773;" horiz-adv-x="492" 
d="M55 141h16q0 -65 50 -100t132 -35q78 0 122.5 36.5t44.5 97.5q0 52 -36.5 79t-88 35.5t-103.5 17.5t-88.5 38t-36.5 84q0 59 49.5 96.5t133.5 37.5q83 0 132.5 -39t49.5 -99h-16q0 54 -45 89t-121 35q-78 0 -122.5 -33t-44.5 -87q0 -51 36.5 -77t88.5 -34.5t104 -17.5
t88.5 -38.5t36.5 -85.5q0 -67 -49.5 -108t-134.5 -41q-88 0 -143 39.5t-55 109.5z" />
    <glyph glyph-name="t.sc" unicode="&#xf774;" horiz-adv-x="460" 
d="M12 506v14h436v-14h-210v-506h-16v506h-210z" />
    <glyph glyph-name="u.sc" unicode="&#xf775;" horiz-adv-x="571" 
d="M86 204v316h16v-316q0 -97 49.5 -147t133.5 -50q85 0 134 50t49 147v316h16v-316q0 -105 -53.5 -158t-145.5 -53t-145.5 53t-53.5 158z" />
    <glyph glyph-name="v.sc" unicode="&#xf776;" horiz-adv-x="466" 
d="M224 0l-209 520h17l201 -501h1l200 501h17l-209 -520h-18z" />
    <glyph glyph-name="w.sc" unicode="&#xf777;" horiz-adv-x="707" 
d="M168 0l-152 520h16l146 -502h1l167 502h16l167 -502h1l146 502h16l-152 -520h-21l-165 498h-1l-165 -498h-20z" />
    <glyph glyph-name="x.sc" unicode="&#xf778;" horiz-adv-x="460" 
d="M23 0l196 265l-192 255h18l183 -243l181 243h17l-189 -255l201 -265h-18l-192 253l-188 -253h-17z" />
    <glyph glyph-name="y.sc" unicode="&#xf779;" horiz-adv-x="439" 
d="M211 0v215l-203 305h18l193 -289h1l193 289h17l-203 -305v-215h-16z" />
    <glyph glyph-name="z.sc" unicode="&#xf77a;" horiz-adv-x="460" 
d="M52 506v14h364v-9l-358 -497h355v-14h-377v8l358 498h-342z" />
    <glyph glyph-name="exclamdown.sc" unicode="&#xf7a1;" horiz-adv-x="194" 
d="M89 452v68h16v-68h-16zM89 0v124l2 258h12l2 -258v-124h-16z" />
    <glyph glyph-name="questiondown.sc" unicode="&#xf7bf;" horiz-adv-x="414" 
d="M219 372v-20q0 -36 -17.5 -63.5t-42.5 -44.5t-50 -33.5t-42.5 -40.5t-17.5 -56q0 -50 44 -78.5t110 -28.5q72 0 117.5 35.5t45.5 103.5h15q0 -74 -49.5 -113.5t-128.5 -39.5q-73 0 -121.5 32.5t-48.5 88.5q0 34 17.5 60t42.5 42.5l50 33t42.5 42t17.5 59.5v21h16z
M218 520v-68h-16v68h16z" />
    <glyph glyph-name="agrave.sc" unicode="&#xf7e0;" horiz-adv-x="466" 
d="M15 0l209 520h18l209 -520h-17l-73 180h-257l-72 -180h-17zM232 501l-123 -307h247l-123 307h-1zM228 600l-116 164h20l110 -164h-14z" />
    <glyph glyph-name="aacute.sc" unicode="&#xf7e1;" horiz-adv-x="466" 
d="M15 0l209 520h18l209 -520h-17l-73 180h-257l-72 -180h-17zM232 501l-123 -307h247l-123 307h-1zM224 600l110 164h20l-116 -164h-14z" />
    <glyph glyph-name="acircumflex.sc" unicode="&#xf7e2;" horiz-adv-x="466" 
d="M15 0l209 520h18l209 -520h-17l-73 180h-257l-72 -180h-17zM232 501l-123 -307h247l-123 307h-1zM96 600l129 164h16l129 -164h-17l-120 153l-120 -153h-17z" />
    <glyph glyph-name="atilde.sc" unicode="&#xf7e3;" horiz-adv-x="466" 
d="M15 0l209 520h18l209 -520h-17l-73 180h-257l-72 -180h-17zM232 501l-123 -307h247l-123 307h-1zM101 642q8 76 64 76q25 0 74 -30t70 -30q43 0 51 64h12q-3 -30 -19 -53t-45 -23q-25 0 -73.5 30t-69.5 30q-44 0 -52 -64h-12z" />
    <glyph glyph-name="adieresis.sc" unicode="&#xf7e4;" horiz-adv-x="466" 
d="M15 0l209 520h18l209 -520h-17l-73 180h-257l-72 -180h-17zM232 501l-123 -307h247l-123 307h-1zM321 640v84h16v-84h-16zM132 640v84h16v-84h-16z" />
    <glyph glyph-name="aring.sc" unicode="&#xf7e5;" horiz-adv-x="466" 
d="M15 0l209 520h18l209 -520h-17l-73 180h-257l-72 -180h-17zM232 501l-123 -307h247l-123 307h-1zM233 607q-33 0 -59.5 24t-26.5 61q0 38 26.5 61.5t59.5 23.5t59.5 -23.5t26.5 -61.5q0 -37 -26.5 -61t-59.5 -24zM233 620q28 0 50 19.5t22 52.5t-22 52.5t-50 19.5
t-50 -19.5t-22 -52.5t22 -52.5t50 -19.5z" />
    <glyph glyph-name="ae.sc" unicode="&#xf7e6;" horiz-adv-x="819" 
d="M7 0l411 520h351v-14h-332v-233h272v-14h-272v-245h340v-14h-356v133h-291l-104 -133h-19zM141 147h280v356z" />
    <glyph glyph-name="ccedilla.sc" unicode="&#xf7e7;" horiz-adv-x="573" 
d="M266 -62l24 54q-105 4 -171.5 82t-66.5 186q0 111 69.5 189.5t179.5 78.5q87 0 145 -43.5t80 -117.5h-15q-22 68 -75.5 107.5t-134.5 39.5q-103 0 -168 -74.5t-65 -179.5t65 -179.5t168 -74.5q80 0 133.5 39.5t76.5 108.5h15q-24 -75 -81 -118t-143 -44l-17 -42
q45 -1 68 -22.5t23 -53.5t-22 -56t-69 -24h-45v13h44q41 0 59 20t18 47q0 28 -20 46t-60 18h-15z" />
    <glyph glyph-name="egrave.sc" unicode="&#xf7e8;" horiz-adv-x="496" 
d="M99 0v520h347v-14h-331v-233h272v-14h-272v-245h339v-14h-355zM271 600l-116 164h20l110 -164h-14z" />
    <glyph glyph-name="eacute.sc" unicode="&#xf7e9;" horiz-adv-x="496" 
d="M99 0v520h347v-14h-331v-233h272v-14h-272v-245h339v-14h-355zM267 600l110 164h20l-116 -164h-14z" />
    <glyph glyph-name="ecircumflex.sc" unicode="&#xf7ea;" horiz-adv-x="496" 
d="M99 0v520h347v-14h-331v-233h272v-14h-272v-245h339v-14h-355zM139 600l129 164h16l129 -164h-17l-120 153l-120 -153h-17z" />
    <glyph glyph-name="edieresis.sc" unicode="&#xf7eb;" horiz-adv-x="496" 
d="M99 0v520h347v-14h-331v-233h272v-14h-272v-245h339v-14h-355zM364 640v84h16v-84h-16zM175 640v84h16v-84h-16z" />
    <glyph glyph-name="igrave.sc" unicode="&#xf7ec;" horiz-adv-x="214" 
d="M99 0v520h16v-520h-16zM102 600l-116 164h20l110 -164h-14z" />
    <glyph glyph-name="iacute.sc" unicode="&#xf7ed;" horiz-adv-x="214" 
d="M99 0v520h16v-520h-16zM98 600l110 164h20l-116 -164h-14z" />
    <glyph glyph-name="icircumflex.sc" unicode="&#xf7ee;" horiz-adv-x="214" 
d="M99 0v520h16v-520h-16zM-30 600l129 164h16l129 -164h-17l-120 153l-120 -153h-17z" />
    <glyph glyph-name="idieresis.sc" unicode="&#xf7ef;" horiz-adv-x="214" 
d="M99 0v520h16v-520h-16zM195 640v84h16v-84h-16zM6 640v84h16v-84h-16z" />
    <glyph glyph-name="eth.sc" unicode="&#xf7f0;" horiz-adv-x="571" 
d="M4 254v13h95v253h134q138 0 212.5 -71.5t74.5 -188.5q0 -116 -74.5 -188t-212.5 -72h-134v254h-95zM233 506h-118v-239h119v-13h-119v-240h118q131 0 201 68.5t70 177.5q0 111 -69.5 178.5t-201.5 67.5z" />
    <glyph glyph-name="ntilde.sc" unicode="&#xf7f1;" horiz-adv-x="592" 
d="M99 0v520h15l362 -492h1v492h16v-520h-15l-362 493h-1v-493h-16zM164 642q8 76 64 76q25 0 74 -30t70 -30q43 0 51 64h12q-3 -30 -19 -53t-45 -23q-25 0 -73.5 30t-69.5 30q-44 0 -52 -64h-12z" />
    <glyph glyph-name="ograve.sc" unicode="&#xf7f2;" horiz-adv-x="603" 
d="M52 260q0 115 70.5 191.5t179.5 76.5q106 0 178 -77t72 -191q0 -113 -72 -190.5t-178 -77.5q-109 0 -179.5 77t-70.5 191zM68 260q0 -108 66 -181t168 -73q100 0 167 73.5t67 180.5t-67 180.5t-167 73.5q-102 0 -168 -73t-66 -181zM297 600l-116 164h20l110 -164h-14z
" />
    <glyph glyph-name="oacute.sc" unicode="&#xf7f3;" horiz-adv-x="603" 
d="M52 260q0 115 70.5 191.5t179.5 76.5q106 0 178 -77t72 -191q0 -113 -72 -190.5t-178 -77.5q-109 0 -179.5 77t-70.5 191zM68 260q0 -108 66 -181t168 -73q100 0 167 73.5t67 180.5t-67 180.5t-167 73.5q-102 0 -168 -73t-66 -181zM293 600l110 164h20l-116 -164h-14z
" />
    <glyph glyph-name="ocircumflex.sc" unicode="&#xf7f4;" horiz-adv-x="603" 
d="M52 260q0 115 70.5 191.5t179.5 76.5q106 0 178 -77t72 -191q0 -113 -72 -190.5t-178 -77.5q-109 0 -179.5 77t-70.5 191zM68 260q0 -108 66 -181t168 -73q100 0 167 73.5t67 180.5t-67 180.5t-167 73.5q-102 0 -168 -73t-66 -181zM165 600l129 164h16l129 -164h-17
l-120 153l-120 -153h-17z" />
    <glyph glyph-name="otilde.sc" unicode="&#xf7f5;" horiz-adv-x="603" 
d="M52 260q0 115 70.5 191.5t179.5 76.5q106 0 178 -77t72 -191q0 -113 -72 -190.5t-178 -77.5q-109 0 -179.5 77t-70.5 191zM68 260q0 -108 66 -181t168 -73q100 0 167 73.5t67 180.5t-67 180.5t-167 73.5q-102 0 -168 -73t-66 -181zM170 642q8 76 64 76q25 0 74 -30
t70 -30q43 0 51 64h12q-3 -30 -19 -53t-45 -23q-25 0 -73.5 30t-69.5 30q-44 0 -52 -64h-12z" />
    <glyph glyph-name="odieresis.sc" unicode="&#xf7f6;" horiz-adv-x="603" 
d="M52 260q0 115 70.5 191.5t179.5 76.5q106 0 178 -77t72 -191q0 -113 -72 -190.5t-178 -77.5q-109 0 -179.5 77t-70.5 191zM68 260q0 -108 66 -181t168 -73q100 0 167 73.5t67 180.5t-67 180.5t-167 73.5q-102 0 -168 -73t-66 -181zM390 640v84h16v-84h-16zM201 640v84h16
v-84h-16z" />
    <glyph glyph-name="oslash.sc" unicode="&#xf7f8;" horiz-adv-x="603" 
d="M64 -8l62 73q-75 77 -75 195q0 115 71 191.5t180 76.5q97 0 165 -65l56 65h17l-63 -74q75 -78 75 -194q0 -113 -72 -190.5t-178 -77.5q-98 0 -167 63l-54 -63h-17zM68 260q0 -111 68 -184l322 376q-65 62 -156 62q-102 0 -168 -73t-66 -181zM536 260q0 108 -69 182
l-322 -375q64 -61 157 -61q100 0 167 73.5t67 180.5z" />
    <glyph glyph-name="ugrave.sc" unicode="&#xf7f9;" horiz-adv-x="571" 
d="M86 204v316h16v-316q0 -97 49.5 -147t133.5 -50q85 0 134 50t49 147v316h16v-316q0 -105 -53.5 -158t-145.5 -53t-145.5 53t-53.5 158zM280 600l-116 164h20l110 -164h-14z" />
    <glyph glyph-name="uacute.sc" unicode="&#xf7fa;" horiz-adv-x="571" 
d="M86 204v316h16v-316q0 -97 49.5 -147t133.5 -50q85 0 134 50t49 147v316h16v-316q0 -105 -53.5 -158t-145.5 -53t-145.5 53t-53.5 158zM276 600l110 164h20l-116 -164h-14z" />
    <glyph glyph-name="ucircumflex.sc" unicode="&#xf7fb;" horiz-adv-x="571" 
d="M86 204v316h16v-316q0 -97 49.5 -147t133.5 -50q85 0 134 50t49 147v316h16v-316q0 -105 -53.5 -158t-145.5 -53t-145.5 53t-53.5 158zM148 600l129 164h16l129 -164h-17l-120 153l-120 -153h-17z" />
    <glyph glyph-name="udieresis.sc" unicode="&#xf7fc;" horiz-adv-x="571" 
d="M86 204v316h16v-316q0 -97 49.5 -147t133.5 -50q85 0 134 50t49 147v316h16v-316q0 -105 -53.5 -158t-145.5 -53t-145.5 53t-53.5 158zM373 640v84h16v-84h-16zM184 640v84h16v-84h-16z" />
    <glyph glyph-name="yacute.sc" unicode="&#xf7fd;" horiz-adv-x="439" 
d="M211 0v215l-203 305h18l193 -289h1l193 289h17l-203 -305v-215h-16zM210 600l110 164h20l-116 -164h-14z" />
    <glyph glyph-name="thorn.sc" unicode="&#xf7fe;" horiz-adv-x="512" 
d="M99 0v520h16v-94h179q80 0 125 -43t45 -113q0 -71 -45 -114t-125 -43h-179v-113h-16zM294 412h-179v-285h179q72 0 113 39.5t41 103.5t-41 103t-113 39z" />
    <glyph glyph-name="ydieresis.sc" unicode="&#xf7ff;" horiz-adv-x="439" 
d="M211 0v215l-203 305h18l193 -289h1l193 289h17l-203 -305v-215h-16zM307 640v84h16v-84h-16zM118 640v84h16v-84h-16z" />
    <glyph glyph-name="at.sc" horiz-adv-x="818" 
d="M249 89q0 88 110 102l111 15q49 6 49 39q0 57 -31.5 87t-84.5 30q-50 0 -85.5 -28t-39.5 -80h-15q4 59 43.5 90.5t96.5 31.5q60 0 96 -33.5t36 -97.5v-158q0 -39 22.5 -60t56.5 -21q56 0 91.5 51t35.5 151q0 138 -96 222t-234 84q-143 0 -238.5 -94t-95.5 -244
q0 -149 92.5 -241.5t229.5 -92.5q140 0 210 84h17q-76 -98 -227 -98q-142 0 -240 97t-98 251q0 155 101 253.5t249 98.5q144 0 245 -88.5t101 -231.5q0 -105 -41 -160.5t-103 -55.5q-40 0 -67 24t-27 70v3q-18 -45 -57.5 -71t-96.5 -26q-54 0 -85 26.5t-31 70.5zM519 166v50
q-12 -19 -47 -24l-110 -14q-96 -14 -96 -88q0 -38 27 -61t72 -23q67 0 110.5 41.5t43.5 118.5z" />
    <glyph glyph-name="fi.sc" horiz-adv-x="673" 
d="M99 0v520h343v-14h-327v-236h267v-14h-267v-256h-16zM558 0v520h16v-520h-16z" />
    <glyph glyph-name="fl.sc" horiz-adv-x="906" 
d="M99 0v520h343v-14h-327v-236h267v-14h-267v-256h-16zM558 0v520h16v-506h312v-14h-328z" />
    <glyph glyph-name="t_t" horiz-adv-x="545" 
d="M359 130v345h-238v-345q0 -64 25 -90t79 -26h42v-14h-43q-60 0 -89.5 30t-29.5 100v345h-109v13h109v148h16v-148h238v148h16v-148h146v-13h-146v-345q0 -64 24.5 -90t78.5 -26h43v-14h-44q-60 0 -89 30t-29 100z" />
    <glyph glyph-name="t_f" horiz-adv-x="513" 
d="M359 0v475h-238v-345q0 -64 24.5 -90t77.5 -26h32v-14h-32q-60 0 -89 30t-29 100v345h-109v13h109v148h16v-148h238v102q0 142 131 142h35v-14h-34q-58 0 -87 -30.5t-29 -98.5v-101h134v-13h-134v-475h-16z" />
    <glyph glyph-name="caronquoteleft" horiz-adv-x="524" 
d="M253 568v62l33 107h8l-29 -110h4v-59h-16z" />
    <glyph glyph-name="caronquoteright" horiz-adv-x="524" 
d="M236 568l29 110h-4v59h16v-62l-32 -107h-9z" />
    <glyph glyph-name="slashedzero" horiz-adv-x="568" 
d="M284 -8q-114 0 -171.5 97t-57.5 255t57.5 255t171.5 97t171.5 -97t57.5 -255t-57.5 -255t-171.5 -97zM284 7q107 0 160 92.5t53 244.5q0 188 -78 276l-264 -560q51 -53 129 -53zM71 344q0 -183 74 -273l265 559q-53 51 -126 51q-71 0 -120 -45.5t-71 -119.5t-22 -172z
" />
    <glyph glyph-name="zero.sc" horiz-adv-x="504" 
d="M252 -8q-96 0 -145 74t-49 194t49 194t145 74t145 -74.5t49 -193.5t-49 -193.5t-145 -74.5zM252 6q90 0 134 69t44 185q0 115 -45.5 184.5t-132.5 69.5q-88 0 -133 -69.5t-45 -184.5t45 -184.5t133 -69.5z" />
    <glyph glyph-name="one.sc" horiz-adv-x="504" 
d="M90 395l-8 11l184 114h11v-506h168v-14h-361v14h177v486z" />
    <glyph glyph-name="two.sc" horiz-adv-x="504" 
d="M77 0q2 57 17.5 94.5t42 62t75.5 50.5l64 35q5 2 24 12t25.5 13.5t22.5 13.5t22.5 16t18 17t16 21t8.5 23.5t4 28.5q0 58 -43 92.5t-111 34.5q-70 0 -119 -35.5t-51 -110.5h-15q3 82 56.5 121t128.5 39q74 0 122 -38t48 -103q0 -14 -2 -27t-9 -24.5t-11.5 -20t-17 -19
t-17.5 -15t-22.5 -14.5t-21.5 -12.5t-24.5 -13t-22.5 -11.5l-64 -35q-69 -36 -95.5 -73.5t-30.5 -107.5h342v-14h-360z" />
    <glyph glyph-name="three.sc" horiz-adv-x="504" 
d="M59 148h16q0 -71 49.5 -106.5t127.5 -35.5q86 0 131.5 34t45.5 97q0 58 -48.5 94t-128.5 36h-42v13h42q72 0 113 32t41 86q0 55 -42.5 85.5t-111.5 30.5q-65 0 -109.5 -33t-44.5 -97h-15q0 69 49 106.5t120 37.5q77 0 123 -34.5t46 -95.5q0 -50 -30 -81.5t-79 -42.5v-1
q55 -10 94 -45.5t39 -91.5q0 -68 -50.5 -106t-142.5 -38q-85 0 -139 39t-54 117z" />
    <glyph glyph-name="four.sc" horiz-adv-x="504" 
d="M40 155v11l304 354h12v-352h98v-13h-98v-155h-16v155h-300zM59 168h281v327z" />
    <glyph glyph-name="five.sc" horiz-adv-x="504" 
d="M70 136h16q8 -56 54 -93t123 -37q74 0 121.5 45t47.5 113t-47.5 113.5t-121.5 45.5q-47 0 -92 -24.5t-71 -65.5l-18 1l19 286h315v-14h-300l-18 -255h1q26 38 71 61.5t94 23.5q80 0 132 -49.5t52 -122.5q0 -74 -52.5 -123t-132.5 -49q-85 0 -134 40t-59 104z" />
    <glyph glyph-name="six.sc" horiz-adv-x="504" 
d="M75 241q0 -27 1 -40h2q11 59 61 97t122 38q80 0 132 -49t52 -123t-52 -123t-133 -49q-201 0 -201 249q0 144 59 215.5t149 71.5q76 0 117.5 -37t49.5 -99h-16q-17 122 -151 122q-84 0 -138 -67.5t-54 -205.5zM86 165q0 -27 4 -39q36 -120 170 -120q74 0 121.5 45
t47.5 113t-47.5 113.5t-121.5 45.5q-75 0 -124.5 -45.5t-49.5 -112.5z" />
    <glyph glyph-name="seven.sc" horiz-adv-x="504" 
d="M182 0l265 506h-372v14h390v-11l-266 -509h-17z" />
    <glyph glyph-name="eight.sc" horiz-adv-x="504" 
d="M83 398q0 60 46.5 95t122.5 35t122.5 -35t46.5 -95q0 -50 -30 -81.5t-79 -42.5v-1q55 -10 94 -45.5t39 -91.5q0 -69 -50 -106.5t-143 -37.5t-143 37.5t-50 106.5q0 56 39 91.5t94 45.5v1q-49 11 -79 42.5t-30 81.5zM75 137q0 -63 45.5 -97t131.5 -34t131.5 34t45.5 97
q0 58 -48.5 94t-128.5 36t-128.5 -36t-48.5 -94zM98 398q0 -54 41 -86t113 -32t113 32t41 86t-42.5 85t-111.5 31t-111.5 -31t-42.5 -85z" />
    <glyph glyph-name="nine.sc" horiz-adv-x="504" 
d="M432 279q0 13 -2 39h-1q-11 -59 -61 -96.5t-122 -37.5q-80 0 -132 47.5t-52 120.5q0 74 53 125t133 51q201 0 201 -249q0 -147 -55 -217t-149 -70q-77 0 -120 37t-51 99h16q8 -56 46.5 -89t108.5 -33q87 0 137 66.5t50 206.5zM421 356q0 26 -4 38q-37 120 -169 120
q-74 0 -122 -47t-48 -115q0 -66 48 -110t122 -44q75 0 124 45t49 113z" />
    <glyph glyph-name="slashedzero.sc" horiz-adv-x="504" 
d="M252 -8q-96 0 -145 74t-49 194t49 194t145 74t145 -74.5t49 -193.5t-49 -193.5t-145 -74.5zM74 260q0 -151 71 -215l204 437q-42 32 -97 32q-88 0 -133 -69.5t-45 -184.5zM252 6q90 0 134 69t44 185q0 149 -71 214l-204 -437q40 -31 97 -31z" />
    <glyph glyph-name="currency.sc" horiz-adv-x="504" 
d="M81 79l-9 9l60 61q-41 48 -41 111q0 65 41 111l-59 60l9 9l59 -60q46 44 111 44q64 0 110 -43l58 59l9 -9l-59 -59q43 -48 43 -112t-43 -112l60 -60l-9 -9l-59 60q-45 -43 -110 -43q-67 0 -111 44zM252 109q63 0 104.5 43.5t41.5 107.5t-41.5 107.5t-104.5 43.5
t-104.5 -43.5t-41.5 -107.5t41.5 -107.5t104.5 -43.5z" />
    <glyph glyph-name="dollar.sc" horiz-adv-x="504" 
d="M63 144h15q4 -66 53 -101.5t124 -35.5q77 0 123.5 35t46.5 94q0 46 -27 71.5t-94 42.5l-101 26q-30 8 -49 15t-39.5 20t-30.5 33.5t-10 49.5q0 57 45.5 94.5t124.5 39.5v88h15v-88q71 -2 117.5 -39.5t51.5 -100.5h-15q-6 59 -50 92.5t-111 33.5q-75 0 -118.5 -33
t-43.5 -86q0 -49 29 -69.5t88 -35.5l101 -26q73 -18 103 -46.5t30 -80.5q0 -64 -49.5 -103t-128.5 -41v-93h-15v93q-80 2 -130.5 41t-54.5 110z" />
    <glyph glyph-name="cent.sc" horiz-adv-x="504" 
d="M261 -7v79q-80 2 -131.5 55.5t-51.5 135.5q0 81 51.5 134.5t131.5 56.5v73h16v-73q63 -2 106 -35.5t54 -87.5h-15q-10 50 -51.5 79.5t-101.5 29.5q-77 0 -126 -49.5t-49 -127.5t49.5 -127.5t125.5 -49.5q60 0 101 29.5t52 79.5h15q-10 -54 -54 -87.5t-107 -35.5v-79h-15z
" />
    <glyph glyph-name="Euro.sc" horiz-adv-x="504" 
d="M27 199l2 12h71q-2 32 -2 49q0 29 3 56h-60l2 12h60q14 91 64.5 145.5t132.5 54.5q65 0 105.5 -36.5t56.5 -100.5h-16q-13 57 -50 90t-96 33q-75 0 -121.5 -50.5t-59.5 -135.5h196l-2 -12h-196q-3 -27 -3 -56q0 -19 2 -49h186l-2 -12h-182q12 -88 58.5 -140.5
t123.5 -52.5q109 0 142 108h16q-38 -122 -158 -122q-84 0 -135 56.5t-63 150.5h-75z" />
    <glyph glyph-name="yen.sc" horiz-adv-x="504" 
d="M95 208v12h147l-204 300h19l195 -287h1l195 287h18l-205 -300h148v-12h-149v-86h149v-12h-149v-110h-16v110h-149v12h149v86h-149z" />
    <glyph glyph-name="sterling.sc" horiz-adv-x="504" 
d="M78 262v12h81q-43 74 -43 118q0 61 41 98.5t111 37.5q67 0 106 -34t43 -98h-15q-3 56 -38.5 87t-95.5 31q-62 0 -99 -34t-37 -88q0 -40 44 -118h168v-12h-161q34 -64 34 -111q0 -28 -8 -62q9 -7 28 -22.5t29.5 -23.5t27 -18t31.5 -14.5t31 -4.5q26 0 44 10t28 29.5t14 36
t8 42.5h15q-5 -30 -10 -49t-16.5 -40.5t-32 -32t-50.5 -10.5q-17 0 -32.5 4t-34 16t-26.5 17t-31.5 24.5t-26.5 22.5q-27 -84 -100 -84q-38 0 -58.5 20t-20.5 50q0 31 22 52t58 21q42 0 91 -37q5 22 5 52q0 46 -36 112h-88zM105 5q69 0 89 80q-48 37 -88 37q-31 0 -48.5 -18
t-17.5 -42t16.5 -40.5t48.5 -16.5z" />
    <glyph glyph-name="florin.sc" horiz-adv-x="504" 
d="M112 256v12h114l16 137q14 122 108 122q102 0 91 -121l-2 -22h-15l2 22q5 58 -14.5 82.5t-61.5 24.5q-79 0 -92 -108l-16 -137h132v-12h-133l-32 -280q-14 -122 -108 -122q-102 0 -91 121l2 22h15l-2 -22q-5 -58 14.5 -82.5t61.5 -24.5q79 0 92 108l32 280h-113z" />
    <glyph glyph-name="zero.TOSF" horiz-adv-x="568" 
d="M55 244q0 111 65.5 181.5t163.5 70.5q103 0 166 -69.5t63 -182.5q0 -110 -65.5 -181t-163.5 -71q-102 0 -165.5 70.5t-63.5 181.5zM71 244q0 -105 59 -171.5t154 -66.5q91 0 152 67t61 171q0 106 -59 172t-154 66q-91 0 -152 -66.5t-61 -171.5z" />
    <glyph glyph-name="one.TOSF" horiz-adv-x="568" 
d="M105 338l-6 11l202 143h11v-478h208v-14h-441v14h217v458z" />
    <glyph glyph-name="two.TOSF" horiz-adv-x="568" 
d="M85 0q0 145 152 201l86 32q67 24 101 51.5t34 78.5q0 50 -45.5 84.5t-124.5 34.5q-81 0 -132.5 -37t-55.5 -112h-15q3 82 59.5 122.5t143.5 40.5q84 0 135 -38t51 -95q0 -56 -37 -86.5t-108 -55.5l-86 -32q-63 -23 -101.5 -68t-38.5 -107h386v-14h-404z" />
    <glyph glyph-name="three.TOSF" horiz-adv-x="568" 
d="M55 -3h15q0 -92 56.5 -141.5t149.5 -49.5t153 47t60 128q0 75 -61.5 124t-151.5 49h-52v14h52q81 0 133 43t52 114q0 73 -53.5 115t-131.5 42q-80 0 -132.5 -44.5t-52.5 -130.5h-15q0 92 56.5 140.5t143.5 48.5q86 0 143.5 -45.5t57.5 -125.5q0 -63 -40.5 -107.5
t-104.5 -55.5v-1q73 -12 123 -61.5t50 -119.5q0 -88 -64.5 -138t-164.5 -50t-160.5 52.5t-60.5 152.5z" />
    <glyph glyph-name="four.TOSF" horiz-adv-x="568" 
d="M39 8v11l352 473h13v-470h118v-14h-118v-208h-16v208h-349zM58 22h330v442z" />
    <glyph glyph-name="five.TOSF" horiz-adv-x="568" 
d="M82 -30h16q9 -66 60.5 -115t141.5 -49q88 0 146.5 58t58.5 155q0 92 -55.5 149.5t-146.5 57.5q-121 0 -187 -116l-18 1l20 377h363v-14h-347l-20 -343h1q67 109 189 109q98 0 157.5 -61t59.5 -159q0 -104 -63 -166t-158 -62q-96 0 -151.5 51.5t-66.5 126.5z" />
    <glyph glyph-name="six.TOSF" horiz-adv-x="568" 
d="M66 328q0 191 65.5 279.5t172.5 88.5q88 0 139.5 -49t60.5 -131h-15q-9 75 -56 120.5t-129 45.5q-100 0 -161 -85t-61 -269q0 -46 4 -78h2q10 86 70.5 138t146.5 52q98 0 157 -61.5t59 -158.5q0 -103 -63 -165.5t-158 -62.5q-108 0 -171 81.5t-63 254.5zM98 213
q0 -33 3 -43q46 -164 199 -164q89 0 147 58t58 156q0 91 -55 148.5t-146 57.5q-89 0 -147.5 -58.5t-58.5 -154.5z" />
    <glyph glyph-name="seven.TOSF" horiz-adv-x="568" 
d="M204 -200l292 674h-433v14h450v-12l-292 -676h-17z" />
    <glyph glyph-name="eight.TOSF" horiz-adv-x="568" 
d="M55 180q0 70 50 119.5t123 61.5v1q-64 11 -104.5 55.5t-40.5 107.5q0 80 57.5 125.5t143.5 45.5t143.5 -45.5t57.5 -125.5q0 -63 -40.5 -107.5t-104.5 -55.5v-1q73 -12 123 -61.5t50 -119.5q0 -88 -64.5 -138t-164.5 -50t-164.5 50t-64.5 138zM71 181q0 -81 60 -128
t153 -47t153 47t60 128q0 75 -61.5 124t-151.5 49t-151.5 -49t-61.5 -124zM284 368q81 0 133 43t52 114q0 73 -53.5 115t-131.5 42t-131.5 -42t-53.5 -115q0 -71 52 -114t133 -43z" />
    <glyph glyph-name="nine.TOSF" horiz-adv-x="568" 
d="M509 160q0 -192 -63.5 -280t-170.5 -88q-89 0 -142 49.5t-62 130.5h15q9 -75 58 -120.5t131 -45.5q101 0 159.5 84.5t58.5 269.5q0 39 -5 82h-1q-8 -88 -69.5 -141t-147.5 -53q-98 0 -157 61.5t-59 158.5q0 103 63 165.5t158 62.5q108 0 171 -81.5t63 -254.5zM477 276
q0 28 -4 41q-44 165 -198 165q-89 0 -147 -58t-58 -156q0 -91 55 -148.5t146 -57.5q89 0 147.5 58.5t58.5 155.5z" />
    <glyph glyph-name="slashedzero.TOSF" horiz-adv-x="568" 
d="M55 244q0 111 65.5 181.5t163.5 70.5q103 0 166 -69.5t63 -182.5q0 -110 -65.5 -181t-163.5 -71q-102 0 -165.5 70.5t-63.5 181.5zM497 244q0 114 -67 181l-283 -370q54 -49 137 -49q91 0 152 67t61 171zM71 244q0 -115 67 -180l283 370q-56 48 -137 48q-91 0 -152 -66.5
t-61 -171.5z" />
    <glyph glyph-name="zero.PPF" horiz-adv-x="526" 
d="M263 -8q-106 0 -159 97t-53 255t53 255t159 97q71 0 119.5 -47t70 -124.5t21.5 -180.5t-21.5 -180.5t-70 -124.5t-119.5 -47zM263 7q97 0 146 93t49 244t-49 244t-146 93t-146 -93t-49 -244t49 -244t146 -93z" />
    <glyph glyph-name="one.PPF" horiz-adv-x="284" 
d="M15 566l-7 12l167 115h11v-693h-16v673z" />
    <glyph glyph-name="two.PPF" horiz-adv-x="485" 
d="M47 0q3 108 38 161t123 113l76 52q3 2 21 14.5t21.5 15t18.5 14t19 16t15.5 15.5t15 18t10.5 19.5t9 23t4.5 24.5t2.5 29q0 78 -47 122.5t-120 44.5q-77 0 -129 -46t-55 -148h-15q2 56 19 98t46 65t62 34t72 11q78 0 130.5 -48t52.5 -133q0 -16 -2.5 -31t-5 -26.5
t-9.5 -23.5t-11 -20t-15 -19t-16 -16.5t-19.5 -16.5t-20 -15t-22.5 -15.5t-22 -15.5l-76 -52q-84 -57 -117 -107t-37 -143h385v-14h-402z" />
    <glyph glyph-name="three.PPF" horiz-adv-x="512" 
d="M43 197h16q0 -94 53.5 -142.5t141.5 -48.5q86 0 140.5 48.5t54.5 130.5q0 75 -55.5 122t-139.5 47h-38v14h38q70 0 118.5 43.5t48.5 113.5q0 73 -49.5 115t-117.5 42q-70 0 -119 -44t-49 -131h-15q0 93 53 141t130 48q75 0 129 -46t54 -125q0 -61 -36 -104t-92 -59v-1
q69 -16 112.5 -61.5t43.5 -115.5q0 -88 -59 -140t-152 -52q-96 0 -153.5 51.5t-57.5 153.5z" />
    <glyph glyph-name="four.PPF" horiz-adv-x="508" 
d="M27 208v11l334 473h13v-470h107v-14h-107v-208h-16v208h-331zM45 222h313v442z" />
    <glyph glyph-name="five.PPF" horiz-adv-x="492" 
d="M50 170h16q10 -67 56.5 -115.5t130.5 -48.5q80 0 133.5 58.5t53.5 154.5q0 92 -50 149.5t-133 57.5q-100 0 -172 -116l-18 1l20 377h325v-14h-310l-19 -343h1q69 109 174 109q89 0 143.5 -61t54.5 -159q0 -103 -58.5 -165.5t-144.5 -62.5q-90 0 -140.5 51t-62.5 127z" />
    <glyph glyph-name="six.PPF" horiz-adv-x="513" 
d="M55 328q0 192 60 280t160 88q80 0 126.5 -49t55.5 -131h-15q-9 76 -51.5 121t-115.5 45q-94 0 -148.5 -84.5t-54.5 -269.5q0 -36 3 -70h2q11 83 66 132.5t133 49.5q89 0 143.5 -61.5t54.5 -158.5q0 -103 -58.5 -165.5t-144.5 -62.5q-216 0 -216 336zM87 213q0 -37 5 -60
q45 -147 178 -147q81 0 134.5 58.5t53.5 155.5q0 91 -50.5 148.5t-133.5 57.5q-80 0 -133.5 -58.5t-53.5 -154.5z" />
    <glyph glyph-name="seven.PPF" horiz-adv-x="417" 
d="M66 0l317 674h-367v14h385v-12l-317 -676h-18z" />
    <glyph glyph-name="eight.PPF" horiz-adv-x="516" 
d="M47 180q0 70 44 117.5t112 63.5v1q-56 16 -92 59t-36 104q0 79 54 125t129 46t129 -46t54 -125q0 -61 -36 -104t-92 -59v-1q68 -16 112 -63.5t44 -117.5q0 -88 -58.5 -138t-152.5 -50t-152.5 50t-58.5 138zM63 181q0 -82 54 -128.5t141 -46.5t141 46.5t54 128.5
q0 75 -55.5 124t-139.5 49t-139.5 -49t-55.5 -124zM258 368q70 0 118.5 43.5t48.5 113.5q0 73 -49.5 115t-117.5 42t-117.5 -42t-49.5 -115q0 -70 48.5 -113.5t118.5 -43.5z" />
    <glyph glyph-name="nine.PPF" horiz-adv-x="513" 
d="M462 360q0 -192 -58 -280t-158 -88q-80 0 -128.5 49.5t-57.5 130.5h15q9 -75 53.5 -120.5t117.5 -45.5q199 0 199 354q0 34 -3 69h-2q-12 -83 -67 -132t-132 -49q-90 0 -144 61.5t-54 158.5q0 103 58.5 165.5t144.5 62.5q216 0 216 -336zM430 476q0 31 -6 57
q-40 149 -178 149q-80 0 -133.5 -58.5t-53.5 -155.5q0 -91 50 -148.5t133 -57.5q81 0 134.5 59t53.5 155z" />
    <glyph glyph-name="slashedzero.PPF" horiz-adv-x="526" 
d="M263 -8q-106 0 -159 97t-53 255t53 255t159 97q71 0 119.5 -47t70 -124.5t21.5 -180.5t-21.5 -180.5t-70 -124.5t-119.5 -47zM263 7q97 0 146 93t49 244q0 184 -67 271l-251 -550q47 -58 123 -58zM68 344q0 -178 63 -267l251 550q-48 54 -119 54q-97 0 -146 -93t-49 -244
z" />
    <glyph glyph-name="currency.PPF" horiz-adv-x="460" 
d="M60 163l-9 9l60 61q-41 48 -41 111q0 65 41 111l-59 60l9 9l59 -60q46 44 111 44q64 0 110 -43l58 59l9 -9l-59 -59q43 -48 43 -112t-43 -112l60 -60l-9 -9l-59 60q-45 -43 -110 -43q-67 0 -111 44zM231 193q63 0 104.5 43.5t41.5 107.5t-41.5 107.5t-104.5 43.5
t-104.5 -43.5t-41.5 -107.5t41.5 -107.5t104.5 -43.5z" />
    <glyph glyph-name="dollar.PPF" horiz-adv-x="481" 
d="M36 178h15q6 -77 56 -123.5t123 -48.5h8q78 0 128.5 45.5t50.5 125.5q0 59 -31 95.5t-101 60.5l-100 35q-67 23 -102 58.5t-35 103.5q0 71 49.5 117t128.5 49v108h16v-108q70 -3 119 -48t56 -118h-15q-7 67 -52.5 108.5t-109.5 43.5h-6q-75 0 -122.5 -42t-47.5 -109
q0 -63 31 -94.5t96 -54.5l100 -35q74 -26 108 -66t34 -104q0 -83 -53.5 -132.5t-133.5 -52.5v-112h-16v112q-80 3 -134.5 53t-59.5 133z" />
    <glyph glyph-name="cent.PPF" horiz-adv-x="491" 
d="M253 -8v105q-90 3 -146 72t-56 179q0 108 58.5 178.5t144.5 73.5v96h16v-96q66 -3 114 -46t63 -115h-15q-16 68 -62 107.5t-109 39.5q-82 0 -138 -67.5t-56 -170.5q0 -105 54 -171t140 -66q63 0 109 39t62 107h15q-15 -72 -63.5 -115t-114.5 -45v-105h-16z" />
    <glyph glyph-name="Euro.PPF" horiz-adv-x="553" 
d="M22 421l2 13h71q16 120 76 191t157 71q77 0 126.5 -46.5t68.5 -129.5h-16q-39 162 -179 162q-90 0 -146 -67t-71 -181h236l-2 -13h-236q-4 -33 -4 -77q0 -36 3 -69h223l-1 -13h-220q15 -117 70.5 -186.5t146.5 -69.5q132 0 173 142h15q-42 -156 -188 -156
q-99 0 -158.5 73.5t-74.5 196.5h-88l1 13h85q-3 22 -3 69q0 44 4 77h-71z" />
    <glyph glyph-name="yen.PPF" horiz-adv-x="464" 
d="M18 688l214 -383h1l214 383h16l-223 -396h152v-13h-152v-119h152v-13h-152v-147h-16v147h-152v13h152v119h-152v13h151l-222 396h17z" />
    <glyph glyph-name="sterling.PPF" horiz-adv-x="519" 
d="M78 350v13h84q-36 106 -36 161q0 79 41.5 125.5t113.5 46.5q68 0 107.5 -44.5t42.5 -127.5h-15q-3 75 -38.5 116.5t-96.5 41.5q-65 0 -102 -42.5t-37 -114.5q0 -12 1 -23.5t3.5 -24.5t4.5 -21.5t6.5 -24t6.5 -22t8 -24t8 -22.5h165v-13h-160q29 -89 29 -150q0 -46 -8 -83
q10 -9 31.5 -29.5t34.5 -31.5t31.5 -24.5t37 -19.5t37.5 -6q27 0 47 11.5t30.5 26t17 39t8.5 41t4 40.5h15q-2 -32 -6.5 -56t-16.5 -53.5t-37.5 -46t-62.5 -16.5q-20 0 -38.5 5.5t-38.5 20t-31 23.5t-35 31.5t-31 29.5q-27 -110 -114 -110q-43 0 -67 25t-24 63t26 66t65 28
q49 0 104 -46q5 29 5 69q0 60 -31 153h-89zM89 6q80 0 102 107q-57 48 -102 48q-33 0 -54 -24t-21 -57q0 -32 20 -53t55 -21z" />
    <glyph glyph-name="florin.PPF" horiz-adv-x="480" 
d="M73 339v13h136l19 184q17 160 131 160q119 0 103 -158l-3 -30h-15l3 30q8 79 -14.5 111.5t-73.5 32.5q-101 0 -115 -146l-19 -184h158v-13h-160l-37 -371q-17 -160 -131 -160q-119 0 -103 158l3 30h15l-3 -30q-8 -79 14.5 -111.5t73.5 -32.5q101 0 115 146l38 371h-135z
" />
    <glyph glyph-name="zero.scppf" horiz-adv-x="470" 
d="M235 -8q-87 0 -133.5 74.5t-46.5 193.5t46.5 193.5t133.5 74.5t133 -74.5t46 -193.5t-46 -193.5t-133 -74.5zM235 6q79 0 121 71t42 183q0 113 -42 183.5t-121 70.5t-121.5 -71t-42.5 -183t42.5 -183t121.5 -71z" />
    <glyph glyph-name="one.scppf" horiz-adv-x="259" 
d="M15 420l-7 12l141 88h11v-520h-16v500z" />
    <glyph glyph-name="two.scppf" horiz-adv-x="421" 
d="M47 0q3 82 32.5 123t102.5 86l65 40q33 20 45 28.5t33 27t28.5 39t7.5 47.5q0 58 -39 90.5t-100 32.5q-64 0 -106.5 -35t-45.5 -111h-15q3 83 50 121.5t117 38.5q67 0 111 -36t44 -101q0 -20 -3 -36t-14.5 -31.5t-17 -23.5t-27 -23t-26.5 -18.5t-33 -20.5l-64 -39
q-69 -43 -96.5 -80t-31.5 -105h324v-14h-341z" />
    <glyph glyph-name="three.scppf" horiz-adv-x="430" 
d="M31 145h15q3 -139 162 -139q75 0 119 34.5t44 96.5q0 56 -46.5 93t-114.5 37h-32v13h32q60 0 99 32.5t39 85.5t-41 84.5t-99 31.5q-59 0 -98.5 -32t-40.5 -94h-14q1 68 44 104t109 36q65 0 110 -35.5t45 -94.5q0 -49 -29 -80.5t-70 -43.5v-1q47 -11 85 -46.5t38 -90.5
q0 -68 -48.5 -106t-130.5 -38q-174 0 -177 153z" />
    <glyph glyph-name="four.scppf" horiz-adv-x="436" 
d="M30 157v11l279 355h13v-353h90v-13h-90v-157h-16v157h-276zM48 170h258v327z" />
    <glyph glyph-name="five.scppf" horiz-adv-x="425" 
d="M55 128h16q9 -50 47.5 -86t108.5 -36q63 0 108 44.5t45 116.5q0 71 -45.5 113.5t-105.5 42.5q-94 0 -143 -90l-18 1l17 286h275v-14h-260l-16 -254h1q49 84 145 84q67 0 116.5 -45.5t49.5 -123.5q0 -79 -50 -127t-119 -48q-77 0 -119.5 39t-52.5 97z" />
    <glyph glyph-name="six.scppf" horiz-adv-x="446" 
d="M72 248q0 -25 1 -37h2q13 57 57.5 91t105.5 34q75 0 122.5 -48t47.5 -122q0 -77 -50.5 -125.5t-123.5 -48.5q-179 0 -179 256q0 146 50.5 213t135.5 67q68 0 107.5 -38t47.5 -100h-16q-8 56 -43 90t-96 34q-78 0 -123.5 -63.5t-45.5 -202.5zM82 163q0 -35 7 -54
q36 -103 145 -103q67 0 112.5 44t45.5 116q0 68 -43 112.5t-112 44.5q-67 0 -111 -44.5t-44 -115.5z" />
    <glyph glyph-name="seven.scppf" horiz-adv-x="370" 
d="M71 0l264 506h-307v14h325v-11l-264 -509h-18z" />
    <glyph glyph-name="eight.scppf" horiz-adv-x="444" 
d="M43 136q0 55 38 90.5t85 46.5v1q-41 12 -70 43.5t-29 80.5q0 59 45 94.5t110 35.5t110 -35.5t45 -94.5q0 -49 -29 -80.5t-70 -43.5v-1q47 -11 85 -46.5t38 -90.5q0 -68 -48.5 -106t-130.5 -38t-130.5 38t-48.5 106zM59 137q0 -62 44 -96.5t119 -34.5t119 34.5t44 96.5
q0 57 -46.5 93.5t-116.5 36.5t-116.5 -36.5t-46.5 -93.5zM82 398q0 -53 39.5 -85.5t100.5 -32.5t100.5 32.5t39.5 85.5t-41 84.5t-99 31.5t-99 -31.5t-41 -84.5z" />
    <glyph glyph-name="nine.scppf" horiz-adv-x="446" 
d="M374 272q0 5 -0.5 17.5t-0.5 19.5h-2q-13 -57 -57.5 -91t-105.5 -34q-75 0 -122.5 48t-47.5 122q0 77 50.5 125.5t123.5 48.5q179 0 179 -256q0 -145 -50.5 -212.5t-135.5 -67.5q-68 0 -107.5 38t-47.5 100h16q8 -56 43 -90t96 -34q78 0 123.5 63.5t45.5 202.5zM364 357
q0 25 -7 50q-37 107 -145 107q-66 0 -112 -44t-46 -116q0 -68 43 -112t112 -44q67 0 111 44t44 115z" />
    <glyph glyph-name="slashedzero.scppf" horiz-adv-x="470" 
d="M235 -8q-87 0 -133.5 74.5t-46.5 193.5t46.5 193.5t133.5 74.5t133 -74.5t46 -193.5t-46 -193.5t-133 -74.5zM235 6q79 0 121 71t42 183q0 135 -57 204l-208 -414q41 -44 102 -44zM71 260q0 -131 53 -199l208 413q-40 40 -97 40q-79 0 -121.5 -71t-42.5 -183z" />
    <glyph glyph-name="currency.scppf" horiz-adv-x="452" 
d="M57 79l-9 9l60 61q-41 48 -41 111q0 65 41 111l-59 60l9 9l59 -60q46 44 111 44q64 0 110 -43l58 59l9 -9l-59 -59q43 -48 43 -112t-43 -112l60 -60l-9 -9l-59 60q-46 -43 -110 -43q-67 0 -111 44zM228 109q63 0 104.5 43.5t41.5 107.5t-41.5 107.5t-104.5 43.5
t-104.5 -43.5t-41.5 -107.5t41.5 -107.5t104.5 -43.5z" />
    <glyph glyph-name="dollar.scppf" horiz-adv-x="407" 
d="M28 134h15q4 -59 48.5 -93.5t107.5 -34.5q65 0 108.5 34.5t43.5 92.5q0 44 -26.5 72.5t-83.5 45.5l-83 25q-56 17 -84.5 44.5t-28.5 79.5q0 55 41.5 90.5t108.5 37.5v88h15v-88q59 -2 100 -36.5t47 -89.5h-15q-6 52 -44.5 82t-94.5 30q-63 0 -102.5 -31t-39.5 -82
q0 -47 26 -71.5t76 -39.5l84 -25q62 -19 91 -50.5t29 -80.5q0 -63 -45 -101.5t-115 -40.5v-92h-15v92q-67 2 -113.5 40.5t-50.5 101.5z" />
    <glyph glyph-name="cent.scppf" horiz-adv-x="416" 
d="M214 -7v79q-76 2 -123 55t-47 136q0 81 48.5 134.5t121.5 56.5v73h15v-73q55 -2 95 -35.5t53 -87.5h-15q-13 50 -51 79.5t-89 29.5q-69 0 -115.5 -50t-46.5 -127q0 -78 44.5 -127.5t116.5 -49.5q51 0 89 30t52 81h14q-13 -55 -52.5 -89t-94.5 -36v-79h-15z" />
    <glyph glyph-name="Euro.scppf" horiz-adv-x="466" 
d="M5 199l1 12h72q-2 32 -2 49q0 28 3 57h-60l1 12h61q14 91 64.5 145t132.5 54q129 0 163 -137h-15q-14 57 -51 90t-96 33q-76 0 -122.5 -50t-59.5 -135h196l-2 -12h-196q-3 -27 -3 -57q0 -19 2 -49h186l-2 -12h-182q12 -88 59 -140.5t124 -52.5q110 0 143 108h15
q-38 -122 -159 -122q-84 0 -135 56.5t-63 150.5h-75z" />
    <glyph glyph-name="yen.scppf" horiz-adv-x="404" 
d="M27 520l175 -287h1l175 287h18l-185 -300h128v-12h-129v-86h129v-12h-129v-110h-16v110h-129v12h129v86h-129v12h128l-185 300h19z" />
    <glyph glyph-name="sterling.scppf" horiz-adv-x="476" 
d="M89 266v12h68q-31 74 -31 117q0 61 36.5 97t98.5 36q57 0 89.5 -35t36.5 -97h-15q-3 56 -31.5 87t-79.5 31q-55 0 -87 -31.5t-32 -86.5q0 -40 32 -118h140v-12h-134q26 -65 26 -114q0 -32 -7 -61q8 -6 32.5 -27.5t36.5 -30t33 -18t40 -9.5q23 0 39.5 8.5t25 19.5t14 30
t7 30.5t2.5 29.5h15q-8 -132 -103 -132q-17 0 -32 4.5t-32.5 16t-26 18t-29 25t-25.5 22.5q-26 -86 -98 -86q-36 0 -55 19.5t-19 50.5q0 30 22.5 52t55.5 22q38 0 85 -34q3 24 3 48q0 42 -28 116h-73zM98 5q69 0 86 83q-44 35 -82 35q-27 0 -45.5 -18.5t-18.5 -42.5
t15.5 -40.5t44.5 -16.5z" />
    <glyph glyph-name="florin.scppf" horiz-adv-x="414" 
d="M70 256v12h114l16 137q14 122 108 122q102 0 91 -121l-2 -22h-15l2 22q5 58 -14.5 82.5t-61.5 24.5q-79 0 -92 -108l-16 -137h132v-12h-133l-32 -280q-14 -122 -108 -122q-102 0 -91 121l2 22h15l-2 -22q-5 -58 14.5 -82.5t61.5 -24.5q79 0 92 108l32 280h-113z" />
    <glyph glyph-name="slashedzero.oldstyle" horiz-adv-x="548" 
d="M44 244q0 111 65.5 181.5t164.5 70.5q103 0 166.5 -69.5t63.5 -182.5q0 -110 -66 -181t-164 -71q-103 0 -166.5 70t-63.5 182zM488 244q0 115 -68 181l-283 -370q55 -49 137 -49q92 0 153 67t61 171zM60 244q0 -113 68 -181l283 371q-56 48 -137 48q-92 0 -153 -66.5
t-61 -171.5z" />
    <glyph glyph-name="plus.sc" horiz-adv-x="504" 
d="M60 256v14h184v189h16v-189h184v-14h-184v-192h-16v192h-184z" />
    <glyph glyph-name="minus.sc" horiz-adv-x="504" 
d="M60 256v14h384v-14h-384z" />
    <glyph glyph-name="multiply.sc" horiz-adv-x="504" 
d="M98 92l-10 10l155 161l-154 161l10 10l154 -160l155 160l10 -10l-155 -161l156 -161l-10 -10l-156 161z" />
    <glyph glyph-name="divide.sc" horiz-adv-x="504" 
d="M245 361v72h15v-72h-15zM60 256v14h384v-14h-384zM245 96v71h15v-71h-15z" />
    <glyph glyph-name="equal.sc" horiz-adv-x="504" 
d="M60 338v14h384v-14h-384zM60 177v14h384v-14h-384z" />
    <glyph glyph-name="less.sc" horiz-adv-x="504" 
d="M430 123v-15l-356 149v14l356 149v-15l-337 -141z" />
    <glyph glyph-name="greater.sc" horiz-adv-x="504" 
d="M74 405v15l356 -149v-14l-356 -149v15l337 141z" />
    <glyph glyph-name="plusminus.sc" horiz-adv-x="504" 
d="M76 258v14h168v171h15v-171h168v-14h-168v-175h-15v175h-168zM76 0v14h351v-14h-351z" />
    <glyph glyph-name="lessequal.sc" horiz-adv-x="504" 
d="M427 404l-337 -139l337 -138v-15l-354 146v15l354 146v-15zM75 0v14h350v-14h-350z" />
    <glyph glyph-name="greaterequal.sc" horiz-adv-x="504" 
d="M77 404v15l354 -146v-15l-354 -146v15l337 138zM79 14h350v-14h-350v14z" />
    <glyph glyph-name="notequal.sc" horiz-adv-x="504" 
d="M60 338v14h235l71 117l12 -7l-67 -110h133v-14h-142l-89 -147h231v-14h-240l-70 -116l-12 7l66 109h-128v14h137l89 147h-226z" />
    <glyph glyph-name="logicalnot.sc" horiz-adv-x="504" 
d="M60 256v14h384v-203h-15v189h-369z" />
    <glyph glyph-name="asciitilde.sc" horiz-adv-x="504" 
d="M83 214q0 46 23 71t60 25t88.5 -39t83.5 -39q31 0 50 22t19 60h14q0 -46 -22.5 -71t-60.5 -25q-37 0 -88 39.5t-84 39.5q-31 0 -50 -22t-19 -61h-14z" />
    <glyph glyph-name="approxequal.sc" horiz-adv-x="504" 
d="M83 136q0 46 23 71.5t60 25.5t88.5 -39.5t83.5 -39.5q31 0 50 22t19 60h14q0 -46 -22.5 -71t-60.5 -25q-37 0 -88 39.5t-84 39.5q-31 0 -50 -22t-19 -61h-14zM83 291q0 46 23 71t60 25t88.5 -39t83.5 -39q31 0 50 21.5t19 60.5h14q0 -46 -22.5 -71t-60.5 -25
q-37 0 -88 39t-84 39q-31 0 -50 -22t-19 -60h-14z" />
    <glyph glyph-name="infinity.sc" horiz-adv-x="597" 
d="M148 135q-54 0 -88 35t-34 90t34 90t88 35q47 0 85.5 -31.5t64.5 -80.5q25 48 64.5 80t86.5 32q54 0 88 -35t34 -90t-34 -90t-88 -35q-47 0 -86.5 31.5t-64.5 79.5q-26 -49 -64.5 -80t-85.5 -31zM148 148q44 0 82 33t61 79q-23 46 -61 79.5t-82 33.5q-48 0 -78 -31.5
t-30 -81.5t29.5 -81t78.5 -31zM306 260q23 -46 61 -79t82 -33q49 0 78.5 31t29.5 81t-30 81.5t-78 31.5q-44 0 -82 -33.5t-61 -79.5z" />
    <glyph glyph-name="numbersign.sc" horiz-adv-x="486" 
d="M51 376v13h104l23 131h15l-23 -131h197l23 131h15l-23 -131h94v-13h-97l-39 -220h97v-13h-99l-25 -143h-15l25 143h-197l-25 -143h-15l25 143h-99v13h102l38 220h-101zM167 376l-39 -220h198l38 220h-197z" />
    </font>
</defs>
</svg>
